G04 #@! TF.GenerationSoftware,KiCad,Pcbnew,(5.1.10)-1*
G04 #@! TF.CreationDate,2022-12-18T22:04:33+09:00*
G04 #@! TF.ProjectId,MD,4d442e6b-6963-4616-945f-706362585858,rev?*
G04 #@! TF.SameCoordinates,PX2faf080PY2625a00*
G04 #@! TF.FileFunction,Legend,Top*
G04 #@! TF.FilePolarity,Positive*
%FSLAX46Y46*%
G04 Gerber Fmt 4.6, Leading zero omitted, Abs format (unit mm)*
G04 Created by KiCad (PCBNEW (5.1.10)-1) date 2022-12-18 22:04:33*
%MOMM*%
%LPD*%
G01*
G04 APERTURE LIST*
%ADD10C,0.150000*%
%ADD11C,0.010000*%
%ADD12C,0.120000*%
G04 APERTURE END LIST*
D10*
X36891904Y-35636380D02*
X36891904Y-34636380D01*
X37272857Y-34636380D01*
X37368095Y-34684000D01*
X37415714Y-34731619D01*
X37463333Y-34826857D01*
X37463333Y-34969714D01*
X37415714Y-35064952D01*
X37368095Y-35112571D01*
X37272857Y-35160190D01*
X36891904Y-35160190D01*
X38415714Y-35636380D02*
X37844285Y-35636380D01*
X38130000Y-35636380D02*
X38130000Y-34636380D01*
X38034761Y-34779238D01*
X37939523Y-34874476D01*
X37844285Y-34922095D01*
X34645523Y-34636380D02*
X34169333Y-34636380D01*
X34121714Y-35112571D01*
X34169333Y-35064952D01*
X34264571Y-35017333D01*
X34502666Y-35017333D01*
X34597904Y-35064952D01*
X34645523Y-35112571D01*
X34693142Y-35207809D01*
X34693142Y-35445904D01*
X34645523Y-35541142D01*
X34597904Y-35588761D01*
X34502666Y-35636380D01*
X34264571Y-35636380D01*
X34169333Y-35588761D01*
X34121714Y-35541142D01*
X34978857Y-34636380D02*
X35312190Y-35636380D01*
X35645523Y-34636380D01*
X69388000Y-34112380D02*
X69388000Y-33112380D01*
X70435619Y-34112380D02*
X70102285Y-33636190D01*
X69864190Y-34112380D02*
X69864190Y-33112380D01*
X70245142Y-33112380D01*
X70340380Y-33160000D01*
X70388000Y-33207619D01*
X70435619Y-33302857D01*
X70435619Y-33445714D01*
X70388000Y-33540952D01*
X70340380Y-33588571D01*
X70245142Y-33636190D01*
X69864190Y-33636190D01*
D11*
G36*
X17530286Y-9469063D02*
G01*
X17594674Y-9478275D01*
X17643692Y-9496544D01*
X17682171Y-9526243D01*
X17714941Y-9569740D01*
X17736980Y-9609491D01*
X17768507Y-9687302D01*
X17796130Y-9787714D01*
X17819688Y-9908206D01*
X17839023Y-10046257D01*
X17853975Y-10199348D01*
X17864385Y-10364955D01*
X17870094Y-10540560D01*
X17870943Y-10723640D01*
X17866772Y-10911675D01*
X17857422Y-11102144D01*
X17843062Y-11288950D01*
X17825948Y-11426850D01*
X17799069Y-11579878D01*
X17763898Y-11742726D01*
X17721911Y-11910088D01*
X17674583Y-12076655D01*
X17623389Y-12237122D01*
X17569804Y-12386180D01*
X17515303Y-12518522D01*
X17481263Y-12590721D01*
X17445578Y-12666237D01*
X17422811Y-12727358D01*
X17411636Y-12780718D01*
X17410727Y-12832950D01*
X17418757Y-12890689D01*
X17420007Y-12897052D01*
X17429297Y-12949681D01*
X17439518Y-13017597D01*
X17449231Y-13090799D01*
X17455042Y-13140617D01*
X17462484Y-13200419D01*
X17470589Y-13251255D01*
X17478361Y-13287608D01*
X17484580Y-13303760D01*
X17498523Y-13303403D01*
X17525571Y-13286052D01*
X17567030Y-13250771D01*
X17595874Y-13223931D01*
X17683768Y-13133582D01*
X17751428Y-13046862D01*
X17802149Y-12957828D01*
X17839225Y-12860538D01*
X17865950Y-12749049D01*
X17869270Y-12730732D01*
X17882646Y-12666142D01*
X17897551Y-12625223D01*
X17916542Y-12606270D01*
X17942178Y-12607576D01*
X17977015Y-12627432D01*
X17999088Y-12644104D01*
X18060183Y-12705307D01*
X18117507Y-12786920D01*
X18169069Y-12884016D01*
X18212877Y-12991669D01*
X18246938Y-13104950D01*
X18269260Y-13218934D01*
X18277851Y-13328692D01*
X18277883Y-13333650D01*
X18266139Y-13481231D01*
X18230704Y-13621522D01*
X18172654Y-13752864D01*
X18093066Y-13873599D01*
X17993016Y-13982069D01*
X17873582Y-14076617D01*
X17748150Y-14149559D01*
X17700102Y-14171073D01*
X17653045Y-14188340D01*
X17623509Y-14196235D01*
X17593869Y-14205010D01*
X17579827Y-14216006D01*
X17579755Y-14219115D01*
X17594596Y-14234566D01*
X17627329Y-14255646D01*
X17671927Y-14279429D01*
X17722366Y-14302993D01*
X17772620Y-14323412D01*
X17816664Y-14337761D01*
X17831175Y-14341143D01*
X17876290Y-14348197D01*
X17936128Y-14355276D01*
X18000042Y-14361170D01*
X18021200Y-14362716D01*
X18225729Y-14387236D01*
X18416130Y-14432263D01*
X18591995Y-14497629D01*
X18752913Y-14583169D01*
X18898479Y-14688715D01*
X18964175Y-14747779D01*
X18998405Y-14783251D01*
X19016864Y-14810734D01*
X19023900Y-14837741D01*
X19024500Y-14851959D01*
X19021640Y-14879049D01*
X19010303Y-14899407D01*
X18986350Y-14915902D01*
X18945640Y-14931402D01*
X18885295Y-14948445D01*
X18803027Y-14980179D01*
X18735189Y-15029579D01*
X18678680Y-15099311D01*
X18649175Y-15151514D01*
X18637510Y-15176550D01*
X18628632Y-15201579D01*
X18621897Y-15231013D01*
X18616662Y-15269267D01*
X18612283Y-15320752D01*
X18608117Y-15389882D01*
X18604728Y-15456314D01*
X18596706Y-15607696D01*
X18588421Y-15736533D01*
X18579424Y-15845679D01*
X18569267Y-15937989D01*
X18557500Y-16016317D01*
X18543677Y-16083517D01*
X18527348Y-16142444D01*
X18508064Y-16195951D01*
X18485378Y-16246895D01*
X18478254Y-16261289D01*
X18414215Y-16366075D01*
X18327486Y-16472890D01*
X18220342Y-16579077D01*
X18167250Y-16624970D01*
X18103750Y-16677703D01*
X18127496Y-16739226D01*
X18165115Y-16859295D01*
X18183743Y-16973458D01*
X18183500Y-17079139D01*
X18164506Y-17173762D01*
X18126878Y-17254752D01*
X18102127Y-17288153D01*
X18062345Y-17324950D01*
X18015864Y-17353630D01*
X17970155Y-17370592D01*
X17932691Y-17372236D01*
X17929500Y-17371361D01*
X17919381Y-17367574D01*
X17912687Y-17361161D01*
X17909387Y-17348266D01*
X17909448Y-17325035D01*
X17912839Y-17287613D01*
X17919529Y-17232144D01*
X17927826Y-17167605D01*
X17924254Y-17107242D01*
X17897421Y-17045844D01*
X17846567Y-16981852D01*
X17828573Y-16963882D01*
X17769244Y-16912899D01*
X17702617Y-16868174D01*
X17622954Y-16826353D01*
X17524519Y-16784080D01*
X17513851Y-16779868D01*
X17419993Y-16744372D01*
X17344591Y-16719119D01*
X17283410Y-16702941D01*
X17232214Y-16694668D01*
X17198875Y-16692950D01*
X17173435Y-16693844D01*
X17156428Y-16698922D01*
X17147774Y-16711529D01*
X17147395Y-16735009D01*
X17155212Y-16772708D01*
X17171148Y-16827971D01*
X17194009Y-16900640D01*
X17209572Y-16950654D01*
X17223395Y-16998318D01*
X17236308Y-17047364D01*
X17249138Y-17101524D01*
X17262713Y-17164532D01*
X17277863Y-17240120D01*
X17295414Y-17332021D01*
X17316195Y-17443968D01*
X17324013Y-17486550D01*
X17364787Y-17663951D01*
X17420650Y-17828508D01*
X17476887Y-17954465D01*
X17519084Y-18040940D01*
X17551096Y-18109859D01*
X17574324Y-18166271D01*
X17590168Y-18215223D01*
X17600027Y-18261765D01*
X17605300Y-18310945D01*
X17607388Y-18367813D01*
X17607702Y-18426350D01*
X17606738Y-18508909D01*
X17603451Y-18573947D01*
X17597044Y-18629296D01*
X17586722Y-18682788D01*
X17578009Y-18718450D01*
X17535767Y-18852925D01*
X17484568Y-18964887D01*
X17424710Y-19053997D01*
X17356491Y-19119916D01*
X17280208Y-19162306D01*
X17196159Y-19180827D01*
X17170981Y-19181689D01*
X17077214Y-19174864D01*
X17004521Y-19155453D01*
X16953278Y-19123672D01*
X16923865Y-19079741D01*
X16916300Y-19034705D01*
X16920277Y-18993199D01*
X16930578Y-18940866D01*
X16941536Y-18900556D01*
X16961432Y-18801611D01*
X16964681Y-18689453D01*
X16951705Y-18569679D01*
X16922928Y-18447883D01*
X16902848Y-18388250D01*
X16881513Y-18337003D01*
X16855703Y-18288413D01*
X16822074Y-18237436D01*
X16777278Y-18179033D01*
X16717971Y-18108163D01*
X16713463Y-18102922D01*
X16631198Y-18004880D01*
X16555475Y-17909705D01*
X16489558Y-17821684D01*
X16436709Y-17745105D01*
X16415792Y-17711757D01*
X16375771Y-17655308D01*
X16335167Y-17616559D01*
X16296714Y-17597074D01*
X16263145Y-17598412D01*
X16243429Y-17613273D01*
X16237357Y-17626629D01*
X16235200Y-17650171D01*
X16237093Y-17687966D01*
X16243171Y-17744083D01*
X16249377Y-17791913D01*
X16265465Y-17936256D01*
X16271563Y-18062316D01*
X16267140Y-18175385D01*
X16251665Y-18280754D01*
X16224607Y-18383712D01*
X16185435Y-18489551D01*
X16177469Y-18508359D01*
X16151659Y-18568873D01*
X16126120Y-18629698D01*
X16104808Y-18681377D01*
X16097033Y-18700681D01*
X16063886Y-18769846D01*
X16015741Y-18850815D01*
X15956286Y-18938188D01*
X15889207Y-19026562D01*
X15818191Y-19110535D01*
X15814612Y-19114511D01*
X15765881Y-19167099D01*
X15727977Y-19203954D01*
X15695862Y-19229177D01*
X15664501Y-19246872D01*
X15639209Y-19257386D01*
X15559686Y-19276953D01*
X15468106Y-19283013D01*
X15373929Y-19275557D01*
X15296069Y-19257699D01*
X15210026Y-19223043D01*
X15145566Y-19179833D01*
X15103986Y-19132653D01*
X15078425Y-19086525D01*
X15067090Y-19040936D01*
X15069687Y-18989180D01*
X15085916Y-18924550D01*
X15093731Y-18900673D01*
X15128446Y-18798517D01*
X15121099Y-18313983D01*
X15119177Y-18202664D01*
X15116909Y-18096984D01*
X15114398Y-18000198D01*
X15111745Y-17915560D01*
X15109054Y-17846324D01*
X15106427Y-17795745D01*
X15103968Y-17767076D01*
X15103801Y-17765950D01*
X15093850Y-17702450D01*
X14949009Y-17698840D01*
X14804169Y-17695231D01*
X14812198Y-17832190D01*
X14816868Y-17894854D01*
X14824246Y-17974036D01*
X14833452Y-18061108D01*
X14843605Y-18147444D01*
X14847585Y-18178700D01*
X14858082Y-18267381D01*
X14865840Y-18354109D01*
X14871216Y-18445324D01*
X14874566Y-18547463D01*
X14876249Y-18666968D01*
X14876446Y-18699400D01*
X14877950Y-19010550D01*
X14841948Y-19083866D01*
X14817063Y-19128967D01*
X14790210Y-19162402D01*
X14757237Y-19185858D01*
X14713990Y-19201017D01*
X14656314Y-19209564D01*
X14580056Y-19213183D01*
X14521788Y-19213691D01*
X14432767Y-19212393D01*
X14365369Y-19206397D01*
X14315870Y-19192652D01*
X14280547Y-19168106D01*
X14255675Y-19129709D01*
X14237531Y-19074409D01*
X14222391Y-18999153D01*
X14216456Y-18963485D01*
X14204636Y-18901407D01*
X14189782Y-18838741D01*
X14174695Y-18787048D01*
X14171479Y-18777904D01*
X14049343Y-18424272D01*
X13947969Y-18081597D01*
X13867516Y-17750539D01*
X13808140Y-17431755D01*
X13770001Y-17125903D01*
X13767090Y-17092850D01*
X13760237Y-17013078D01*
X13754528Y-16955122D01*
X13749008Y-16915487D01*
X13742807Y-16891023D01*
X13849250Y-16891023D01*
X13849713Y-17118936D01*
X13850007Y-17182477D01*
X13850954Y-17237915D01*
X13853074Y-17288490D01*
X13856884Y-17337445D01*
X13862902Y-17388021D01*
X13871646Y-17443460D01*
X13883636Y-17507002D01*
X13899388Y-17581891D01*
X13919422Y-17671366D01*
X13944255Y-17778669D01*
X13974406Y-17907043D01*
X13978458Y-17924236D01*
X14008501Y-18047907D01*
X14038649Y-18163383D01*
X14070700Y-18276716D01*
X14106446Y-18393955D01*
X14147685Y-18521150D01*
X14196211Y-18664352D01*
X14209488Y-18702772D01*
X14230695Y-18769629D01*
X14251346Y-18844199D01*
X14267453Y-18911938D01*
X14269328Y-18921102D01*
X14282130Y-18975943D01*
X14297120Y-19025890D01*
X14311525Y-19061980D01*
X14314728Y-19067818D01*
X14355180Y-19110275D01*
X14416469Y-19140227D01*
X14496979Y-19157043D01*
X14552123Y-19160534D01*
X14624227Y-19157604D01*
X14679706Y-19143466D01*
X14726060Y-19114856D01*
X14770787Y-19068514D01*
X14774697Y-19063724D01*
X14813837Y-19015298D01*
X14810937Y-18746224D01*
X14809196Y-18618323D01*
X14806733Y-18509986D01*
X14803168Y-18415382D01*
X14798124Y-18328679D01*
X14791222Y-18244042D01*
X14782083Y-18155641D01*
X14770328Y-18057641D01*
X14762094Y-17993572D01*
X14752195Y-17912672D01*
X14743995Y-17835537D01*
X14737976Y-17767597D01*
X14734625Y-17714282D01*
X14734335Y-17682422D01*
X14738250Y-17613550D01*
X14904974Y-17618020D01*
X14985591Y-17619109D01*
X15041413Y-17617364D01*
X15072888Y-17612759D01*
X15080349Y-17608495D01*
X15098414Y-17594310D01*
X15117468Y-17602568D01*
X15133411Y-17630829D01*
X15136793Y-17642125D01*
X15144764Y-17685851D01*
X15152496Y-17752411D01*
X15159835Y-17839239D01*
X15166628Y-17943770D01*
X15172722Y-18063436D01*
X15177964Y-18195673D01*
X15182199Y-18337914D01*
X15184427Y-18439050D01*
X15186396Y-18545442D01*
X15187691Y-18629934D01*
X15188127Y-18696022D01*
X15187518Y-18747200D01*
X15185681Y-18786964D01*
X15182429Y-18818809D01*
X15177578Y-18846230D01*
X15170944Y-18872724D01*
X15162341Y-18901784D01*
X15159448Y-18911199D01*
X15145503Y-18962509D01*
X15136510Y-19007664D01*
X15133910Y-19038926D01*
X15134619Y-19044549D01*
X15150836Y-19077990D01*
X15180523Y-19115656D01*
X15215675Y-19148202D01*
X15233550Y-19160052D01*
X15287220Y-19180812D01*
X15357641Y-19195787D01*
X15436678Y-19204262D01*
X15516192Y-19205523D01*
X15588046Y-19198855D01*
X15614105Y-19193486D01*
X15671000Y-19168241D01*
X15724034Y-19125568D01*
X15764161Y-19072905D01*
X15766842Y-19067908D01*
X15784989Y-19023178D01*
X15802327Y-18960003D01*
X15809242Y-18925883D01*
X15875350Y-18925883D01*
X15884496Y-18926783D01*
X15890775Y-18925164D01*
X15903928Y-18912240D01*
X15924456Y-18882466D01*
X15948391Y-18841721D01*
X15953633Y-18832031D01*
X15987928Y-18764640D01*
X16025728Y-18685308D01*
X16064716Y-18599417D01*
X16102575Y-18512344D01*
X16136987Y-18429472D01*
X16165637Y-18356180D01*
X16186205Y-18297847D01*
X16192068Y-18278415D01*
X16205563Y-18224286D01*
X16213539Y-18175127D01*
X16215833Y-18125381D01*
X16212286Y-18069492D01*
X16202735Y-18001905D01*
X16187020Y-17917063D01*
X16180672Y-17885406D01*
X16162816Y-17799208D01*
X16148356Y-17734894D01*
X16136182Y-17689352D01*
X16125183Y-17659469D01*
X16114251Y-17642131D01*
X16102275Y-17634227D01*
X16090537Y-17632600D01*
X16051493Y-17644272D01*
X16022424Y-17679165D01*
X16003445Y-17737089D01*
X15996652Y-17786100D01*
X15979328Y-17982330D01*
X15963788Y-18154711D01*
X15949885Y-18304719D01*
X15937471Y-18433831D01*
X15926397Y-18543523D01*
X15916515Y-18635273D01*
X15907678Y-18710556D01*
X15899736Y-18770850D01*
X15894243Y-18807350D01*
X15886091Y-18858016D01*
X15879677Y-18898163D01*
X15875931Y-18921956D01*
X15875350Y-18925883D01*
X15809242Y-18925883D01*
X15819243Y-18876540D01*
X15836122Y-18770942D01*
X15849259Y-18674000D01*
X15870202Y-18505252D01*
X15887350Y-18355337D01*
X15901119Y-18218279D01*
X15911925Y-18088106D01*
X15920184Y-17958843D01*
X15926312Y-17824517D01*
X15930724Y-17679152D01*
X15933838Y-17516776D01*
X15934818Y-17445275D01*
X15936594Y-17326224D01*
X15938761Y-17219488D01*
X15941241Y-17127248D01*
X15943955Y-17051680D01*
X15946825Y-16994964D01*
X15949772Y-16959277D01*
X15952719Y-16946800D01*
X15952736Y-16946800D01*
X15962805Y-16951612D01*
X15971098Y-16967638D01*
X15977913Y-16997258D01*
X15983548Y-17042855D01*
X15988301Y-17106809D01*
X15992469Y-17191501D01*
X15996187Y-17294203D01*
X15999245Y-17377122D01*
X16002713Y-17451221D01*
X16006359Y-17512836D01*
X16009952Y-17558306D01*
X16013260Y-17583968D01*
X16014803Y-17588276D01*
X16031399Y-17587943D01*
X16062693Y-17580480D01*
X16079967Y-17575012D01*
X16123680Y-17561952D01*
X16178399Y-17548045D01*
X16218077Y-17539272D01*
X16300350Y-17522558D01*
X16306700Y-17466454D01*
X16314571Y-17426932D01*
X16326204Y-17412130D01*
X16341221Y-17422247D01*
X16352533Y-17442100D01*
X16407982Y-17555621D01*
X16459731Y-17652994D01*
X16511776Y-17740298D01*
X16568110Y-17823614D01*
X16632728Y-17909024D01*
X16709624Y-18002609D01*
X16757110Y-18058050D01*
X16825279Y-18140347D01*
X16877935Y-18213395D01*
X16919067Y-18284217D01*
X16952666Y-18359837D01*
X16982719Y-18447278D01*
X16987951Y-18464450D01*
X17012764Y-18573490D01*
X17024459Y-18686895D01*
X17022923Y-18797294D01*
X17008041Y-18897318D01*
X16995269Y-18941981D01*
X16978442Y-19005906D01*
X16979080Y-19053683D01*
X16998613Y-19087009D01*
X17038466Y-19107579D01*
X17100068Y-19117089D01*
X17143620Y-19118221D01*
X17228958Y-19106258D01*
X17305043Y-19071006D01*
X17371970Y-19012354D01*
X17429835Y-18930195D01*
X17478732Y-18824421D01*
X17518756Y-18694923D01*
X17520222Y-18689053D01*
X17541850Y-18595337D01*
X17555076Y-18518964D01*
X17560096Y-18453381D01*
X17557108Y-18392031D01*
X17546306Y-18328358D01*
X17532690Y-18273255D01*
X17513876Y-18213047D01*
X17486910Y-18139054D01*
X17455199Y-18060102D01*
X17422155Y-17985021D01*
X17417701Y-17975500D01*
X17375405Y-17884010D01*
X17342778Y-17807719D01*
X17317555Y-17739403D01*
X17297473Y-17671837D01*
X17280269Y-17597797D01*
X17263679Y-17510058D01*
X17253867Y-17452571D01*
X17225025Y-17288440D01*
X17196552Y-17145972D01*
X17167382Y-17021472D01*
X17136445Y-16911242D01*
X17102675Y-16811586D01*
X17065003Y-16718809D01*
X17022361Y-16629215D01*
X17007927Y-16601437D01*
X16980923Y-16548365D01*
X16960105Y-16503437D01*
X16947485Y-16471302D01*
X16945074Y-16456608D01*
X16945184Y-16456482D01*
X16957398Y-16460819D01*
X16982038Y-16480301D01*
X17014560Y-16511173D01*
X17027388Y-16524421D01*
X17065140Y-16562984D01*
X17093376Y-16586788D01*
X17119323Y-16600176D01*
X17150205Y-16607489D01*
X17170300Y-16610293D01*
X17280916Y-16631191D01*
X17402624Y-16666244D01*
X17527580Y-16712681D01*
X17647937Y-16767729D01*
X17709813Y-16800946D01*
X17777883Y-16841918D01*
X17829357Y-16879128D01*
X17871066Y-16918631D01*
X17909843Y-16966478D01*
X17931751Y-16997600D01*
X17970917Y-17059892D01*
X17993773Y-17110629D01*
X18001885Y-17156298D01*
X17996823Y-17203384D01*
X17988706Y-17233143D01*
X17977898Y-17271888D01*
X17972637Y-17299957D01*
X17973326Y-17309559D01*
X17987750Y-17307946D01*
X18011499Y-17289681D01*
X18040099Y-17259437D01*
X18069077Y-17221887D01*
X18091634Y-17185975D01*
X18110659Y-17148670D01*
X18121943Y-17115674D01*
X18127440Y-17077836D01*
X18129104Y-17026005D01*
X18129150Y-17010300D01*
X18127954Y-16952357D01*
X18122840Y-16909016D01*
X18111511Y-16869532D01*
X18091672Y-16823158D01*
X18087115Y-16813450D01*
X18062055Y-16765032D01*
X18035744Y-16721442D01*
X18013622Y-16691647D01*
X18012441Y-16690383D01*
X17989742Y-16657776D01*
X17991278Y-16632768D01*
X18017074Y-16615277D01*
X18036216Y-16609917D01*
X18082520Y-16596275D01*
X18126214Y-16574239D01*
X18173032Y-16540143D01*
X18228704Y-16490319D01*
X18239913Y-16479585D01*
X18308763Y-16408058D01*
X18365711Y-16336294D01*
X18412003Y-16260824D01*
X18448884Y-16178176D01*
X18477602Y-16084880D01*
X18499401Y-15977466D01*
X18515529Y-15852463D01*
X18527230Y-15706401D01*
X18529169Y-15674014D01*
X18536999Y-15543303D01*
X18544569Y-15434998D01*
X18552462Y-15346120D01*
X18561261Y-15273689D01*
X18571547Y-15214725D01*
X18583902Y-15166248D01*
X18598909Y-15125278D01*
X18617151Y-15088837D01*
X18639208Y-15053943D01*
X18654510Y-15032519D01*
X18718081Y-14966083D01*
X18798833Y-14916855D01*
X18875551Y-14889472D01*
X18923821Y-14873874D01*
X18951666Y-14857161D01*
X18958960Y-14836606D01*
X18945573Y-14809485D01*
X18911377Y-14773072D01*
X18868273Y-14734840D01*
X18739648Y-14641056D01*
X18592109Y-14562401D01*
X18427708Y-14499665D01*
X18248496Y-14453636D01*
X18065650Y-14426027D01*
X18016206Y-14420438D01*
X17970465Y-14414475D01*
X17948175Y-14411065D01*
X17917275Y-14409047D01*
X17909296Y-14417320D01*
X17924101Y-14435518D01*
X17961555Y-14463273D01*
X17969309Y-14468362D01*
X18011347Y-14499567D01*
X18055339Y-14538678D01*
X18096779Y-14580839D01*
X18131158Y-14621190D01*
X18153970Y-14654875D01*
X18160900Y-14674837D01*
X18153150Y-14695786D01*
X18128361Y-14710493D01*
X18084219Y-14719584D01*
X18018411Y-14723685D01*
X17979098Y-14724067D01*
X17852979Y-14718235D01*
X17710611Y-14701781D01*
X17558396Y-14675574D01*
X17452607Y-14652642D01*
X17395671Y-14639947D01*
X17348238Y-14630665D01*
X17315463Y-14625716D01*
X17302630Y-14625835D01*
X17302317Y-14640661D01*
X17308382Y-14672326D01*
X17317564Y-14707059D01*
X17330288Y-14770627D01*
X17337707Y-14850760D01*
X17339808Y-14939180D01*
X17336574Y-15027611D01*
X17327991Y-15107775D01*
X17318394Y-15156100D01*
X17271409Y-15289785D01*
X17203101Y-15410762D01*
X17115020Y-15517367D01*
X17008715Y-15607935D01*
X16885736Y-15680802D01*
X16793960Y-15719185D01*
X16737216Y-15736528D01*
X16672814Y-15751784D01*
X16607248Y-15763906D01*
X16547016Y-15771843D01*
X16498614Y-15774549D01*
X16469991Y-15771476D01*
X16454955Y-15762303D01*
X16449231Y-15744634D01*
X16453199Y-15714613D01*
X16467243Y-15668385D01*
X16485038Y-15619650D01*
X16499177Y-15576012D01*
X16508804Y-15528726D01*
X16514974Y-15470649D01*
X16518744Y-15394638D01*
X16518863Y-15391050D01*
X16519932Y-15309753D01*
X16516545Y-15250447D01*
X16507899Y-15209986D01*
X16493192Y-15185226D01*
X16471620Y-15173020D01*
X16462759Y-15171196D01*
X16443386Y-15172867D01*
X16425712Y-15185944D01*
X16407867Y-15213516D01*
X16387983Y-15258676D01*
X16364191Y-15324513D01*
X16356792Y-15346424D01*
X16341539Y-15392868D01*
X16330865Y-15429991D01*
X16324122Y-15463837D01*
X16320660Y-15500456D01*
X16319831Y-15545893D01*
X16320987Y-15606195D01*
X16322738Y-15663924D01*
X16327874Y-15771669D01*
X16336068Y-15856422D01*
X16347870Y-15920465D01*
X16363828Y-15966082D01*
X16384492Y-15995556D01*
X16405787Y-16009468D01*
X16512090Y-16056098D01*
X16604123Y-16104018D01*
X16692628Y-16158927D01*
X16711366Y-16171602D01*
X16775192Y-16216400D01*
X16819691Y-16250623D01*
X16847342Y-16276719D01*
X16860627Y-16297134D01*
X16862026Y-16314316D01*
X16860637Y-16318854D01*
X16853176Y-16328167D01*
X16838897Y-16325369D01*
X16812962Y-16308639D01*
X16792421Y-16293181D01*
X16657040Y-16198739D01*
X16523349Y-16126337D01*
X16385815Y-16073664D01*
X16238907Y-16038407D01*
X16152069Y-16025597D01*
X16079988Y-16017009D01*
X16052113Y-16072329D01*
X16010429Y-16140561D01*
X15952166Y-16215687D01*
X15882610Y-16291677D01*
X15807046Y-16362500D01*
X15773300Y-16390437D01*
X15694938Y-16444891D01*
X15620159Y-16479415D01*
X15541748Y-16497071D01*
X15516125Y-16499559D01*
X15465514Y-16504730D01*
X15437807Y-16511553D01*
X15433411Y-16520329D01*
X15452736Y-16531362D01*
X15496190Y-16544951D01*
X15564181Y-16561400D01*
X15614550Y-16572270D01*
X15690598Y-16591314D01*
X15742278Y-16611443D01*
X15769193Y-16632473D01*
X15773300Y-16644785D01*
X15763902Y-16671927D01*
X15738857Y-16708656D01*
X15702884Y-16749382D01*
X15660704Y-16788516D01*
X15635164Y-16808347D01*
X15536297Y-16864108D01*
X15421736Y-16901938D01*
X15294640Y-16920920D01*
X15238863Y-16923048D01*
X15153831Y-16920375D01*
X15083533Y-16911502D01*
X15031631Y-16897078D01*
X15005584Y-16881765D01*
X14982952Y-16871701D01*
X14972822Y-16870600D01*
X14960415Y-16877390D01*
X14948966Y-16900224D01*
X14936925Y-16942798D01*
X14930380Y-16971793D01*
X14890877Y-17101498D01*
X14831078Y-17222961D01*
X14753988Y-17330543D01*
X14719098Y-17368311D01*
X14669133Y-17416346D01*
X14628413Y-17447801D01*
X14592936Y-17462095D01*
X14558703Y-17458647D01*
X14521710Y-17436875D01*
X14477958Y-17396199D01*
X14423444Y-17336037D01*
X14412811Y-17323821D01*
X14349053Y-17242094D01*
X14293260Y-17154595D01*
X14248790Y-17067520D01*
X14219000Y-16987064D01*
X14210547Y-16950606D01*
X14200609Y-16892023D01*
X14193012Y-16854495D01*
X14184621Y-16834275D01*
X14172298Y-16827614D01*
X14152908Y-16830765D01*
X14123314Y-16839981D01*
X14119059Y-16841277D01*
X14072473Y-16853217D01*
X14013137Y-16865584D01*
X13953522Y-16875791D01*
X13950850Y-16876185D01*
X13849250Y-16891023D01*
X13742807Y-16891023D01*
X13742718Y-16890675D01*
X13734701Y-16877190D01*
X13724001Y-16871536D01*
X13709660Y-16870216D01*
X13706133Y-16870162D01*
X13677642Y-16865344D01*
X13634502Y-16853031D01*
X13585404Y-16835748D01*
X13578915Y-16833219D01*
X13498347Y-16796576D01*
X13437753Y-16758581D01*
X13398459Y-16720490D01*
X13381787Y-16683553D01*
X13387382Y-16652020D01*
X13404664Y-16637842D01*
X13440402Y-16620213D01*
X13488465Y-16602057D01*
X13499822Y-16598365D01*
X13581269Y-16571543D01*
X13638772Y-16550029D01*
X13673145Y-16533465D01*
X13685201Y-16521488D01*
X13683223Y-16517198D01*
X13664729Y-16508485D01*
X13630952Y-16497491D01*
X13610207Y-16491892D01*
X13531564Y-16461660D01*
X13449733Y-16411778D01*
X13369687Y-16346654D01*
X13296402Y-16270689D01*
X13234850Y-16188290D01*
X13202083Y-16130520D01*
X13165981Y-16046922D01*
X13137916Y-15961732D01*
X13118587Y-15879326D01*
X13108691Y-15804080D01*
X13108734Y-15792243D01*
X13169994Y-15792243D01*
X13174367Y-15838228D01*
X13186311Y-15899091D01*
X13203607Y-15966273D01*
X13224036Y-16031215D01*
X13245379Y-16085356D01*
X13246743Y-16088294D01*
X13272145Y-16130189D01*
X13311941Y-16182181D01*
X13360738Y-16238440D01*
X13413142Y-16293138D01*
X13463760Y-16340444D01*
X13507199Y-16374532D01*
X13517692Y-16381118D01*
X13553267Y-16397043D01*
X13605220Y-16414630D01*
X13664921Y-16431110D01*
X13695661Y-16438216D01*
X13758131Y-16451832D01*
X13799878Y-16461991D01*
X13825064Y-16470339D01*
X13837848Y-16478519D01*
X13842393Y-16488177D01*
X13842900Y-16496416D01*
X13831880Y-16509612D01*
X13802100Y-16529570D01*
X13758478Y-16553860D01*
X13705934Y-16580054D01*
X13649386Y-16605723D01*
X13593753Y-16628438D01*
X13543954Y-16645771D01*
X13535159Y-16648369D01*
X13495127Y-16661151D01*
X13465991Y-16673064D01*
X13455663Y-16679915D01*
X13459000Y-16696333D01*
X13483617Y-16717062D01*
X13526173Y-16740173D01*
X13583327Y-16763738D01*
X13625774Y-16778090D01*
X13742889Y-16804947D01*
X13862553Y-16814517D01*
X13979205Y-16807164D01*
X14087283Y-16783251D01*
X14181225Y-16743141D01*
X14183852Y-16741642D01*
X14215591Y-16725794D01*
X14237797Y-16719146D01*
X14242765Y-16720131D01*
X14247340Y-16735398D01*
X14253262Y-16770081D01*
X14259611Y-16818297D01*
X14263294Y-16851764D01*
X14283282Y-16968342D01*
X14319817Y-17073245D01*
X14376265Y-17175605D01*
X14390414Y-17196830D01*
X14427432Y-17246754D01*
X14468257Y-17295133D01*
X14508743Y-17337743D01*
X14544741Y-17370358D01*
X14572104Y-17388754D01*
X14581342Y-17391300D01*
X14602832Y-17382755D01*
X14633415Y-17360729D01*
X14656483Y-17339716D01*
X14691208Y-17300855D01*
X14729550Y-17251758D01*
X14758151Y-17210642D01*
X14789655Y-17153584D01*
X14820307Y-17083599D01*
X14847563Y-17008195D01*
X14868879Y-16934877D01*
X14881712Y-16871154D01*
X14884300Y-16838299D01*
X14888288Y-16796866D01*
X14902111Y-16775963D01*
X14928558Y-16774487D01*
X14970416Y-16791335D01*
X14984386Y-16798700D01*
X15094552Y-16844680D01*
X15210009Y-16866466D01*
X15328306Y-16864058D01*
X15446995Y-16837454D01*
X15540133Y-16798975D01*
X15583439Y-16773562D01*
X15626246Y-16742328D01*
X15663091Y-16710027D01*
X15688507Y-16681413D01*
X15697100Y-16662412D01*
X15685371Y-16652924D01*
X15653829Y-16642724D01*
X15608523Y-16633674D01*
X15546868Y-16619641D01*
X15481334Y-16597485D01*
X15416434Y-16569621D01*
X15356682Y-16538463D01*
X15306593Y-16506427D01*
X15270681Y-16475927D01*
X15253459Y-16449379D01*
X15252600Y-16443254D01*
X15256219Y-16434695D01*
X15270008Y-16430121D01*
X15298366Y-16429174D01*
X15345691Y-16431492D01*
X15372876Y-16433396D01*
X15434916Y-16436954D01*
X15481293Y-16436322D01*
X15521527Y-16430624D01*
X15565136Y-16418984D01*
X15579791Y-16414367D01*
X15663165Y-16377689D01*
X15747921Y-16322990D01*
X15828712Y-16255236D01*
X15900191Y-16179391D01*
X15957010Y-16100419D01*
X15990295Y-16033204D01*
X16017008Y-15952702D01*
X16041754Y-15861295D01*
X16061631Y-15770702D01*
X16073021Y-15699025D01*
X16077254Y-15658066D01*
X16076413Y-15636271D01*
X16068702Y-15627616D01*
X16052325Y-15626077D01*
X16051273Y-15626078D01*
X16026867Y-15629549D01*
X15984673Y-15638869D01*
X15931207Y-15652503D01*
X15887600Y-15664644D01*
X15737857Y-15703203D01*
X15602753Y-15727725D01*
X15476418Y-15739165D01*
X15422386Y-15740300D01*
X15371021Y-15741241D01*
X15330939Y-15743769D01*
X15307655Y-15747440D01*
X15304009Y-15749825D01*
X15313905Y-15761446D01*
X15339298Y-15782861D01*
X15374747Y-15809488D01*
X15375671Y-15810150D01*
X15426763Y-15852020D01*
X15467767Y-15895957D01*
X15495071Y-15937265D01*
X15505059Y-15971249D01*
X15504526Y-15977539D01*
X15491131Y-15997203D01*
X15462822Y-16018367D01*
X15451542Y-16024437D01*
X15427881Y-16034739D01*
X15404353Y-16040706D01*
X15374887Y-16042663D01*
X15333411Y-16040936D01*
X15273851Y-16035847D01*
X15261042Y-16034629D01*
X15132867Y-16018224D01*
X15021104Y-15995470D01*
X14929693Y-15967198D01*
X14915924Y-15961678D01*
X14870143Y-15945605D01*
X14841067Y-15944986D01*
X14824098Y-15961444D01*
X14814636Y-15996602D01*
X14814497Y-15997475D01*
X14789888Y-16105119D01*
X14752271Y-16206537D01*
X14704079Y-16297530D01*
X14647746Y-16373903D01*
X14585705Y-16431460D01*
X14549947Y-16453618D01*
X14505964Y-16469531D01*
X14469515Y-16465539D01*
X14435077Y-16439947D01*
X14411274Y-16411093D01*
X14378373Y-16358882D01*
X14355072Y-16301784D01*
X14339720Y-16233820D01*
X14330666Y-16149010D01*
X14328547Y-16111420D01*
X14325218Y-16053899D01*
X14321207Y-16006453D01*
X14317046Y-15974385D01*
X14313657Y-15963080D01*
X14298750Y-15964751D01*
X14265984Y-15973579D01*
X14221309Y-15987879D01*
X14200583Y-15995058D01*
X14078834Y-16034804D01*
X13972560Y-16062580D01*
X13883860Y-16077915D01*
X13819400Y-16080620D01*
X13747650Y-16076850D01*
X13743750Y-16015815D01*
X13742602Y-15988260D01*
X13745327Y-15966851D01*
X13754974Y-15946388D01*
X13774594Y-15921670D01*
X13807237Y-15887496D01*
X13835825Y-15858807D01*
X13875009Y-15819191D01*
X13906470Y-15786564D01*
X13926499Y-15764824D01*
X13931800Y-15757916D01*
X13919792Y-15756260D01*
X13886539Y-15754774D01*
X13836195Y-15753567D01*
X13772914Y-15752743D01*
X13719075Y-15752442D01*
X13639975Y-15751545D01*
X13562213Y-15749441D01*
X13492608Y-15746398D01*
X13437976Y-15742685D01*
X13417450Y-15740541D01*
X13359534Y-15733090D01*
X13299985Y-15725331D01*
X13260633Y-15720133D01*
X13213871Y-15716759D01*
X13186463Y-15724758D01*
X13173483Y-15748048D01*
X13170003Y-15790551D01*
X13169994Y-15792243D01*
X13108734Y-15792243D01*
X13108924Y-15740369D01*
X13119983Y-15692569D01*
X13129695Y-15676121D01*
X13148244Y-15658735D01*
X13172695Y-15650669D01*
X13211884Y-15649356D01*
X13220921Y-15649630D01*
X13270006Y-15653781D01*
X13329594Y-15662169D01*
X13378501Y-15671299D01*
X13431947Y-15680312D01*
X13499825Y-15688182D01*
X13575699Y-15694547D01*
X13653136Y-15699046D01*
X13725698Y-15701318D01*
X13786951Y-15701001D01*
X13830459Y-15697734D01*
X13835192Y-15696942D01*
X13867051Y-15685955D01*
X13877014Y-15671938D01*
X13864390Y-15659343D01*
X13841905Y-15653778D01*
X13796894Y-15645596D01*
X13733891Y-15630952D01*
X13658959Y-15611529D01*
X13578163Y-15589008D01*
X13497571Y-15565073D01*
X13423245Y-15541405D01*
X13369446Y-15522724D01*
X13149020Y-15431086D01*
X12942092Y-15323200D01*
X12752294Y-15201082D01*
X12651186Y-15124279D01*
X12619178Y-15101035D01*
X12594400Y-15087812D01*
X12584856Y-15086709D01*
X12570596Y-15107700D01*
X12559475Y-15146772D01*
X12552694Y-15196678D01*
X12551458Y-15250173D01*
X12553357Y-15276584D01*
X12569349Y-15383332D01*
X12592611Y-15470397D01*
X12625392Y-15542998D01*
X12669937Y-15606351D01*
X12716090Y-15654379D01*
X12757167Y-15694962D01*
X12778841Y-15722439D01*
X12782369Y-15738483D01*
X12780846Y-15740633D01*
X12752832Y-15755014D01*
X12704647Y-15765588D01*
X12641237Y-15772348D01*
X12567546Y-15775286D01*
X12488519Y-15774395D01*
X12409100Y-15769666D01*
X12334233Y-15761093D01*
X12268864Y-15748668D01*
X12242700Y-15741455D01*
X12142859Y-15700528D01*
X12043684Y-15642367D01*
X11950504Y-15571342D01*
X11868648Y-15491827D01*
X11803447Y-15408195D01*
X11774155Y-15357076D01*
X11733421Y-15245839D01*
X11714066Y-15125974D01*
X11715755Y-15002032D01*
X11738152Y-14878560D01*
X11780921Y-14760109D01*
X11824113Y-14680527D01*
X11854661Y-14629946D01*
X11870364Y-14597153D01*
X11871605Y-14579602D01*
X11858763Y-14574751D01*
X11839474Y-14578081D01*
X11767472Y-14594010D01*
X11684044Y-14608383D01*
X11593379Y-14620885D01*
X11499663Y-14631202D01*
X11407086Y-14639018D01*
X11319835Y-14644018D01*
X11242099Y-14645888D01*
X11178065Y-14644311D01*
X11131921Y-14638974D01*
X11112400Y-14632773D01*
X11086174Y-14608072D01*
X11076926Y-14584190D01*
X11084925Y-14551474D01*
X11113981Y-14510885D01*
X11161736Y-14464388D01*
X11225829Y-14413947D01*
X11303901Y-14361529D01*
X11393592Y-14309098D01*
X11431472Y-14288936D01*
X11476740Y-14264141D01*
X11511747Y-14242414D01*
X11531479Y-14226994D01*
X11534048Y-14222650D01*
X11523466Y-14210407D01*
X11496332Y-14189870D01*
X11458226Y-14165211D01*
X11452976Y-14162050D01*
X11357664Y-14092838D01*
X11267232Y-14003927D01*
X11186201Y-13901014D01*
X11119092Y-13789798D01*
X11072787Y-13682900D01*
X11058687Y-13636259D01*
X11049938Y-13589575D01*
X11045466Y-13534492D01*
X11044254Y-13465839D01*
X11104619Y-13465839D01*
X11120209Y-13589085D01*
X11155666Y-13708464D01*
X11209018Y-13820827D01*
X11278291Y-13923030D01*
X11361514Y-14011926D01*
X11456715Y-14084367D01*
X11561922Y-14137207D01*
X11621272Y-14156244D01*
X11661689Y-14165435D01*
X11694281Y-14167963D01*
X11729626Y-14163495D01*
X11778300Y-14151699D01*
X11780022Y-14151243D01*
X11840807Y-14137488D01*
X11899370Y-14128363D01*
X11950392Y-14124246D01*
X11988553Y-14125519D01*
X12008533Y-14132561D01*
X12009927Y-14134823D01*
X12001323Y-14144857D01*
X11973305Y-14156445D01*
X11941432Y-14165001D01*
X11830753Y-14194490D01*
X11711654Y-14234476D01*
X11590662Y-14282175D01*
X11474300Y-14334803D01*
X11369092Y-14389574D01*
X11281564Y-14443706D01*
X11271150Y-14451034D01*
X11204765Y-14501790D01*
X11161560Y-14542276D01*
X11141540Y-14572481D01*
X11144710Y-14592392D01*
X11171075Y-14601995D01*
X11209750Y-14602187D01*
X11395555Y-14587251D01*
X11557971Y-14569882D01*
X11698929Y-14549708D01*
X11820357Y-14526357D01*
X11924184Y-14499454D01*
X12012339Y-14468628D01*
X12086750Y-14433506D01*
X12089154Y-14432180D01*
X12133743Y-14408380D01*
X12160840Y-14397034D01*
X12174566Y-14397252D01*
X12179042Y-14408148D01*
X12179199Y-14412762D01*
X12169270Y-14427823D01*
X12142737Y-14452151D01*
X12104487Y-14481471D01*
X12086057Y-14494277D01*
X11988585Y-14569701D01*
X11911025Y-14652611D01*
X11847925Y-14749118D01*
X11832563Y-14778496D01*
X11791424Y-14876913D01*
X11769758Y-14972479D01*
X11766089Y-15074004D01*
X11771843Y-15140878D01*
X11788729Y-15233877D01*
X11816827Y-15313042D01*
X11859922Y-15386228D01*
X11921798Y-15461287D01*
X11930971Y-15471118D01*
X12021584Y-15558138D01*
X12111436Y-15624090D01*
X12205930Y-15671419D01*
X12310471Y-15702568D01*
X12430466Y-15719981D01*
X12490156Y-15723950D01*
X12567926Y-15727252D01*
X12622650Y-15727828D01*
X12656637Y-15724451D01*
X12672199Y-15715894D01*
X12671643Y-15700927D01*
X12657280Y-15678325D01*
X12632594Y-15648241D01*
X12575556Y-15574337D01*
X12536825Y-15505823D01*
X12513141Y-15434668D01*
X12501246Y-15352842D01*
X12499241Y-15319646D01*
X12498336Y-15237546D01*
X12504626Y-15164598D01*
X12519524Y-15085223D01*
X12521080Y-15078346D01*
X12538926Y-15010720D01*
X12559038Y-14951604D01*
X12579639Y-14904936D01*
X12598950Y-14874654D01*
X12615193Y-14864693D01*
X12617350Y-14865232D01*
X12624845Y-14872649D01*
X12626957Y-14890162D01*
X12623656Y-14922966D01*
X12616771Y-14965600D01*
X12614866Y-14988631D01*
X12619637Y-15009621D01*
X12633809Y-15031599D01*
X12660106Y-15057595D01*
X12701254Y-15090640D01*
X12759977Y-15133763D01*
X12782450Y-15149846D01*
X12935849Y-15251301D01*
X13094720Y-15339891D01*
X13264874Y-15418461D01*
X13452124Y-15489857D01*
X13531750Y-15516601D01*
X13621427Y-15544746D01*
X13699210Y-15566478D01*
X13772565Y-15583307D01*
X13848957Y-15596744D01*
X13935854Y-15608299D01*
X14039750Y-15619388D01*
X14114890Y-15626841D01*
X14186639Y-15633989D01*
X14248718Y-15640202D01*
X14294848Y-15644854D01*
X14309625Y-15646363D01*
X14352928Y-15653611D01*
X14372793Y-15662881D01*
X14370931Y-15672628D01*
X14349053Y-15681310D01*
X14308869Y-15687381D01*
X14262000Y-15689336D01*
X14194883Y-15700343D01*
X14116932Y-15732328D01*
X14030104Y-15784328D01*
X13953662Y-15841220D01*
X13888304Y-15896772D01*
X13839257Y-15944673D01*
X13807515Y-15983532D01*
X13794069Y-16011956D01*
X13799914Y-16028552D01*
X13817358Y-16032400D01*
X13849904Y-16028273D01*
X13901008Y-16016954D01*
X13965399Y-16000036D01*
X14037801Y-15979113D01*
X14112941Y-15955776D01*
X14185547Y-15931620D01*
X14250343Y-15908236D01*
X14302058Y-15887219D01*
X14310134Y-15883548D01*
X14349312Y-15867616D01*
X14380729Y-15858951D01*
X14394164Y-15858737D01*
X14400989Y-15866672D01*
X14405226Y-15886505D01*
X14407079Y-15921710D01*
X14406750Y-15975756D01*
X14404846Y-16040876D01*
X14402966Y-16131164D01*
X14404989Y-16201334D01*
X14411672Y-16256475D01*
X14423770Y-16301673D01*
X14442039Y-16342014D01*
X14452157Y-16359425D01*
X14477564Y-16390491D01*
X14504837Y-16398777D01*
X14539343Y-16385104D01*
X14554412Y-16375077D01*
X14590427Y-16340770D01*
X14629639Y-16289517D01*
X14667473Y-16228555D01*
X14699354Y-16165122D01*
X14717754Y-16116641D01*
X14732714Y-16058797D01*
X14745465Y-15993315D01*
X14751063Y-15953171D01*
X14759324Y-15896367D01*
X14771579Y-15862451D01*
X14791228Y-15848915D01*
X14821670Y-15853253D01*
X14862465Y-15871042D01*
X14929953Y-15900318D01*
X15006907Y-15925037D01*
X15099132Y-15946858D01*
X15181238Y-15962222D01*
X15253660Y-15972851D01*
X15319836Y-15979207D01*
X15375199Y-15981145D01*
X15415182Y-15978520D01*
X15435219Y-15971189D01*
X15435895Y-15970282D01*
X15431126Y-15955511D01*
X15409220Y-15930066D01*
X15374037Y-15897573D01*
X15329432Y-15861657D01*
X15290203Y-15833341D01*
X15201551Y-15779328D01*
X15108633Y-15734646D01*
X15020283Y-15703332D01*
X14988822Y-15695584D01*
X14932500Y-15681289D01*
X14896711Y-15666621D01*
X14885166Y-15654450D01*
X15092099Y-15654450D01*
X15093276Y-15658822D01*
X15117788Y-15665126D01*
X15119250Y-15665465D01*
X15151662Y-15669738D01*
X15198780Y-15672203D01*
X15246115Y-15672371D01*
X15293602Y-15670420D01*
X15321316Y-15666090D01*
X15334870Y-15657817D01*
X15339481Y-15646356D01*
X15339870Y-15637939D01*
X15420798Y-15637939D01*
X15421191Y-15664539D01*
X15440786Y-15682356D01*
X15442927Y-15683095D01*
X15471288Y-15684683D01*
X15522454Y-15679182D01*
X15594920Y-15666865D01*
X15687180Y-15648006D01*
X15797730Y-15622878D01*
X15867883Y-15605969D01*
X15951611Y-15585870D01*
X16014255Y-15572330D01*
X16059237Y-15565236D01*
X16089983Y-15564476D01*
X16109917Y-15569941D01*
X16122461Y-15581517D01*
X16130402Y-15597425D01*
X16136393Y-15620166D01*
X16138476Y-15650644D01*
X16136421Y-15692965D01*
X16129998Y-15751236D01*
X16118974Y-15829561D01*
X16116390Y-15846728D01*
X16109751Y-15902680D01*
X16112518Y-15938427D01*
X16127973Y-15958414D01*
X16159403Y-15967088D01*
X16206655Y-15968900D01*
X16281300Y-15968900D01*
X16280847Y-15927625D01*
X16277556Y-15892362D01*
X16269549Y-15844886D01*
X16261995Y-15810150D01*
X16248345Y-15725279D01*
X16243353Y-15627045D01*
X16246843Y-15525899D01*
X16258636Y-15432291D01*
X16269186Y-15385665D01*
X16280306Y-15339663D01*
X16286114Y-15303157D01*
X16285607Y-15282892D01*
X16284713Y-15281433D01*
X16270093Y-15282818D01*
X16237135Y-15293802D01*
X16190254Y-15312689D01*
X16133862Y-15337780D01*
X16113688Y-15347241D01*
X15999861Y-15399045D01*
X15880812Y-15449193D01*
X15763340Y-15495037D01*
X15654238Y-15533927D01*
X15560305Y-15563215D01*
X15557400Y-15564027D01*
X15508588Y-15579301D01*
X15467426Y-15595227D01*
X15441854Y-15608682D01*
X15439925Y-15610231D01*
X15420798Y-15637939D01*
X15339870Y-15637939D01*
X15340030Y-15634487D01*
X15332741Y-15628080D01*
X15312723Y-15626354D01*
X15275087Y-15628529D01*
X15244366Y-15631170D01*
X15192188Y-15636514D01*
X15146281Y-15642417D01*
X15115537Y-15647717D01*
X15112900Y-15648358D01*
X15092099Y-15654450D01*
X14885166Y-15654450D01*
X14883316Y-15652500D01*
X14886417Y-15645049D01*
X14900863Y-15640534D01*
X14935378Y-15633124D01*
X14984932Y-15623812D01*
X15044493Y-15613594D01*
X15050004Y-15612692D01*
X15247712Y-15577139D01*
X15426466Y-15537380D01*
X15592623Y-15491326D01*
X15752542Y-15436886D01*
X15912580Y-15371970D01*
X16079095Y-15294489D01*
X16192400Y-15237133D01*
X16291981Y-15183627D01*
X16368725Y-15138391D01*
X16423572Y-15100762D01*
X16457463Y-15070083D01*
X16471339Y-15045691D01*
X16471800Y-15041094D01*
X16466001Y-15015351D01*
X16451200Y-14978195D01*
X16440050Y-14955594D01*
X16419035Y-14909635D01*
X16409546Y-14875177D01*
X16410791Y-14854959D01*
X16421979Y-14851718D01*
X16442319Y-14868193D01*
X16459158Y-14889481D01*
X16497811Y-14958319D01*
X16530323Y-15045187D01*
X16554267Y-15142986D01*
X16561631Y-15188918D01*
X16568176Y-15261322D01*
X16570549Y-15343444D01*
X16569045Y-15428542D01*
X16563959Y-15509872D01*
X16555587Y-15580692D01*
X16544225Y-15634259D01*
X16541780Y-15641852D01*
X16530319Y-15676977D01*
X16523547Y-15702024D01*
X16522784Y-15707143D01*
X16533855Y-15713420D01*
X16563757Y-15713077D01*
X16607040Y-15706952D01*
X16658251Y-15695878D01*
X16711942Y-15680693D01*
X16726269Y-15675957D01*
X16867475Y-15617928D01*
X16988329Y-15547665D01*
X17088039Y-15465812D01*
X17165811Y-15373012D01*
X17218337Y-15276065D01*
X17258419Y-15150436D01*
X17279168Y-15016494D01*
X17280244Y-14881046D01*
X17261307Y-14750902D01*
X17247128Y-14698900D01*
X17225535Y-14638425D01*
X17201878Y-14595499D01*
X17169863Y-14562626D01*
X17123196Y-14532309D01*
X17094100Y-14516649D01*
X17053136Y-14492934D01*
X17022313Y-14470570D01*
X17007760Y-14454063D01*
X17007443Y-14452948D01*
X17008588Y-14438151D01*
X17022027Y-14433974D01*
X17050906Y-14440778D01*
X17098368Y-14458926D01*
X17113150Y-14465127D01*
X17249152Y-14518337D01*
X17388486Y-14563219D01*
X17513200Y-14596469D01*
X17601934Y-14616355D01*
X17694904Y-14633746D01*
X17787458Y-14648089D01*
X17874942Y-14658830D01*
X17952705Y-14665415D01*
X18016095Y-14667290D01*
X18060459Y-14663903D01*
X18067171Y-14662405D01*
X18101121Y-14653325D01*
X18032585Y-14592643D01*
X17968385Y-14540428D01*
X17888107Y-14482141D01*
X17798745Y-14422337D01*
X17707293Y-14365568D01*
X17620745Y-14316388D01*
X17563985Y-14287565D01*
X17494347Y-14256898D01*
X17414395Y-14225178D01*
X17338220Y-14197910D01*
X17316350Y-14190837D01*
X17238831Y-14166467D01*
X17182385Y-14148127D01*
X17143754Y-14134564D01*
X17119677Y-14124525D01*
X17106895Y-14116755D01*
X17102147Y-14110002D01*
X17101836Y-14108350D01*
X17111312Y-14095656D01*
X17142356Y-14092650D01*
X17193125Y-14099161D01*
X17261781Y-14115017D01*
X17305321Y-14127308D01*
X17365819Y-14144829D01*
X17409545Y-14155535D01*
X17443939Y-14160289D01*
X17476440Y-14159952D01*
X17514491Y-14155386D01*
X17528855Y-14153204D01*
X17588796Y-14140428D01*
X17655900Y-14120958D01*
X17709074Y-14101588D01*
X17772152Y-14069742D01*
X17842616Y-14025200D01*
X17913643Y-13973125D01*
X17978410Y-13918684D01*
X18030093Y-13867042D01*
X18048151Y-13844898D01*
X18104936Y-13752745D01*
X18153659Y-13644061D01*
X18191603Y-13527143D01*
X18216053Y-13410292D01*
X18224311Y-13306495D01*
X18214274Y-13198670D01*
X18185384Y-13082122D01*
X18139768Y-12962442D01*
X18079552Y-12845225D01*
X18007786Y-12737281D01*
X17979936Y-12702222D01*
X17957274Y-12677009D01*
X17944553Y-12666914D01*
X17944329Y-12666899D01*
X17934751Y-12673564D01*
X17926568Y-12696003D01*
X17918736Y-12737884D01*
X17913648Y-12774850D01*
X17890853Y-12881592D01*
X17848763Y-12986476D01*
X17812782Y-13052133D01*
X17771275Y-13114067D01*
X17719861Y-13179642D01*
X17663576Y-13243347D01*
X17607459Y-13299673D01*
X17556547Y-13343109D01*
X17530796Y-13360573D01*
X17490054Y-13381318D01*
X17438055Y-13403507D01*
X17382169Y-13424482D01*
X17329766Y-13441590D01*
X17288215Y-13452175D01*
X17270683Y-13454300D01*
X17248791Y-13449372D01*
X17247881Y-13436359D01*
X17265917Y-13417918D01*
X17300865Y-13396707D01*
X17322603Y-13386514D01*
X17398707Y-13353509D01*
X17391623Y-13216579D01*
X17368818Y-12980832D01*
X17325297Y-12759037D01*
X17260652Y-12549896D01*
X17174479Y-12352111D01*
X17066371Y-12164382D01*
X17059648Y-12154124D01*
X17033824Y-12119813D01*
X16993357Y-12071845D01*
X16941958Y-12014126D01*
X16883333Y-11950562D01*
X16821192Y-11885058D01*
X16759243Y-11821520D01*
X16701193Y-11763855D01*
X16650753Y-11715966D01*
X16611629Y-11681761D01*
X16609639Y-11680163D01*
X16490315Y-11587424D01*
X16378267Y-11506045D01*
X16267546Y-11432295D01*
X16152207Y-11362443D01*
X16026302Y-11292759D01*
X15883884Y-11219512D01*
X15843150Y-11199292D01*
X15694322Y-11128199D01*
X15560712Y-11069728D01*
X15494177Y-11044016D01*
X15775493Y-11044016D01*
X15775781Y-11058667D01*
X15778942Y-11075787D01*
X15787168Y-11090608D01*
X15804180Y-11105979D01*
X15833698Y-11124751D01*
X15879442Y-11149773D01*
X15927208Y-11174650D01*
X16118419Y-11278502D01*
X16295195Y-11384831D01*
X16453160Y-11490945D01*
X16514368Y-11535955D01*
X16584252Y-11589394D01*
X16640543Y-11633849D01*
X16690254Y-11675194D01*
X16740393Y-11719301D01*
X16797972Y-11772044D01*
X16814204Y-11787130D01*
X16848237Y-11815664D01*
X16878070Y-11835247D01*
X16894261Y-11841105D01*
X16915048Y-11831261D01*
X16937836Y-11806576D01*
X16942086Y-11800125D01*
X16963326Y-11756753D01*
X16987244Y-11693135D01*
X17012567Y-11614114D01*
X17038020Y-11524534D01*
X17062332Y-11429238D01*
X17084228Y-11333072D01*
X17102435Y-11240878D01*
X17115680Y-11157501D01*
X17119611Y-11124818D01*
X17123373Y-11075918D01*
X17126683Y-11007701D01*
X17129348Y-10926248D01*
X17131173Y-10837641D01*
X17131964Y-10747962D01*
X17131979Y-10738229D01*
X17131906Y-10647742D01*
X17131306Y-10578868D01*
X17129859Y-10527821D01*
X17127245Y-10490815D01*
X17123141Y-10464064D01*
X17117228Y-10443783D01*
X17109185Y-10426184D01*
X17104880Y-10418299D01*
X17075607Y-10378820D01*
X17038284Y-10355000D01*
X16987769Y-10344852D01*
X16918921Y-10346388D01*
X16918870Y-10346392D01*
X16825133Y-10359798D01*
X16722851Y-10385499D01*
X16607833Y-10424698D01*
X16511315Y-10463416D01*
X16327340Y-10551769D01*
X16158252Y-10654706D01*
X16006792Y-10770284D01*
X15875697Y-10896557D01*
X15834055Y-10944213D01*
X15800581Y-10986900D01*
X15782118Y-11018089D01*
X15775493Y-11044016D01*
X15494177Y-11044016D01*
X15436793Y-11021841D01*
X15317041Y-10982500D01*
X15195929Y-10949668D01*
X15116897Y-10931507D01*
X15061117Y-10919852D01*
X15012907Y-10911077D01*
X14967063Y-10904766D01*
X14918385Y-10900508D01*
X14861671Y-10897887D01*
X14791718Y-10896489D01*
X14703324Y-10895900D01*
X14668400Y-10895812D01*
X14573078Y-10895826D01*
X14497886Y-10896565D01*
X14437556Y-10898437D01*
X14386821Y-10901852D01*
X14340412Y-10907219D01*
X14293061Y-10914947D01*
X14239500Y-10925447D01*
X14211200Y-10931347D01*
X14030286Y-10971860D01*
X13869863Y-11013635D01*
X13725035Y-11058800D01*
X13590905Y-11109481D01*
X13462580Y-11167806D01*
X13335164Y-11235903D01*
X13203761Y-11315897D01*
X13063477Y-11409917D01*
X12989131Y-11462382D01*
X12807180Y-11600533D01*
X12647786Y-11739308D01*
X12508225Y-11881808D01*
X12385774Y-12031135D01*
X12277712Y-12190390D01*
X12181314Y-12362673D01*
X12158634Y-12408317D01*
X12104600Y-12529968D01*
X12055067Y-12661468D01*
X12011471Y-12797483D01*
X11975251Y-12932679D01*
X11947845Y-13061724D01*
X11930691Y-13179283D01*
X11925200Y-13274013D01*
X11926493Y-13331675D01*
X11933103Y-13370906D01*
X11949123Y-13398648D01*
X11978646Y-13421840D01*
X12025765Y-13447424D01*
X12028205Y-13448662D01*
X12062538Y-13468223D01*
X12085089Y-13485220D01*
X12090300Y-13493012D01*
X12081278Y-13509599D01*
X12056464Y-13511212D01*
X12019227Y-13499547D01*
X11972941Y-13476300D01*
X11920977Y-13443164D01*
X11866708Y-13401835D01*
X11813505Y-13354008D01*
X11813248Y-13353755D01*
X11729216Y-13255885D01*
X11663517Y-13146854D01*
X11617437Y-13030557D01*
X11592260Y-12910891D01*
X11589273Y-12791751D01*
X11601048Y-12710869D01*
X11610271Y-12664193D01*
X11615337Y-12627594D01*
X11615396Y-12607628D01*
X11614630Y-12606097D01*
X11599971Y-12607120D01*
X11571097Y-12618404D01*
X11549429Y-12629345D01*
X11452887Y-12695395D01*
X11363596Y-12782757D01*
X11283759Y-12887846D01*
X11215582Y-13007081D01*
X11161271Y-13136877D01*
X11123031Y-13273653D01*
X11110867Y-13341871D01*
X11104619Y-13465839D01*
X11044254Y-13465839D01*
X11044197Y-13462654D01*
X11044197Y-13460650D01*
X11051928Y-13328111D01*
X11076167Y-13202663D01*
X11118603Y-13078637D01*
X11180924Y-12950362D01*
X11212451Y-12895500D01*
X11260414Y-12825087D01*
X11317879Y-12756393D01*
X11381223Y-12692390D01*
X11446825Y-12636051D01*
X11511063Y-12590351D01*
X11570313Y-12558261D01*
X11620956Y-12542756D01*
X11642781Y-12542246D01*
X11663541Y-12548725D01*
X11676517Y-12564667D01*
X11682056Y-12593387D01*
X11680506Y-12638200D01*
X11672213Y-12702419D01*
X11664498Y-12749585D01*
X11654412Y-12814028D01*
X11649809Y-12861862D01*
X11650426Y-12901219D01*
X11655997Y-12940233D01*
X11657985Y-12950171D01*
X11673330Y-13005769D01*
X11696010Y-13065068D01*
X11723605Y-13123943D01*
X11753699Y-13178265D01*
X11783873Y-13223907D01*
X11811708Y-13256741D01*
X11834788Y-13272641D01*
X11846391Y-13271762D01*
X11853395Y-13256329D01*
X11860720Y-13222529D01*
X11866895Y-13177332D01*
X11867437Y-13172006D01*
X11878413Y-13092227D01*
X11896804Y-12994991D01*
X11921127Y-12886631D01*
X11949900Y-12773481D01*
X11981641Y-12661875D01*
X12002313Y-12595762D01*
X12055260Y-12433016D01*
X11996367Y-12261033D01*
X11971606Y-12184126D01*
X11947500Y-12101196D01*
X11926776Y-12022115D01*
X11912166Y-11956761D01*
X11911962Y-11955700D01*
X11898457Y-11867767D01*
X11887174Y-11759825D01*
X11878223Y-11637043D01*
X11871717Y-11504590D01*
X11867767Y-11367635D01*
X11867088Y-11295300D01*
X11934481Y-11295300D01*
X11934805Y-11409391D01*
X11935692Y-11502210D01*
X11937354Y-11577882D01*
X11940002Y-11640531D01*
X11943850Y-11694283D01*
X11949108Y-11743263D01*
X11955989Y-11791596D01*
X11961791Y-11826711D01*
X11981626Y-11934114D01*
X12002849Y-12035057D01*
X12024661Y-12126729D01*
X12046264Y-12206321D01*
X12066858Y-12271022D01*
X12085645Y-12318021D01*
X12101826Y-12344509D01*
X12110344Y-12349400D01*
X12118164Y-12339208D01*
X12135327Y-12312049D01*
X12158640Y-12273043D01*
X12167784Y-12257325D01*
X12221579Y-12168993D01*
X12283934Y-12074318D01*
X12349577Y-11980850D01*
X12413231Y-11896141D01*
X12460772Y-11837898D01*
X12493922Y-11797226D01*
X12519400Y-11761897D01*
X12533328Y-11737472D01*
X12534800Y-11731782D01*
X12531819Y-11708940D01*
X12524134Y-11671141D01*
X12516744Y-11640033D01*
X12494488Y-11529437D01*
X12478022Y-11400738D01*
X12467766Y-11260655D01*
X12464456Y-11128499D01*
X12532420Y-11128499D01*
X12535743Y-11266166D01*
X12536562Y-11283342D01*
X12542753Y-11374998D01*
X12551487Y-11460391D01*
X12562151Y-11536123D01*
X12574132Y-11598800D01*
X12586819Y-11645025D01*
X12599599Y-11671402D01*
X12607424Y-11676300D01*
X12623139Y-11668489D01*
X12654253Y-11646970D01*
X12696918Y-11614610D01*
X12747287Y-11574276D01*
X12773961Y-11552179D01*
X12897308Y-11455291D01*
X13037824Y-11357135D01*
X13197398Y-11256519D01*
X13377918Y-11152249D01*
X13576077Y-11045837D01*
X13613564Y-11023444D01*
X13640419Y-11001975D01*
X13649800Y-10988535D01*
X13642781Y-10970898D01*
X13620264Y-10939762D01*
X13585598Y-10898655D01*
X13542135Y-10851105D01*
X13493224Y-10800641D01*
X13442215Y-10750789D01*
X13392459Y-10705079D01*
X13347305Y-10667037D01*
X13336660Y-10658782D01*
X13280252Y-10620224D01*
X13207023Y-10576288D01*
X13123884Y-10530649D01*
X13037746Y-10486979D01*
X12955521Y-10448952D01*
X12896110Y-10424649D01*
X12827078Y-10404176D01*
X12761439Y-10394674D01*
X12705911Y-10396687D01*
X12673706Y-10406724D01*
X12643525Y-10435755D01*
X12616107Y-10487473D01*
X12591859Y-10559278D01*
X12571188Y-10648565D01*
X12554502Y-10752734D01*
X12542207Y-10869180D01*
X12534711Y-10995303D01*
X12532420Y-11128499D01*
X12464456Y-11128499D01*
X12464140Y-11115910D01*
X12467564Y-10973226D01*
X12471359Y-10913532D01*
X12484813Y-10782864D01*
X12503866Y-10663339D01*
X12527764Y-10557720D01*
X12555752Y-10468768D01*
X12587078Y-10399245D01*
X12620987Y-10351913D01*
X12625917Y-10347197D01*
X12663622Y-10329109D01*
X12719143Y-10324243D01*
X12789231Y-10331623D01*
X12870641Y-10350278D01*
X12960124Y-10379231D01*
X13054433Y-10417510D01*
X13150321Y-10464140D01*
X13244540Y-10518148D01*
X13286718Y-10545397D01*
X13338359Y-10583816D01*
X13401461Y-10636483D01*
X13470787Y-10698509D01*
X13541099Y-10765002D01*
X13607160Y-10831072D01*
X13663734Y-10891827D01*
X13688060Y-10920177D01*
X13740043Y-10983204D01*
X13826396Y-10955412D01*
X13872673Y-10942062D01*
X13934058Y-10926533D01*
X14005143Y-10909960D01*
X14080517Y-10893479D01*
X14154771Y-10878223D01*
X14222493Y-10865329D01*
X14254859Y-10859876D01*
X15166031Y-10859876D01*
X15182017Y-10878430D01*
X15221208Y-10895309D01*
X15233647Y-10898922D01*
X15269317Y-10909214D01*
X15322558Y-10925368D01*
X15386797Y-10945355D01*
X15455462Y-10967148D01*
X15471630Y-10972344D01*
X15535060Y-10992423D01*
X15590487Y-11009293D01*
X15633133Y-11021551D01*
X15658222Y-11027795D01*
X15662130Y-11028299D01*
X15678329Y-11018638D01*
X15701985Y-10994328D01*
X15716150Y-10976497D01*
X15761445Y-10921753D01*
X15822292Y-10857398D01*
X15893363Y-10788288D01*
X15969334Y-10719280D01*
X16044879Y-10655232D01*
X16114672Y-10601001D01*
X16167000Y-10565317D01*
X16287532Y-10496127D01*
X16411021Y-10434910D01*
X16534412Y-10382556D01*
X16654653Y-10339952D01*
X16768691Y-10307987D01*
X16873472Y-10287551D01*
X16965944Y-10279532D01*
X17043054Y-10284818D01*
X17087409Y-10297389D01*
X17128501Y-10325999D01*
X17159962Y-10374298D01*
X17182514Y-10443837D01*
X17196388Y-10531410D01*
X17203944Y-10632920D01*
X17207423Y-10748657D01*
X17206935Y-10869958D01*
X17202593Y-10988161D01*
X17194505Y-11094605D01*
X17188553Y-11144620D01*
X17172399Y-11242090D01*
X17150013Y-11351377D01*
X17123172Y-11465464D01*
X17093654Y-11577331D01*
X17063239Y-11679957D01*
X17033704Y-11766325D01*
X17025989Y-11786251D01*
X17006084Y-11838126D01*
X16990485Y-11882820D01*
X16981323Y-11914006D01*
X16979800Y-11923314D01*
X16987094Y-11943785D01*
X17006250Y-11976956D01*
X17033171Y-12015766D01*
X17034091Y-12016989D01*
X17105350Y-12116492D01*
X17167188Y-12214696D01*
X17226547Y-12322858D01*
X17244666Y-12358446D01*
X17279806Y-12431037D01*
X17307068Y-12494670D01*
X17330933Y-12560688D01*
X17355254Y-12638325D01*
X17362144Y-12651359D01*
X17371913Y-12649392D01*
X17386019Y-12630342D01*
X17405916Y-12592129D01*
X17433060Y-12532671D01*
X17439649Y-12517675D01*
X17523298Y-12316032D01*
X17593051Y-12123758D01*
X17652020Y-11931354D01*
X17703316Y-11729323D01*
X17715283Y-11676300D01*
X17737232Y-11573558D01*
X17754867Y-11482054D01*
X17768739Y-11396598D01*
X17779401Y-11312000D01*
X17787408Y-11223070D01*
X17793311Y-11124618D01*
X17797664Y-11011454D01*
X17801020Y-10878387D01*
X17801197Y-10869850D01*
X17803644Y-10646911D01*
X17801177Y-10447127D01*
X17793636Y-10268701D01*
X17780858Y-10109834D01*
X17762683Y-9968731D01*
X17738948Y-9843594D01*
X17709492Y-9732625D01*
X17695003Y-9688750D01*
X17674085Y-9633368D01*
X17653420Y-9594071D01*
X17628284Y-9568112D01*
X17593955Y-9552751D01*
X17545709Y-9545242D01*
X17478825Y-9542843D01*
X17443560Y-9542700D01*
X17315237Y-9545699D01*
X17201061Y-9555639D01*
X17090389Y-9573932D01*
X16972578Y-9601992D01*
X16949325Y-9608319D01*
X16773464Y-9662558D01*
X16593830Y-9729488D01*
X16405154Y-9811179D01*
X16274950Y-9873283D01*
X16149222Y-9936758D01*
X16040747Y-9995577D01*
X15944873Y-10053144D01*
X15856948Y-10112863D01*
X15772320Y-10178135D01*
X15686337Y-10252365D01*
X15594347Y-10338956D01*
X15491697Y-10441311D01*
X15474439Y-10458901D01*
X15392686Y-10544812D01*
X15321072Y-10624848D01*
X15261145Y-10696997D01*
X15214455Y-10759243D01*
X15182549Y-10809575D01*
X15166977Y-10845979D01*
X15166031Y-10859876D01*
X14254859Y-10859876D01*
X14278275Y-10855931D01*
X14316705Y-10851164D01*
X14325008Y-10850800D01*
X14351976Y-10847562D01*
X14363590Y-10839749D01*
X14363600Y-10839497D01*
X14356519Y-10824412D01*
X14337857Y-10795191D01*
X14311489Y-10757857D01*
X14308476Y-10753772D01*
X14239652Y-10668657D01*
X14152810Y-10573633D01*
X14051669Y-10471931D01*
X13939948Y-10366784D01*
X13821365Y-10261424D01*
X13699640Y-10159081D01*
X13578490Y-10062989D01*
X13461634Y-9976379D01*
X13352792Y-9902484D01*
X13273970Y-9854683D01*
X13177711Y-9802770D01*
X13071817Y-9750135D01*
X12960781Y-9698657D01*
X12849095Y-9650213D01*
X12741249Y-9606681D01*
X12641737Y-9569939D01*
X12555049Y-9541864D01*
X12485677Y-9524334D01*
X12482017Y-9523631D01*
X12451871Y-9520526D01*
X12427784Y-9527357D01*
X12399913Y-9547823D01*
X12386900Y-9559384D01*
X12345999Y-9603227D01*
X12305309Y-9661074D01*
X12263869Y-9734892D01*
X12220720Y-9826647D01*
X12174901Y-9938307D01*
X12125452Y-10071837D01*
X12097392Y-10152300D01*
X12054192Y-10285273D01*
X12018812Y-10410989D01*
X11990604Y-10533989D01*
X11968920Y-10658813D01*
X11953114Y-10790002D01*
X11942539Y-10932097D01*
X11936547Y-11089640D01*
X11934490Y-11267171D01*
X11934481Y-11295300D01*
X11867088Y-11295300D01*
X11866486Y-11231348D01*
X11867985Y-11100897D01*
X11872375Y-10981453D01*
X11879769Y-10878183D01*
X11887301Y-10814801D01*
X11903904Y-10704233D01*
X11917972Y-10614212D01*
X11930339Y-10540111D01*
X11941839Y-10477301D01*
X11953307Y-10421155D01*
X11965576Y-10367044D01*
X11974896Y-10328674D01*
X12001277Y-10233509D01*
X12035639Y-10126110D01*
X12075235Y-10013947D01*
X12117318Y-9904489D01*
X12159140Y-9805207D01*
X12196263Y-9726850D01*
X12234552Y-9660993D01*
X12278786Y-9599038D01*
X12325375Y-9544817D01*
X12370727Y-9502161D01*
X12411251Y-9474902D01*
X12440096Y-9466694D01*
X12498796Y-9473124D01*
X12575789Y-9490927D01*
X12667456Y-9518627D01*
X12770180Y-9554746D01*
X12880343Y-9597808D01*
X12994327Y-9646336D01*
X13108514Y-9698853D01*
X13219288Y-9753883D01*
X13323030Y-9809949D01*
X13414040Y-9864256D01*
X13493924Y-9918637D01*
X13585874Y-9987743D01*
X13686461Y-10068466D01*
X13792253Y-10157696D01*
X13899820Y-10252323D01*
X14005730Y-10349238D01*
X14106555Y-10445330D01*
X14198862Y-10537490D01*
X14279221Y-10622609D01*
X14344202Y-10697576D01*
X14370723Y-10731444D01*
X14438018Y-10821638D01*
X14746457Y-10828416D01*
X14832881Y-10830093D01*
X14911097Y-10831187D01*
X14977447Y-10831682D01*
X15028273Y-10831562D01*
X15059919Y-10830808D01*
X15068695Y-10829898D01*
X15084480Y-10816031D01*
X15103075Y-10790114D01*
X15103097Y-10790076D01*
X15122379Y-10761810D01*
X15154799Y-10718596D01*
X15196888Y-10664710D01*
X15245181Y-10604426D01*
X15296211Y-10542020D01*
X15346511Y-10481764D01*
X15392615Y-10427936D01*
X15431055Y-10384808D01*
X15436750Y-10378665D01*
X15599654Y-10221656D01*
X15784423Y-10075547D01*
X15989512Y-9941381D01*
X16213377Y-9820199D01*
X16374587Y-9746153D01*
X16557369Y-9672420D01*
X16737826Y-9608577D01*
X16912678Y-9555478D01*
X17078643Y-9513982D01*
X17232438Y-9484945D01*
X17370784Y-9469224D01*
X17445698Y-9466538D01*
X17530286Y-9469063D01*
G37*
X17530286Y-9469063D02*
X17594674Y-9478275D01*
X17643692Y-9496544D01*
X17682171Y-9526243D01*
X17714941Y-9569740D01*
X17736980Y-9609491D01*
X17768507Y-9687302D01*
X17796130Y-9787714D01*
X17819688Y-9908206D01*
X17839023Y-10046257D01*
X17853975Y-10199348D01*
X17864385Y-10364955D01*
X17870094Y-10540560D01*
X17870943Y-10723640D01*
X17866772Y-10911675D01*
X17857422Y-11102144D01*
X17843062Y-11288950D01*
X17825948Y-11426850D01*
X17799069Y-11579878D01*
X17763898Y-11742726D01*
X17721911Y-11910088D01*
X17674583Y-12076655D01*
X17623389Y-12237122D01*
X17569804Y-12386180D01*
X17515303Y-12518522D01*
X17481263Y-12590721D01*
X17445578Y-12666237D01*
X17422811Y-12727358D01*
X17411636Y-12780718D01*
X17410727Y-12832950D01*
X17418757Y-12890689D01*
X17420007Y-12897052D01*
X17429297Y-12949681D01*
X17439518Y-13017597D01*
X17449231Y-13090799D01*
X17455042Y-13140617D01*
X17462484Y-13200419D01*
X17470589Y-13251255D01*
X17478361Y-13287608D01*
X17484580Y-13303760D01*
X17498523Y-13303403D01*
X17525571Y-13286052D01*
X17567030Y-13250771D01*
X17595874Y-13223931D01*
X17683768Y-13133582D01*
X17751428Y-13046862D01*
X17802149Y-12957828D01*
X17839225Y-12860538D01*
X17865950Y-12749049D01*
X17869270Y-12730732D01*
X17882646Y-12666142D01*
X17897551Y-12625223D01*
X17916542Y-12606270D01*
X17942178Y-12607576D01*
X17977015Y-12627432D01*
X17999088Y-12644104D01*
X18060183Y-12705307D01*
X18117507Y-12786920D01*
X18169069Y-12884016D01*
X18212877Y-12991669D01*
X18246938Y-13104950D01*
X18269260Y-13218934D01*
X18277851Y-13328692D01*
X18277883Y-13333650D01*
X18266139Y-13481231D01*
X18230704Y-13621522D01*
X18172654Y-13752864D01*
X18093066Y-13873599D01*
X17993016Y-13982069D01*
X17873582Y-14076617D01*
X17748150Y-14149559D01*
X17700102Y-14171073D01*
X17653045Y-14188340D01*
X17623509Y-14196235D01*
X17593869Y-14205010D01*
X17579827Y-14216006D01*
X17579755Y-14219115D01*
X17594596Y-14234566D01*
X17627329Y-14255646D01*
X17671927Y-14279429D01*
X17722366Y-14302993D01*
X17772620Y-14323412D01*
X17816664Y-14337761D01*
X17831175Y-14341143D01*
X17876290Y-14348197D01*
X17936128Y-14355276D01*
X18000042Y-14361170D01*
X18021200Y-14362716D01*
X18225729Y-14387236D01*
X18416130Y-14432263D01*
X18591995Y-14497629D01*
X18752913Y-14583169D01*
X18898479Y-14688715D01*
X18964175Y-14747779D01*
X18998405Y-14783251D01*
X19016864Y-14810734D01*
X19023900Y-14837741D01*
X19024500Y-14851959D01*
X19021640Y-14879049D01*
X19010303Y-14899407D01*
X18986350Y-14915902D01*
X18945640Y-14931402D01*
X18885295Y-14948445D01*
X18803027Y-14980179D01*
X18735189Y-15029579D01*
X18678680Y-15099311D01*
X18649175Y-15151514D01*
X18637510Y-15176550D01*
X18628632Y-15201579D01*
X18621897Y-15231013D01*
X18616662Y-15269267D01*
X18612283Y-15320752D01*
X18608117Y-15389882D01*
X18604728Y-15456314D01*
X18596706Y-15607696D01*
X18588421Y-15736533D01*
X18579424Y-15845679D01*
X18569267Y-15937989D01*
X18557500Y-16016317D01*
X18543677Y-16083517D01*
X18527348Y-16142444D01*
X18508064Y-16195951D01*
X18485378Y-16246895D01*
X18478254Y-16261289D01*
X18414215Y-16366075D01*
X18327486Y-16472890D01*
X18220342Y-16579077D01*
X18167250Y-16624970D01*
X18103750Y-16677703D01*
X18127496Y-16739226D01*
X18165115Y-16859295D01*
X18183743Y-16973458D01*
X18183500Y-17079139D01*
X18164506Y-17173762D01*
X18126878Y-17254752D01*
X18102127Y-17288153D01*
X18062345Y-17324950D01*
X18015864Y-17353630D01*
X17970155Y-17370592D01*
X17932691Y-17372236D01*
X17929500Y-17371361D01*
X17919381Y-17367574D01*
X17912687Y-17361161D01*
X17909387Y-17348266D01*
X17909448Y-17325035D01*
X17912839Y-17287613D01*
X17919529Y-17232144D01*
X17927826Y-17167605D01*
X17924254Y-17107242D01*
X17897421Y-17045844D01*
X17846567Y-16981852D01*
X17828573Y-16963882D01*
X17769244Y-16912899D01*
X17702617Y-16868174D01*
X17622954Y-16826353D01*
X17524519Y-16784080D01*
X17513851Y-16779868D01*
X17419993Y-16744372D01*
X17344591Y-16719119D01*
X17283410Y-16702941D01*
X17232214Y-16694668D01*
X17198875Y-16692950D01*
X17173435Y-16693844D01*
X17156428Y-16698922D01*
X17147774Y-16711529D01*
X17147395Y-16735009D01*
X17155212Y-16772708D01*
X17171148Y-16827971D01*
X17194009Y-16900640D01*
X17209572Y-16950654D01*
X17223395Y-16998318D01*
X17236308Y-17047364D01*
X17249138Y-17101524D01*
X17262713Y-17164532D01*
X17277863Y-17240120D01*
X17295414Y-17332021D01*
X17316195Y-17443968D01*
X17324013Y-17486550D01*
X17364787Y-17663951D01*
X17420650Y-17828508D01*
X17476887Y-17954465D01*
X17519084Y-18040940D01*
X17551096Y-18109859D01*
X17574324Y-18166271D01*
X17590168Y-18215223D01*
X17600027Y-18261765D01*
X17605300Y-18310945D01*
X17607388Y-18367813D01*
X17607702Y-18426350D01*
X17606738Y-18508909D01*
X17603451Y-18573947D01*
X17597044Y-18629296D01*
X17586722Y-18682788D01*
X17578009Y-18718450D01*
X17535767Y-18852925D01*
X17484568Y-18964887D01*
X17424710Y-19053997D01*
X17356491Y-19119916D01*
X17280208Y-19162306D01*
X17196159Y-19180827D01*
X17170981Y-19181689D01*
X17077214Y-19174864D01*
X17004521Y-19155453D01*
X16953278Y-19123672D01*
X16923865Y-19079741D01*
X16916300Y-19034705D01*
X16920277Y-18993199D01*
X16930578Y-18940866D01*
X16941536Y-18900556D01*
X16961432Y-18801611D01*
X16964681Y-18689453D01*
X16951705Y-18569679D01*
X16922928Y-18447883D01*
X16902848Y-18388250D01*
X16881513Y-18337003D01*
X16855703Y-18288413D01*
X16822074Y-18237436D01*
X16777278Y-18179033D01*
X16717971Y-18108163D01*
X16713463Y-18102922D01*
X16631198Y-18004880D01*
X16555475Y-17909705D01*
X16489558Y-17821684D01*
X16436709Y-17745105D01*
X16415792Y-17711757D01*
X16375771Y-17655308D01*
X16335167Y-17616559D01*
X16296714Y-17597074D01*
X16263145Y-17598412D01*
X16243429Y-17613273D01*
X16237357Y-17626629D01*
X16235200Y-17650171D01*
X16237093Y-17687966D01*
X16243171Y-17744083D01*
X16249377Y-17791913D01*
X16265465Y-17936256D01*
X16271563Y-18062316D01*
X16267140Y-18175385D01*
X16251665Y-18280754D01*
X16224607Y-18383712D01*
X16185435Y-18489551D01*
X16177469Y-18508359D01*
X16151659Y-18568873D01*
X16126120Y-18629698D01*
X16104808Y-18681377D01*
X16097033Y-18700681D01*
X16063886Y-18769846D01*
X16015741Y-18850815D01*
X15956286Y-18938188D01*
X15889207Y-19026562D01*
X15818191Y-19110535D01*
X15814612Y-19114511D01*
X15765881Y-19167099D01*
X15727977Y-19203954D01*
X15695862Y-19229177D01*
X15664501Y-19246872D01*
X15639209Y-19257386D01*
X15559686Y-19276953D01*
X15468106Y-19283013D01*
X15373929Y-19275557D01*
X15296069Y-19257699D01*
X15210026Y-19223043D01*
X15145566Y-19179833D01*
X15103986Y-19132653D01*
X15078425Y-19086525D01*
X15067090Y-19040936D01*
X15069687Y-18989180D01*
X15085916Y-18924550D01*
X15093731Y-18900673D01*
X15128446Y-18798517D01*
X15121099Y-18313983D01*
X15119177Y-18202664D01*
X15116909Y-18096984D01*
X15114398Y-18000198D01*
X15111745Y-17915560D01*
X15109054Y-17846324D01*
X15106427Y-17795745D01*
X15103968Y-17767076D01*
X15103801Y-17765950D01*
X15093850Y-17702450D01*
X14949009Y-17698840D01*
X14804169Y-17695231D01*
X14812198Y-17832190D01*
X14816868Y-17894854D01*
X14824246Y-17974036D01*
X14833452Y-18061108D01*
X14843605Y-18147444D01*
X14847585Y-18178700D01*
X14858082Y-18267381D01*
X14865840Y-18354109D01*
X14871216Y-18445324D01*
X14874566Y-18547463D01*
X14876249Y-18666968D01*
X14876446Y-18699400D01*
X14877950Y-19010550D01*
X14841948Y-19083866D01*
X14817063Y-19128967D01*
X14790210Y-19162402D01*
X14757237Y-19185858D01*
X14713990Y-19201017D01*
X14656314Y-19209564D01*
X14580056Y-19213183D01*
X14521788Y-19213691D01*
X14432767Y-19212393D01*
X14365369Y-19206397D01*
X14315870Y-19192652D01*
X14280547Y-19168106D01*
X14255675Y-19129709D01*
X14237531Y-19074409D01*
X14222391Y-18999153D01*
X14216456Y-18963485D01*
X14204636Y-18901407D01*
X14189782Y-18838741D01*
X14174695Y-18787048D01*
X14171479Y-18777904D01*
X14049343Y-18424272D01*
X13947969Y-18081597D01*
X13867516Y-17750539D01*
X13808140Y-17431755D01*
X13770001Y-17125903D01*
X13767090Y-17092850D01*
X13760237Y-17013078D01*
X13754528Y-16955122D01*
X13749008Y-16915487D01*
X13742807Y-16891023D01*
X13849250Y-16891023D01*
X13849713Y-17118936D01*
X13850007Y-17182477D01*
X13850954Y-17237915D01*
X13853074Y-17288490D01*
X13856884Y-17337445D01*
X13862902Y-17388021D01*
X13871646Y-17443460D01*
X13883636Y-17507002D01*
X13899388Y-17581891D01*
X13919422Y-17671366D01*
X13944255Y-17778669D01*
X13974406Y-17907043D01*
X13978458Y-17924236D01*
X14008501Y-18047907D01*
X14038649Y-18163383D01*
X14070700Y-18276716D01*
X14106446Y-18393955D01*
X14147685Y-18521150D01*
X14196211Y-18664352D01*
X14209488Y-18702772D01*
X14230695Y-18769629D01*
X14251346Y-18844199D01*
X14267453Y-18911938D01*
X14269328Y-18921102D01*
X14282130Y-18975943D01*
X14297120Y-19025890D01*
X14311525Y-19061980D01*
X14314728Y-19067818D01*
X14355180Y-19110275D01*
X14416469Y-19140227D01*
X14496979Y-19157043D01*
X14552123Y-19160534D01*
X14624227Y-19157604D01*
X14679706Y-19143466D01*
X14726060Y-19114856D01*
X14770787Y-19068514D01*
X14774697Y-19063724D01*
X14813837Y-19015298D01*
X14810937Y-18746224D01*
X14809196Y-18618323D01*
X14806733Y-18509986D01*
X14803168Y-18415382D01*
X14798124Y-18328679D01*
X14791222Y-18244042D01*
X14782083Y-18155641D01*
X14770328Y-18057641D01*
X14762094Y-17993572D01*
X14752195Y-17912672D01*
X14743995Y-17835537D01*
X14737976Y-17767597D01*
X14734625Y-17714282D01*
X14734335Y-17682422D01*
X14738250Y-17613550D01*
X14904974Y-17618020D01*
X14985591Y-17619109D01*
X15041413Y-17617364D01*
X15072888Y-17612759D01*
X15080349Y-17608495D01*
X15098414Y-17594310D01*
X15117468Y-17602568D01*
X15133411Y-17630829D01*
X15136793Y-17642125D01*
X15144764Y-17685851D01*
X15152496Y-17752411D01*
X15159835Y-17839239D01*
X15166628Y-17943770D01*
X15172722Y-18063436D01*
X15177964Y-18195673D01*
X15182199Y-18337914D01*
X15184427Y-18439050D01*
X15186396Y-18545442D01*
X15187691Y-18629934D01*
X15188127Y-18696022D01*
X15187518Y-18747200D01*
X15185681Y-18786964D01*
X15182429Y-18818809D01*
X15177578Y-18846230D01*
X15170944Y-18872724D01*
X15162341Y-18901784D01*
X15159448Y-18911199D01*
X15145503Y-18962509D01*
X15136510Y-19007664D01*
X15133910Y-19038926D01*
X15134619Y-19044549D01*
X15150836Y-19077990D01*
X15180523Y-19115656D01*
X15215675Y-19148202D01*
X15233550Y-19160052D01*
X15287220Y-19180812D01*
X15357641Y-19195787D01*
X15436678Y-19204262D01*
X15516192Y-19205523D01*
X15588046Y-19198855D01*
X15614105Y-19193486D01*
X15671000Y-19168241D01*
X15724034Y-19125568D01*
X15764161Y-19072905D01*
X15766842Y-19067908D01*
X15784989Y-19023178D01*
X15802327Y-18960003D01*
X15809242Y-18925883D01*
X15875350Y-18925883D01*
X15884496Y-18926783D01*
X15890775Y-18925164D01*
X15903928Y-18912240D01*
X15924456Y-18882466D01*
X15948391Y-18841721D01*
X15953633Y-18832031D01*
X15987928Y-18764640D01*
X16025728Y-18685308D01*
X16064716Y-18599417D01*
X16102575Y-18512344D01*
X16136987Y-18429472D01*
X16165637Y-18356180D01*
X16186205Y-18297847D01*
X16192068Y-18278415D01*
X16205563Y-18224286D01*
X16213539Y-18175127D01*
X16215833Y-18125381D01*
X16212286Y-18069492D01*
X16202735Y-18001905D01*
X16187020Y-17917063D01*
X16180672Y-17885406D01*
X16162816Y-17799208D01*
X16148356Y-17734894D01*
X16136182Y-17689352D01*
X16125183Y-17659469D01*
X16114251Y-17642131D01*
X16102275Y-17634227D01*
X16090537Y-17632600D01*
X16051493Y-17644272D01*
X16022424Y-17679165D01*
X16003445Y-17737089D01*
X15996652Y-17786100D01*
X15979328Y-17982330D01*
X15963788Y-18154711D01*
X15949885Y-18304719D01*
X15937471Y-18433831D01*
X15926397Y-18543523D01*
X15916515Y-18635273D01*
X15907678Y-18710556D01*
X15899736Y-18770850D01*
X15894243Y-18807350D01*
X15886091Y-18858016D01*
X15879677Y-18898163D01*
X15875931Y-18921956D01*
X15875350Y-18925883D01*
X15809242Y-18925883D01*
X15819243Y-18876540D01*
X15836122Y-18770942D01*
X15849259Y-18674000D01*
X15870202Y-18505252D01*
X15887350Y-18355337D01*
X15901119Y-18218279D01*
X15911925Y-18088106D01*
X15920184Y-17958843D01*
X15926312Y-17824517D01*
X15930724Y-17679152D01*
X15933838Y-17516776D01*
X15934818Y-17445275D01*
X15936594Y-17326224D01*
X15938761Y-17219488D01*
X15941241Y-17127248D01*
X15943955Y-17051680D01*
X15946825Y-16994964D01*
X15949772Y-16959277D01*
X15952719Y-16946800D01*
X15952736Y-16946800D01*
X15962805Y-16951612D01*
X15971098Y-16967638D01*
X15977913Y-16997258D01*
X15983548Y-17042855D01*
X15988301Y-17106809D01*
X15992469Y-17191501D01*
X15996187Y-17294203D01*
X15999245Y-17377122D01*
X16002713Y-17451221D01*
X16006359Y-17512836D01*
X16009952Y-17558306D01*
X16013260Y-17583968D01*
X16014803Y-17588276D01*
X16031399Y-17587943D01*
X16062693Y-17580480D01*
X16079967Y-17575012D01*
X16123680Y-17561952D01*
X16178399Y-17548045D01*
X16218077Y-17539272D01*
X16300350Y-17522558D01*
X16306700Y-17466454D01*
X16314571Y-17426932D01*
X16326204Y-17412130D01*
X16341221Y-17422247D01*
X16352533Y-17442100D01*
X16407982Y-17555621D01*
X16459731Y-17652994D01*
X16511776Y-17740298D01*
X16568110Y-17823614D01*
X16632728Y-17909024D01*
X16709624Y-18002609D01*
X16757110Y-18058050D01*
X16825279Y-18140347D01*
X16877935Y-18213395D01*
X16919067Y-18284217D01*
X16952666Y-18359837D01*
X16982719Y-18447278D01*
X16987951Y-18464450D01*
X17012764Y-18573490D01*
X17024459Y-18686895D01*
X17022923Y-18797294D01*
X17008041Y-18897318D01*
X16995269Y-18941981D01*
X16978442Y-19005906D01*
X16979080Y-19053683D01*
X16998613Y-19087009D01*
X17038466Y-19107579D01*
X17100068Y-19117089D01*
X17143620Y-19118221D01*
X17228958Y-19106258D01*
X17305043Y-19071006D01*
X17371970Y-19012354D01*
X17429835Y-18930195D01*
X17478732Y-18824421D01*
X17518756Y-18694923D01*
X17520222Y-18689053D01*
X17541850Y-18595337D01*
X17555076Y-18518964D01*
X17560096Y-18453381D01*
X17557108Y-18392031D01*
X17546306Y-18328358D01*
X17532690Y-18273255D01*
X17513876Y-18213047D01*
X17486910Y-18139054D01*
X17455199Y-18060102D01*
X17422155Y-17985021D01*
X17417701Y-17975500D01*
X17375405Y-17884010D01*
X17342778Y-17807719D01*
X17317555Y-17739403D01*
X17297473Y-17671837D01*
X17280269Y-17597797D01*
X17263679Y-17510058D01*
X17253867Y-17452571D01*
X17225025Y-17288440D01*
X17196552Y-17145972D01*
X17167382Y-17021472D01*
X17136445Y-16911242D01*
X17102675Y-16811586D01*
X17065003Y-16718809D01*
X17022361Y-16629215D01*
X17007927Y-16601437D01*
X16980923Y-16548365D01*
X16960105Y-16503437D01*
X16947485Y-16471302D01*
X16945074Y-16456608D01*
X16945184Y-16456482D01*
X16957398Y-16460819D01*
X16982038Y-16480301D01*
X17014560Y-16511173D01*
X17027388Y-16524421D01*
X17065140Y-16562984D01*
X17093376Y-16586788D01*
X17119323Y-16600176D01*
X17150205Y-16607489D01*
X17170300Y-16610293D01*
X17280916Y-16631191D01*
X17402624Y-16666244D01*
X17527580Y-16712681D01*
X17647937Y-16767729D01*
X17709813Y-16800946D01*
X17777883Y-16841918D01*
X17829357Y-16879128D01*
X17871066Y-16918631D01*
X17909843Y-16966478D01*
X17931751Y-16997600D01*
X17970917Y-17059892D01*
X17993773Y-17110629D01*
X18001885Y-17156298D01*
X17996823Y-17203384D01*
X17988706Y-17233143D01*
X17977898Y-17271888D01*
X17972637Y-17299957D01*
X17973326Y-17309559D01*
X17987750Y-17307946D01*
X18011499Y-17289681D01*
X18040099Y-17259437D01*
X18069077Y-17221887D01*
X18091634Y-17185975D01*
X18110659Y-17148670D01*
X18121943Y-17115674D01*
X18127440Y-17077836D01*
X18129104Y-17026005D01*
X18129150Y-17010300D01*
X18127954Y-16952357D01*
X18122840Y-16909016D01*
X18111511Y-16869532D01*
X18091672Y-16823158D01*
X18087115Y-16813450D01*
X18062055Y-16765032D01*
X18035744Y-16721442D01*
X18013622Y-16691647D01*
X18012441Y-16690383D01*
X17989742Y-16657776D01*
X17991278Y-16632768D01*
X18017074Y-16615277D01*
X18036216Y-16609917D01*
X18082520Y-16596275D01*
X18126214Y-16574239D01*
X18173032Y-16540143D01*
X18228704Y-16490319D01*
X18239913Y-16479585D01*
X18308763Y-16408058D01*
X18365711Y-16336294D01*
X18412003Y-16260824D01*
X18448884Y-16178176D01*
X18477602Y-16084880D01*
X18499401Y-15977466D01*
X18515529Y-15852463D01*
X18527230Y-15706401D01*
X18529169Y-15674014D01*
X18536999Y-15543303D01*
X18544569Y-15434998D01*
X18552462Y-15346120D01*
X18561261Y-15273689D01*
X18571547Y-15214725D01*
X18583902Y-15166248D01*
X18598909Y-15125278D01*
X18617151Y-15088837D01*
X18639208Y-15053943D01*
X18654510Y-15032519D01*
X18718081Y-14966083D01*
X18798833Y-14916855D01*
X18875551Y-14889472D01*
X18923821Y-14873874D01*
X18951666Y-14857161D01*
X18958960Y-14836606D01*
X18945573Y-14809485D01*
X18911377Y-14773072D01*
X18868273Y-14734840D01*
X18739648Y-14641056D01*
X18592109Y-14562401D01*
X18427708Y-14499665D01*
X18248496Y-14453636D01*
X18065650Y-14426027D01*
X18016206Y-14420438D01*
X17970465Y-14414475D01*
X17948175Y-14411065D01*
X17917275Y-14409047D01*
X17909296Y-14417320D01*
X17924101Y-14435518D01*
X17961555Y-14463273D01*
X17969309Y-14468362D01*
X18011347Y-14499567D01*
X18055339Y-14538678D01*
X18096779Y-14580839D01*
X18131158Y-14621190D01*
X18153970Y-14654875D01*
X18160900Y-14674837D01*
X18153150Y-14695786D01*
X18128361Y-14710493D01*
X18084219Y-14719584D01*
X18018411Y-14723685D01*
X17979098Y-14724067D01*
X17852979Y-14718235D01*
X17710611Y-14701781D01*
X17558396Y-14675574D01*
X17452607Y-14652642D01*
X17395671Y-14639947D01*
X17348238Y-14630665D01*
X17315463Y-14625716D01*
X17302630Y-14625835D01*
X17302317Y-14640661D01*
X17308382Y-14672326D01*
X17317564Y-14707059D01*
X17330288Y-14770627D01*
X17337707Y-14850760D01*
X17339808Y-14939180D01*
X17336574Y-15027611D01*
X17327991Y-15107775D01*
X17318394Y-15156100D01*
X17271409Y-15289785D01*
X17203101Y-15410762D01*
X17115020Y-15517367D01*
X17008715Y-15607935D01*
X16885736Y-15680802D01*
X16793960Y-15719185D01*
X16737216Y-15736528D01*
X16672814Y-15751784D01*
X16607248Y-15763906D01*
X16547016Y-15771843D01*
X16498614Y-15774549D01*
X16469991Y-15771476D01*
X16454955Y-15762303D01*
X16449231Y-15744634D01*
X16453199Y-15714613D01*
X16467243Y-15668385D01*
X16485038Y-15619650D01*
X16499177Y-15576012D01*
X16508804Y-15528726D01*
X16514974Y-15470649D01*
X16518744Y-15394638D01*
X16518863Y-15391050D01*
X16519932Y-15309753D01*
X16516545Y-15250447D01*
X16507899Y-15209986D01*
X16493192Y-15185226D01*
X16471620Y-15173020D01*
X16462759Y-15171196D01*
X16443386Y-15172867D01*
X16425712Y-15185944D01*
X16407867Y-15213516D01*
X16387983Y-15258676D01*
X16364191Y-15324513D01*
X16356792Y-15346424D01*
X16341539Y-15392868D01*
X16330865Y-15429991D01*
X16324122Y-15463837D01*
X16320660Y-15500456D01*
X16319831Y-15545893D01*
X16320987Y-15606195D01*
X16322738Y-15663924D01*
X16327874Y-15771669D01*
X16336068Y-15856422D01*
X16347870Y-15920465D01*
X16363828Y-15966082D01*
X16384492Y-15995556D01*
X16405787Y-16009468D01*
X16512090Y-16056098D01*
X16604123Y-16104018D01*
X16692628Y-16158927D01*
X16711366Y-16171602D01*
X16775192Y-16216400D01*
X16819691Y-16250623D01*
X16847342Y-16276719D01*
X16860627Y-16297134D01*
X16862026Y-16314316D01*
X16860637Y-16318854D01*
X16853176Y-16328167D01*
X16838897Y-16325369D01*
X16812962Y-16308639D01*
X16792421Y-16293181D01*
X16657040Y-16198739D01*
X16523349Y-16126337D01*
X16385815Y-16073664D01*
X16238907Y-16038407D01*
X16152069Y-16025597D01*
X16079988Y-16017009D01*
X16052113Y-16072329D01*
X16010429Y-16140561D01*
X15952166Y-16215687D01*
X15882610Y-16291677D01*
X15807046Y-16362500D01*
X15773300Y-16390437D01*
X15694938Y-16444891D01*
X15620159Y-16479415D01*
X15541748Y-16497071D01*
X15516125Y-16499559D01*
X15465514Y-16504730D01*
X15437807Y-16511553D01*
X15433411Y-16520329D01*
X15452736Y-16531362D01*
X15496190Y-16544951D01*
X15564181Y-16561400D01*
X15614550Y-16572270D01*
X15690598Y-16591314D01*
X15742278Y-16611443D01*
X15769193Y-16632473D01*
X15773300Y-16644785D01*
X15763902Y-16671927D01*
X15738857Y-16708656D01*
X15702884Y-16749382D01*
X15660704Y-16788516D01*
X15635164Y-16808347D01*
X15536297Y-16864108D01*
X15421736Y-16901938D01*
X15294640Y-16920920D01*
X15238863Y-16923048D01*
X15153831Y-16920375D01*
X15083533Y-16911502D01*
X15031631Y-16897078D01*
X15005584Y-16881765D01*
X14982952Y-16871701D01*
X14972822Y-16870600D01*
X14960415Y-16877390D01*
X14948966Y-16900224D01*
X14936925Y-16942798D01*
X14930380Y-16971793D01*
X14890877Y-17101498D01*
X14831078Y-17222961D01*
X14753988Y-17330543D01*
X14719098Y-17368311D01*
X14669133Y-17416346D01*
X14628413Y-17447801D01*
X14592936Y-17462095D01*
X14558703Y-17458647D01*
X14521710Y-17436875D01*
X14477958Y-17396199D01*
X14423444Y-17336037D01*
X14412811Y-17323821D01*
X14349053Y-17242094D01*
X14293260Y-17154595D01*
X14248790Y-17067520D01*
X14219000Y-16987064D01*
X14210547Y-16950606D01*
X14200609Y-16892023D01*
X14193012Y-16854495D01*
X14184621Y-16834275D01*
X14172298Y-16827614D01*
X14152908Y-16830765D01*
X14123314Y-16839981D01*
X14119059Y-16841277D01*
X14072473Y-16853217D01*
X14013137Y-16865584D01*
X13953522Y-16875791D01*
X13950850Y-16876185D01*
X13849250Y-16891023D01*
X13742807Y-16891023D01*
X13742718Y-16890675D01*
X13734701Y-16877190D01*
X13724001Y-16871536D01*
X13709660Y-16870216D01*
X13706133Y-16870162D01*
X13677642Y-16865344D01*
X13634502Y-16853031D01*
X13585404Y-16835748D01*
X13578915Y-16833219D01*
X13498347Y-16796576D01*
X13437753Y-16758581D01*
X13398459Y-16720490D01*
X13381787Y-16683553D01*
X13387382Y-16652020D01*
X13404664Y-16637842D01*
X13440402Y-16620213D01*
X13488465Y-16602057D01*
X13499822Y-16598365D01*
X13581269Y-16571543D01*
X13638772Y-16550029D01*
X13673145Y-16533465D01*
X13685201Y-16521488D01*
X13683223Y-16517198D01*
X13664729Y-16508485D01*
X13630952Y-16497491D01*
X13610207Y-16491892D01*
X13531564Y-16461660D01*
X13449733Y-16411778D01*
X13369687Y-16346654D01*
X13296402Y-16270689D01*
X13234850Y-16188290D01*
X13202083Y-16130520D01*
X13165981Y-16046922D01*
X13137916Y-15961732D01*
X13118587Y-15879326D01*
X13108691Y-15804080D01*
X13108734Y-15792243D01*
X13169994Y-15792243D01*
X13174367Y-15838228D01*
X13186311Y-15899091D01*
X13203607Y-15966273D01*
X13224036Y-16031215D01*
X13245379Y-16085356D01*
X13246743Y-16088294D01*
X13272145Y-16130189D01*
X13311941Y-16182181D01*
X13360738Y-16238440D01*
X13413142Y-16293138D01*
X13463760Y-16340444D01*
X13507199Y-16374532D01*
X13517692Y-16381118D01*
X13553267Y-16397043D01*
X13605220Y-16414630D01*
X13664921Y-16431110D01*
X13695661Y-16438216D01*
X13758131Y-16451832D01*
X13799878Y-16461991D01*
X13825064Y-16470339D01*
X13837848Y-16478519D01*
X13842393Y-16488177D01*
X13842900Y-16496416D01*
X13831880Y-16509612D01*
X13802100Y-16529570D01*
X13758478Y-16553860D01*
X13705934Y-16580054D01*
X13649386Y-16605723D01*
X13593753Y-16628438D01*
X13543954Y-16645771D01*
X13535159Y-16648369D01*
X13495127Y-16661151D01*
X13465991Y-16673064D01*
X13455663Y-16679915D01*
X13459000Y-16696333D01*
X13483617Y-16717062D01*
X13526173Y-16740173D01*
X13583327Y-16763738D01*
X13625774Y-16778090D01*
X13742889Y-16804947D01*
X13862553Y-16814517D01*
X13979205Y-16807164D01*
X14087283Y-16783251D01*
X14181225Y-16743141D01*
X14183852Y-16741642D01*
X14215591Y-16725794D01*
X14237797Y-16719146D01*
X14242765Y-16720131D01*
X14247340Y-16735398D01*
X14253262Y-16770081D01*
X14259611Y-16818297D01*
X14263294Y-16851764D01*
X14283282Y-16968342D01*
X14319817Y-17073245D01*
X14376265Y-17175605D01*
X14390414Y-17196830D01*
X14427432Y-17246754D01*
X14468257Y-17295133D01*
X14508743Y-17337743D01*
X14544741Y-17370358D01*
X14572104Y-17388754D01*
X14581342Y-17391300D01*
X14602832Y-17382755D01*
X14633415Y-17360729D01*
X14656483Y-17339716D01*
X14691208Y-17300855D01*
X14729550Y-17251758D01*
X14758151Y-17210642D01*
X14789655Y-17153584D01*
X14820307Y-17083599D01*
X14847563Y-17008195D01*
X14868879Y-16934877D01*
X14881712Y-16871154D01*
X14884300Y-16838299D01*
X14888288Y-16796866D01*
X14902111Y-16775963D01*
X14928558Y-16774487D01*
X14970416Y-16791335D01*
X14984386Y-16798700D01*
X15094552Y-16844680D01*
X15210009Y-16866466D01*
X15328306Y-16864058D01*
X15446995Y-16837454D01*
X15540133Y-16798975D01*
X15583439Y-16773562D01*
X15626246Y-16742328D01*
X15663091Y-16710027D01*
X15688507Y-16681413D01*
X15697100Y-16662412D01*
X15685371Y-16652924D01*
X15653829Y-16642724D01*
X15608523Y-16633674D01*
X15546868Y-16619641D01*
X15481334Y-16597485D01*
X15416434Y-16569621D01*
X15356682Y-16538463D01*
X15306593Y-16506427D01*
X15270681Y-16475927D01*
X15253459Y-16449379D01*
X15252600Y-16443254D01*
X15256219Y-16434695D01*
X15270008Y-16430121D01*
X15298366Y-16429174D01*
X15345691Y-16431492D01*
X15372876Y-16433396D01*
X15434916Y-16436954D01*
X15481293Y-16436322D01*
X15521527Y-16430624D01*
X15565136Y-16418984D01*
X15579791Y-16414367D01*
X15663165Y-16377689D01*
X15747921Y-16322990D01*
X15828712Y-16255236D01*
X15900191Y-16179391D01*
X15957010Y-16100419D01*
X15990295Y-16033204D01*
X16017008Y-15952702D01*
X16041754Y-15861295D01*
X16061631Y-15770702D01*
X16073021Y-15699025D01*
X16077254Y-15658066D01*
X16076413Y-15636271D01*
X16068702Y-15627616D01*
X16052325Y-15626077D01*
X16051273Y-15626078D01*
X16026867Y-15629549D01*
X15984673Y-15638869D01*
X15931207Y-15652503D01*
X15887600Y-15664644D01*
X15737857Y-15703203D01*
X15602753Y-15727725D01*
X15476418Y-15739165D01*
X15422386Y-15740300D01*
X15371021Y-15741241D01*
X15330939Y-15743769D01*
X15307655Y-15747440D01*
X15304009Y-15749825D01*
X15313905Y-15761446D01*
X15339298Y-15782861D01*
X15374747Y-15809488D01*
X15375671Y-15810150D01*
X15426763Y-15852020D01*
X15467767Y-15895957D01*
X15495071Y-15937265D01*
X15505059Y-15971249D01*
X15504526Y-15977539D01*
X15491131Y-15997203D01*
X15462822Y-16018367D01*
X15451542Y-16024437D01*
X15427881Y-16034739D01*
X15404353Y-16040706D01*
X15374887Y-16042663D01*
X15333411Y-16040936D01*
X15273851Y-16035847D01*
X15261042Y-16034629D01*
X15132867Y-16018224D01*
X15021104Y-15995470D01*
X14929693Y-15967198D01*
X14915924Y-15961678D01*
X14870143Y-15945605D01*
X14841067Y-15944986D01*
X14824098Y-15961444D01*
X14814636Y-15996602D01*
X14814497Y-15997475D01*
X14789888Y-16105119D01*
X14752271Y-16206537D01*
X14704079Y-16297530D01*
X14647746Y-16373903D01*
X14585705Y-16431460D01*
X14549947Y-16453618D01*
X14505964Y-16469531D01*
X14469515Y-16465539D01*
X14435077Y-16439947D01*
X14411274Y-16411093D01*
X14378373Y-16358882D01*
X14355072Y-16301784D01*
X14339720Y-16233820D01*
X14330666Y-16149010D01*
X14328547Y-16111420D01*
X14325218Y-16053899D01*
X14321207Y-16006453D01*
X14317046Y-15974385D01*
X14313657Y-15963080D01*
X14298750Y-15964751D01*
X14265984Y-15973579D01*
X14221309Y-15987879D01*
X14200583Y-15995058D01*
X14078834Y-16034804D01*
X13972560Y-16062580D01*
X13883860Y-16077915D01*
X13819400Y-16080620D01*
X13747650Y-16076850D01*
X13743750Y-16015815D01*
X13742602Y-15988260D01*
X13745327Y-15966851D01*
X13754974Y-15946388D01*
X13774594Y-15921670D01*
X13807237Y-15887496D01*
X13835825Y-15858807D01*
X13875009Y-15819191D01*
X13906470Y-15786564D01*
X13926499Y-15764824D01*
X13931800Y-15757916D01*
X13919792Y-15756260D01*
X13886539Y-15754774D01*
X13836195Y-15753567D01*
X13772914Y-15752743D01*
X13719075Y-15752442D01*
X13639975Y-15751545D01*
X13562213Y-15749441D01*
X13492608Y-15746398D01*
X13437976Y-15742685D01*
X13417450Y-15740541D01*
X13359534Y-15733090D01*
X13299985Y-15725331D01*
X13260633Y-15720133D01*
X13213871Y-15716759D01*
X13186463Y-15724758D01*
X13173483Y-15748048D01*
X13170003Y-15790551D01*
X13169994Y-15792243D01*
X13108734Y-15792243D01*
X13108924Y-15740369D01*
X13119983Y-15692569D01*
X13129695Y-15676121D01*
X13148244Y-15658735D01*
X13172695Y-15650669D01*
X13211884Y-15649356D01*
X13220921Y-15649630D01*
X13270006Y-15653781D01*
X13329594Y-15662169D01*
X13378501Y-15671299D01*
X13431947Y-15680312D01*
X13499825Y-15688182D01*
X13575699Y-15694547D01*
X13653136Y-15699046D01*
X13725698Y-15701318D01*
X13786951Y-15701001D01*
X13830459Y-15697734D01*
X13835192Y-15696942D01*
X13867051Y-15685955D01*
X13877014Y-15671938D01*
X13864390Y-15659343D01*
X13841905Y-15653778D01*
X13796894Y-15645596D01*
X13733891Y-15630952D01*
X13658959Y-15611529D01*
X13578163Y-15589008D01*
X13497571Y-15565073D01*
X13423245Y-15541405D01*
X13369446Y-15522724D01*
X13149020Y-15431086D01*
X12942092Y-15323200D01*
X12752294Y-15201082D01*
X12651186Y-15124279D01*
X12619178Y-15101035D01*
X12594400Y-15087812D01*
X12584856Y-15086709D01*
X12570596Y-15107700D01*
X12559475Y-15146772D01*
X12552694Y-15196678D01*
X12551458Y-15250173D01*
X12553357Y-15276584D01*
X12569349Y-15383332D01*
X12592611Y-15470397D01*
X12625392Y-15542998D01*
X12669937Y-15606351D01*
X12716090Y-15654379D01*
X12757167Y-15694962D01*
X12778841Y-15722439D01*
X12782369Y-15738483D01*
X12780846Y-15740633D01*
X12752832Y-15755014D01*
X12704647Y-15765588D01*
X12641237Y-15772348D01*
X12567546Y-15775286D01*
X12488519Y-15774395D01*
X12409100Y-15769666D01*
X12334233Y-15761093D01*
X12268864Y-15748668D01*
X12242700Y-15741455D01*
X12142859Y-15700528D01*
X12043684Y-15642367D01*
X11950504Y-15571342D01*
X11868648Y-15491827D01*
X11803447Y-15408195D01*
X11774155Y-15357076D01*
X11733421Y-15245839D01*
X11714066Y-15125974D01*
X11715755Y-15002032D01*
X11738152Y-14878560D01*
X11780921Y-14760109D01*
X11824113Y-14680527D01*
X11854661Y-14629946D01*
X11870364Y-14597153D01*
X11871605Y-14579602D01*
X11858763Y-14574751D01*
X11839474Y-14578081D01*
X11767472Y-14594010D01*
X11684044Y-14608383D01*
X11593379Y-14620885D01*
X11499663Y-14631202D01*
X11407086Y-14639018D01*
X11319835Y-14644018D01*
X11242099Y-14645888D01*
X11178065Y-14644311D01*
X11131921Y-14638974D01*
X11112400Y-14632773D01*
X11086174Y-14608072D01*
X11076926Y-14584190D01*
X11084925Y-14551474D01*
X11113981Y-14510885D01*
X11161736Y-14464388D01*
X11225829Y-14413947D01*
X11303901Y-14361529D01*
X11393592Y-14309098D01*
X11431472Y-14288936D01*
X11476740Y-14264141D01*
X11511747Y-14242414D01*
X11531479Y-14226994D01*
X11534048Y-14222650D01*
X11523466Y-14210407D01*
X11496332Y-14189870D01*
X11458226Y-14165211D01*
X11452976Y-14162050D01*
X11357664Y-14092838D01*
X11267232Y-14003927D01*
X11186201Y-13901014D01*
X11119092Y-13789798D01*
X11072787Y-13682900D01*
X11058687Y-13636259D01*
X11049938Y-13589575D01*
X11045466Y-13534492D01*
X11044254Y-13465839D01*
X11104619Y-13465839D01*
X11120209Y-13589085D01*
X11155666Y-13708464D01*
X11209018Y-13820827D01*
X11278291Y-13923030D01*
X11361514Y-14011926D01*
X11456715Y-14084367D01*
X11561922Y-14137207D01*
X11621272Y-14156244D01*
X11661689Y-14165435D01*
X11694281Y-14167963D01*
X11729626Y-14163495D01*
X11778300Y-14151699D01*
X11780022Y-14151243D01*
X11840807Y-14137488D01*
X11899370Y-14128363D01*
X11950392Y-14124246D01*
X11988553Y-14125519D01*
X12008533Y-14132561D01*
X12009927Y-14134823D01*
X12001323Y-14144857D01*
X11973305Y-14156445D01*
X11941432Y-14165001D01*
X11830753Y-14194490D01*
X11711654Y-14234476D01*
X11590662Y-14282175D01*
X11474300Y-14334803D01*
X11369092Y-14389574D01*
X11281564Y-14443706D01*
X11271150Y-14451034D01*
X11204765Y-14501790D01*
X11161560Y-14542276D01*
X11141540Y-14572481D01*
X11144710Y-14592392D01*
X11171075Y-14601995D01*
X11209750Y-14602187D01*
X11395555Y-14587251D01*
X11557971Y-14569882D01*
X11698929Y-14549708D01*
X11820357Y-14526357D01*
X11924184Y-14499454D01*
X12012339Y-14468628D01*
X12086750Y-14433506D01*
X12089154Y-14432180D01*
X12133743Y-14408380D01*
X12160840Y-14397034D01*
X12174566Y-14397252D01*
X12179042Y-14408148D01*
X12179199Y-14412762D01*
X12169270Y-14427823D01*
X12142737Y-14452151D01*
X12104487Y-14481471D01*
X12086057Y-14494277D01*
X11988585Y-14569701D01*
X11911025Y-14652611D01*
X11847925Y-14749118D01*
X11832563Y-14778496D01*
X11791424Y-14876913D01*
X11769758Y-14972479D01*
X11766089Y-15074004D01*
X11771843Y-15140878D01*
X11788729Y-15233877D01*
X11816827Y-15313042D01*
X11859922Y-15386228D01*
X11921798Y-15461287D01*
X11930971Y-15471118D01*
X12021584Y-15558138D01*
X12111436Y-15624090D01*
X12205930Y-15671419D01*
X12310471Y-15702568D01*
X12430466Y-15719981D01*
X12490156Y-15723950D01*
X12567926Y-15727252D01*
X12622650Y-15727828D01*
X12656637Y-15724451D01*
X12672199Y-15715894D01*
X12671643Y-15700927D01*
X12657280Y-15678325D01*
X12632594Y-15648241D01*
X12575556Y-15574337D01*
X12536825Y-15505823D01*
X12513141Y-15434668D01*
X12501246Y-15352842D01*
X12499241Y-15319646D01*
X12498336Y-15237546D01*
X12504626Y-15164598D01*
X12519524Y-15085223D01*
X12521080Y-15078346D01*
X12538926Y-15010720D01*
X12559038Y-14951604D01*
X12579639Y-14904936D01*
X12598950Y-14874654D01*
X12615193Y-14864693D01*
X12617350Y-14865232D01*
X12624845Y-14872649D01*
X12626957Y-14890162D01*
X12623656Y-14922966D01*
X12616771Y-14965600D01*
X12614866Y-14988631D01*
X12619637Y-15009621D01*
X12633809Y-15031599D01*
X12660106Y-15057595D01*
X12701254Y-15090640D01*
X12759977Y-15133763D01*
X12782450Y-15149846D01*
X12935849Y-15251301D01*
X13094720Y-15339891D01*
X13264874Y-15418461D01*
X13452124Y-15489857D01*
X13531750Y-15516601D01*
X13621427Y-15544746D01*
X13699210Y-15566478D01*
X13772565Y-15583307D01*
X13848957Y-15596744D01*
X13935854Y-15608299D01*
X14039750Y-15619388D01*
X14114890Y-15626841D01*
X14186639Y-15633989D01*
X14248718Y-15640202D01*
X14294848Y-15644854D01*
X14309625Y-15646363D01*
X14352928Y-15653611D01*
X14372793Y-15662881D01*
X14370931Y-15672628D01*
X14349053Y-15681310D01*
X14308869Y-15687381D01*
X14262000Y-15689336D01*
X14194883Y-15700343D01*
X14116932Y-15732328D01*
X14030104Y-15784328D01*
X13953662Y-15841220D01*
X13888304Y-15896772D01*
X13839257Y-15944673D01*
X13807515Y-15983532D01*
X13794069Y-16011956D01*
X13799914Y-16028552D01*
X13817358Y-16032400D01*
X13849904Y-16028273D01*
X13901008Y-16016954D01*
X13965399Y-16000036D01*
X14037801Y-15979113D01*
X14112941Y-15955776D01*
X14185547Y-15931620D01*
X14250343Y-15908236D01*
X14302058Y-15887219D01*
X14310134Y-15883548D01*
X14349312Y-15867616D01*
X14380729Y-15858951D01*
X14394164Y-15858737D01*
X14400989Y-15866672D01*
X14405226Y-15886505D01*
X14407079Y-15921710D01*
X14406750Y-15975756D01*
X14404846Y-16040876D01*
X14402966Y-16131164D01*
X14404989Y-16201334D01*
X14411672Y-16256475D01*
X14423770Y-16301673D01*
X14442039Y-16342014D01*
X14452157Y-16359425D01*
X14477564Y-16390491D01*
X14504837Y-16398777D01*
X14539343Y-16385104D01*
X14554412Y-16375077D01*
X14590427Y-16340770D01*
X14629639Y-16289517D01*
X14667473Y-16228555D01*
X14699354Y-16165122D01*
X14717754Y-16116641D01*
X14732714Y-16058797D01*
X14745465Y-15993315D01*
X14751063Y-15953171D01*
X14759324Y-15896367D01*
X14771579Y-15862451D01*
X14791228Y-15848915D01*
X14821670Y-15853253D01*
X14862465Y-15871042D01*
X14929953Y-15900318D01*
X15006907Y-15925037D01*
X15099132Y-15946858D01*
X15181238Y-15962222D01*
X15253660Y-15972851D01*
X15319836Y-15979207D01*
X15375199Y-15981145D01*
X15415182Y-15978520D01*
X15435219Y-15971189D01*
X15435895Y-15970282D01*
X15431126Y-15955511D01*
X15409220Y-15930066D01*
X15374037Y-15897573D01*
X15329432Y-15861657D01*
X15290203Y-15833341D01*
X15201551Y-15779328D01*
X15108633Y-15734646D01*
X15020283Y-15703332D01*
X14988822Y-15695584D01*
X14932500Y-15681289D01*
X14896711Y-15666621D01*
X14885166Y-15654450D01*
X15092099Y-15654450D01*
X15093276Y-15658822D01*
X15117788Y-15665126D01*
X15119250Y-15665465D01*
X15151662Y-15669738D01*
X15198780Y-15672203D01*
X15246115Y-15672371D01*
X15293602Y-15670420D01*
X15321316Y-15666090D01*
X15334870Y-15657817D01*
X15339481Y-15646356D01*
X15339870Y-15637939D01*
X15420798Y-15637939D01*
X15421191Y-15664539D01*
X15440786Y-15682356D01*
X15442927Y-15683095D01*
X15471288Y-15684683D01*
X15522454Y-15679182D01*
X15594920Y-15666865D01*
X15687180Y-15648006D01*
X15797730Y-15622878D01*
X15867883Y-15605969D01*
X15951611Y-15585870D01*
X16014255Y-15572330D01*
X16059237Y-15565236D01*
X16089983Y-15564476D01*
X16109917Y-15569941D01*
X16122461Y-15581517D01*
X16130402Y-15597425D01*
X16136393Y-15620166D01*
X16138476Y-15650644D01*
X16136421Y-15692965D01*
X16129998Y-15751236D01*
X16118974Y-15829561D01*
X16116390Y-15846728D01*
X16109751Y-15902680D01*
X16112518Y-15938427D01*
X16127973Y-15958414D01*
X16159403Y-15967088D01*
X16206655Y-15968900D01*
X16281300Y-15968900D01*
X16280847Y-15927625D01*
X16277556Y-15892362D01*
X16269549Y-15844886D01*
X16261995Y-15810150D01*
X16248345Y-15725279D01*
X16243353Y-15627045D01*
X16246843Y-15525899D01*
X16258636Y-15432291D01*
X16269186Y-15385665D01*
X16280306Y-15339663D01*
X16286114Y-15303157D01*
X16285607Y-15282892D01*
X16284713Y-15281433D01*
X16270093Y-15282818D01*
X16237135Y-15293802D01*
X16190254Y-15312689D01*
X16133862Y-15337780D01*
X16113688Y-15347241D01*
X15999861Y-15399045D01*
X15880812Y-15449193D01*
X15763340Y-15495037D01*
X15654238Y-15533927D01*
X15560305Y-15563215D01*
X15557400Y-15564027D01*
X15508588Y-15579301D01*
X15467426Y-15595227D01*
X15441854Y-15608682D01*
X15439925Y-15610231D01*
X15420798Y-15637939D01*
X15339870Y-15637939D01*
X15340030Y-15634487D01*
X15332741Y-15628080D01*
X15312723Y-15626354D01*
X15275087Y-15628529D01*
X15244366Y-15631170D01*
X15192188Y-15636514D01*
X15146281Y-15642417D01*
X15115537Y-15647717D01*
X15112900Y-15648358D01*
X15092099Y-15654450D01*
X14885166Y-15654450D01*
X14883316Y-15652500D01*
X14886417Y-15645049D01*
X14900863Y-15640534D01*
X14935378Y-15633124D01*
X14984932Y-15623812D01*
X15044493Y-15613594D01*
X15050004Y-15612692D01*
X15247712Y-15577139D01*
X15426466Y-15537380D01*
X15592623Y-15491326D01*
X15752542Y-15436886D01*
X15912580Y-15371970D01*
X16079095Y-15294489D01*
X16192400Y-15237133D01*
X16291981Y-15183627D01*
X16368725Y-15138391D01*
X16423572Y-15100762D01*
X16457463Y-15070083D01*
X16471339Y-15045691D01*
X16471800Y-15041094D01*
X16466001Y-15015351D01*
X16451200Y-14978195D01*
X16440050Y-14955594D01*
X16419035Y-14909635D01*
X16409546Y-14875177D01*
X16410791Y-14854959D01*
X16421979Y-14851718D01*
X16442319Y-14868193D01*
X16459158Y-14889481D01*
X16497811Y-14958319D01*
X16530323Y-15045187D01*
X16554267Y-15142986D01*
X16561631Y-15188918D01*
X16568176Y-15261322D01*
X16570549Y-15343444D01*
X16569045Y-15428542D01*
X16563959Y-15509872D01*
X16555587Y-15580692D01*
X16544225Y-15634259D01*
X16541780Y-15641852D01*
X16530319Y-15676977D01*
X16523547Y-15702024D01*
X16522784Y-15707143D01*
X16533855Y-15713420D01*
X16563757Y-15713077D01*
X16607040Y-15706952D01*
X16658251Y-15695878D01*
X16711942Y-15680693D01*
X16726269Y-15675957D01*
X16867475Y-15617928D01*
X16988329Y-15547665D01*
X17088039Y-15465812D01*
X17165811Y-15373012D01*
X17218337Y-15276065D01*
X17258419Y-15150436D01*
X17279168Y-15016494D01*
X17280244Y-14881046D01*
X17261307Y-14750902D01*
X17247128Y-14698900D01*
X17225535Y-14638425D01*
X17201878Y-14595499D01*
X17169863Y-14562626D01*
X17123196Y-14532309D01*
X17094100Y-14516649D01*
X17053136Y-14492934D01*
X17022313Y-14470570D01*
X17007760Y-14454063D01*
X17007443Y-14452948D01*
X17008588Y-14438151D01*
X17022027Y-14433974D01*
X17050906Y-14440778D01*
X17098368Y-14458926D01*
X17113150Y-14465127D01*
X17249152Y-14518337D01*
X17388486Y-14563219D01*
X17513200Y-14596469D01*
X17601934Y-14616355D01*
X17694904Y-14633746D01*
X17787458Y-14648089D01*
X17874942Y-14658830D01*
X17952705Y-14665415D01*
X18016095Y-14667290D01*
X18060459Y-14663903D01*
X18067171Y-14662405D01*
X18101121Y-14653325D01*
X18032585Y-14592643D01*
X17968385Y-14540428D01*
X17888107Y-14482141D01*
X17798745Y-14422337D01*
X17707293Y-14365568D01*
X17620745Y-14316388D01*
X17563985Y-14287565D01*
X17494347Y-14256898D01*
X17414395Y-14225178D01*
X17338220Y-14197910D01*
X17316350Y-14190837D01*
X17238831Y-14166467D01*
X17182385Y-14148127D01*
X17143754Y-14134564D01*
X17119677Y-14124525D01*
X17106895Y-14116755D01*
X17102147Y-14110002D01*
X17101836Y-14108350D01*
X17111312Y-14095656D01*
X17142356Y-14092650D01*
X17193125Y-14099161D01*
X17261781Y-14115017D01*
X17305321Y-14127308D01*
X17365819Y-14144829D01*
X17409545Y-14155535D01*
X17443939Y-14160289D01*
X17476440Y-14159952D01*
X17514491Y-14155386D01*
X17528855Y-14153204D01*
X17588796Y-14140428D01*
X17655900Y-14120958D01*
X17709074Y-14101588D01*
X17772152Y-14069742D01*
X17842616Y-14025200D01*
X17913643Y-13973125D01*
X17978410Y-13918684D01*
X18030093Y-13867042D01*
X18048151Y-13844898D01*
X18104936Y-13752745D01*
X18153659Y-13644061D01*
X18191603Y-13527143D01*
X18216053Y-13410292D01*
X18224311Y-13306495D01*
X18214274Y-13198670D01*
X18185384Y-13082122D01*
X18139768Y-12962442D01*
X18079552Y-12845225D01*
X18007786Y-12737281D01*
X17979936Y-12702222D01*
X17957274Y-12677009D01*
X17944553Y-12666914D01*
X17944329Y-12666899D01*
X17934751Y-12673564D01*
X17926568Y-12696003D01*
X17918736Y-12737884D01*
X17913648Y-12774850D01*
X17890853Y-12881592D01*
X17848763Y-12986476D01*
X17812782Y-13052133D01*
X17771275Y-13114067D01*
X17719861Y-13179642D01*
X17663576Y-13243347D01*
X17607459Y-13299673D01*
X17556547Y-13343109D01*
X17530796Y-13360573D01*
X17490054Y-13381318D01*
X17438055Y-13403507D01*
X17382169Y-13424482D01*
X17329766Y-13441590D01*
X17288215Y-13452175D01*
X17270683Y-13454300D01*
X17248791Y-13449372D01*
X17247881Y-13436359D01*
X17265917Y-13417918D01*
X17300865Y-13396707D01*
X17322603Y-13386514D01*
X17398707Y-13353509D01*
X17391623Y-13216579D01*
X17368818Y-12980832D01*
X17325297Y-12759037D01*
X17260652Y-12549896D01*
X17174479Y-12352111D01*
X17066371Y-12164382D01*
X17059648Y-12154124D01*
X17033824Y-12119813D01*
X16993357Y-12071845D01*
X16941958Y-12014126D01*
X16883333Y-11950562D01*
X16821192Y-11885058D01*
X16759243Y-11821520D01*
X16701193Y-11763855D01*
X16650753Y-11715966D01*
X16611629Y-11681761D01*
X16609639Y-11680163D01*
X16490315Y-11587424D01*
X16378267Y-11506045D01*
X16267546Y-11432295D01*
X16152207Y-11362443D01*
X16026302Y-11292759D01*
X15883884Y-11219512D01*
X15843150Y-11199292D01*
X15694322Y-11128199D01*
X15560712Y-11069728D01*
X15494177Y-11044016D01*
X15775493Y-11044016D01*
X15775781Y-11058667D01*
X15778942Y-11075787D01*
X15787168Y-11090608D01*
X15804180Y-11105979D01*
X15833698Y-11124751D01*
X15879442Y-11149773D01*
X15927208Y-11174650D01*
X16118419Y-11278502D01*
X16295195Y-11384831D01*
X16453160Y-11490945D01*
X16514368Y-11535955D01*
X16584252Y-11589394D01*
X16640543Y-11633849D01*
X16690254Y-11675194D01*
X16740393Y-11719301D01*
X16797972Y-11772044D01*
X16814204Y-11787130D01*
X16848237Y-11815664D01*
X16878070Y-11835247D01*
X16894261Y-11841105D01*
X16915048Y-11831261D01*
X16937836Y-11806576D01*
X16942086Y-11800125D01*
X16963326Y-11756753D01*
X16987244Y-11693135D01*
X17012567Y-11614114D01*
X17038020Y-11524534D01*
X17062332Y-11429238D01*
X17084228Y-11333072D01*
X17102435Y-11240878D01*
X17115680Y-11157501D01*
X17119611Y-11124818D01*
X17123373Y-11075918D01*
X17126683Y-11007701D01*
X17129348Y-10926248D01*
X17131173Y-10837641D01*
X17131964Y-10747962D01*
X17131979Y-10738229D01*
X17131906Y-10647742D01*
X17131306Y-10578868D01*
X17129859Y-10527821D01*
X17127245Y-10490815D01*
X17123141Y-10464064D01*
X17117228Y-10443783D01*
X17109185Y-10426184D01*
X17104880Y-10418299D01*
X17075607Y-10378820D01*
X17038284Y-10355000D01*
X16987769Y-10344852D01*
X16918921Y-10346388D01*
X16918870Y-10346392D01*
X16825133Y-10359798D01*
X16722851Y-10385499D01*
X16607833Y-10424698D01*
X16511315Y-10463416D01*
X16327340Y-10551769D01*
X16158252Y-10654706D01*
X16006792Y-10770284D01*
X15875697Y-10896557D01*
X15834055Y-10944213D01*
X15800581Y-10986900D01*
X15782118Y-11018089D01*
X15775493Y-11044016D01*
X15494177Y-11044016D01*
X15436793Y-11021841D01*
X15317041Y-10982500D01*
X15195929Y-10949668D01*
X15116897Y-10931507D01*
X15061117Y-10919852D01*
X15012907Y-10911077D01*
X14967063Y-10904766D01*
X14918385Y-10900508D01*
X14861671Y-10897887D01*
X14791718Y-10896489D01*
X14703324Y-10895900D01*
X14668400Y-10895812D01*
X14573078Y-10895826D01*
X14497886Y-10896565D01*
X14437556Y-10898437D01*
X14386821Y-10901852D01*
X14340412Y-10907219D01*
X14293061Y-10914947D01*
X14239500Y-10925447D01*
X14211200Y-10931347D01*
X14030286Y-10971860D01*
X13869863Y-11013635D01*
X13725035Y-11058800D01*
X13590905Y-11109481D01*
X13462580Y-11167806D01*
X13335164Y-11235903D01*
X13203761Y-11315897D01*
X13063477Y-11409917D01*
X12989131Y-11462382D01*
X12807180Y-11600533D01*
X12647786Y-11739308D01*
X12508225Y-11881808D01*
X12385774Y-12031135D01*
X12277712Y-12190390D01*
X12181314Y-12362673D01*
X12158634Y-12408317D01*
X12104600Y-12529968D01*
X12055067Y-12661468D01*
X12011471Y-12797483D01*
X11975251Y-12932679D01*
X11947845Y-13061724D01*
X11930691Y-13179283D01*
X11925200Y-13274013D01*
X11926493Y-13331675D01*
X11933103Y-13370906D01*
X11949123Y-13398648D01*
X11978646Y-13421840D01*
X12025765Y-13447424D01*
X12028205Y-13448662D01*
X12062538Y-13468223D01*
X12085089Y-13485220D01*
X12090300Y-13493012D01*
X12081278Y-13509599D01*
X12056464Y-13511212D01*
X12019227Y-13499547D01*
X11972941Y-13476300D01*
X11920977Y-13443164D01*
X11866708Y-13401835D01*
X11813505Y-13354008D01*
X11813248Y-13353755D01*
X11729216Y-13255885D01*
X11663517Y-13146854D01*
X11617437Y-13030557D01*
X11592260Y-12910891D01*
X11589273Y-12791751D01*
X11601048Y-12710869D01*
X11610271Y-12664193D01*
X11615337Y-12627594D01*
X11615396Y-12607628D01*
X11614630Y-12606097D01*
X11599971Y-12607120D01*
X11571097Y-12618404D01*
X11549429Y-12629345D01*
X11452887Y-12695395D01*
X11363596Y-12782757D01*
X11283759Y-12887846D01*
X11215582Y-13007081D01*
X11161271Y-13136877D01*
X11123031Y-13273653D01*
X11110867Y-13341871D01*
X11104619Y-13465839D01*
X11044254Y-13465839D01*
X11044197Y-13462654D01*
X11044197Y-13460650D01*
X11051928Y-13328111D01*
X11076167Y-13202663D01*
X11118603Y-13078637D01*
X11180924Y-12950362D01*
X11212451Y-12895500D01*
X11260414Y-12825087D01*
X11317879Y-12756393D01*
X11381223Y-12692390D01*
X11446825Y-12636051D01*
X11511063Y-12590351D01*
X11570313Y-12558261D01*
X11620956Y-12542756D01*
X11642781Y-12542246D01*
X11663541Y-12548725D01*
X11676517Y-12564667D01*
X11682056Y-12593387D01*
X11680506Y-12638200D01*
X11672213Y-12702419D01*
X11664498Y-12749585D01*
X11654412Y-12814028D01*
X11649809Y-12861862D01*
X11650426Y-12901219D01*
X11655997Y-12940233D01*
X11657985Y-12950171D01*
X11673330Y-13005769D01*
X11696010Y-13065068D01*
X11723605Y-13123943D01*
X11753699Y-13178265D01*
X11783873Y-13223907D01*
X11811708Y-13256741D01*
X11834788Y-13272641D01*
X11846391Y-13271762D01*
X11853395Y-13256329D01*
X11860720Y-13222529D01*
X11866895Y-13177332D01*
X11867437Y-13172006D01*
X11878413Y-13092227D01*
X11896804Y-12994991D01*
X11921127Y-12886631D01*
X11949900Y-12773481D01*
X11981641Y-12661875D01*
X12002313Y-12595762D01*
X12055260Y-12433016D01*
X11996367Y-12261033D01*
X11971606Y-12184126D01*
X11947500Y-12101196D01*
X11926776Y-12022115D01*
X11912166Y-11956761D01*
X11911962Y-11955700D01*
X11898457Y-11867767D01*
X11887174Y-11759825D01*
X11878223Y-11637043D01*
X11871717Y-11504590D01*
X11867767Y-11367635D01*
X11867088Y-11295300D01*
X11934481Y-11295300D01*
X11934805Y-11409391D01*
X11935692Y-11502210D01*
X11937354Y-11577882D01*
X11940002Y-11640531D01*
X11943850Y-11694283D01*
X11949108Y-11743263D01*
X11955989Y-11791596D01*
X11961791Y-11826711D01*
X11981626Y-11934114D01*
X12002849Y-12035057D01*
X12024661Y-12126729D01*
X12046264Y-12206321D01*
X12066858Y-12271022D01*
X12085645Y-12318021D01*
X12101826Y-12344509D01*
X12110344Y-12349400D01*
X12118164Y-12339208D01*
X12135327Y-12312049D01*
X12158640Y-12273043D01*
X12167784Y-12257325D01*
X12221579Y-12168993D01*
X12283934Y-12074318D01*
X12349577Y-11980850D01*
X12413231Y-11896141D01*
X12460772Y-11837898D01*
X12493922Y-11797226D01*
X12519400Y-11761897D01*
X12533328Y-11737472D01*
X12534800Y-11731782D01*
X12531819Y-11708940D01*
X12524134Y-11671141D01*
X12516744Y-11640033D01*
X12494488Y-11529437D01*
X12478022Y-11400738D01*
X12467766Y-11260655D01*
X12464456Y-11128499D01*
X12532420Y-11128499D01*
X12535743Y-11266166D01*
X12536562Y-11283342D01*
X12542753Y-11374998D01*
X12551487Y-11460391D01*
X12562151Y-11536123D01*
X12574132Y-11598800D01*
X12586819Y-11645025D01*
X12599599Y-11671402D01*
X12607424Y-11676300D01*
X12623139Y-11668489D01*
X12654253Y-11646970D01*
X12696918Y-11614610D01*
X12747287Y-11574276D01*
X12773961Y-11552179D01*
X12897308Y-11455291D01*
X13037824Y-11357135D01*
X13197398Y-11256519D01*
X13377918Y-11152249D01*
X13576077Y-11045837D01*
X13613564Y-11023444D01*
X13640419Y-11001975D01*
X13649800Y-10988535D01*
X13642781Y-10970898D01*
X13620264Y-10939762D01*
X13585598Y-10898655D01*
X13542135Y-10851105D01*
X13493224Y-10800641D01*
X13442215Y-10750789D01*
X13392459Y-10705079D01*
X13347305Y-10667037D01*
X13336660Y-10658782D01*
X13280252Y-10620224D01*
X13207023Y-10576288D01*
X13123884Y-10530649D01*
X13037746Y-10486979D01*
X12955521Y-10448952D01*
X12896110Y-10424649D01*
X12827078Y-10404176D01*
X12761439Y-10394674D01*
X12705911Y-10396687D01*
X12673706Y-10406724D01*
X12643525Y-10435755D01*
X12616107Y-10487473D01*
X12591859Y-10559278D01*
X12571188Y-10648565D01*
X12554502Y-10752734D01*
X12542207Y-10869180D01*
X12534711Y-10995303D01*
X12532420Y-11128499D01*
X12464456Y-11128499D01*
X12464140Y-11115910D01*
X12467564Y-10973226D01*
X12471359Y-10913532D01*
X12484813Y-10782864D01*
X12503866Y-10663339D01*
X12527764Y-10557720D01*
X12555752Y-10468768D01*
X12587078Y-10399245D01*
X12620987Y-10351913D01*
X12625917Y-10347197D01*
X12663622Y-10329109D01*
X12719143Y-10324243D01*
X12789231Y-10331623D01*
X12870641Y-10350278D01*
X12960124Y-10379231D01*
X13054433Y-10417510D01*
X13150321Y-10464140D01*
X13244540Y-10518148D01*
X13286718Y-10545397D01*
X13338359Y-10583816D01*
X13401461Y-10636483D01*
X13470787Y-10698509D01*
X13541099Y-10765002D01*
X13607160Y-10831072D01*
X13663734Y-10891827D01*
X13688060Y-10920177D01*
X13740043Y-10983204D01*
X13826396Y-10955412D01*
X13872673Y-10942062D01*
X13934058Y-10926533D01*
X14005143Y-10909960D01*
X14080517Y-10893479D01*
X14154771Y-10878223D01*
X14222493Y-10865329D01*
X14254859Y-10859876D01*
X15166031Y-10859876D01*
X15182017Y-10878430D01*
X15221208Y-10895309D01*
X15233647Y-10898922D01*
X15269317Y-10909214D01*
X15322558Y-10925368D01*
X15386797Y-10945355D01*
X15455462Y-10967148D01*
X15471630Y-10972344D01*
X15535060Y-10992423D01*
X15590487Y-11009293D01*
X15633133Y-11021551D01*
X15658222Y-11027795D01*
X15662130Y-11028299D01*
X15678329Y-11018638D01*
X15701985Y-10994328D01*
X15716150Y-10976497D01*
X15761445Y-10921753D01*
X15822292Y-10857398D01*
X15893363Y-10788288D01*
X15969334Y-10719280D01*
X16044879Y-10655232D01*
X16114672Y-10601001D01*
X16167000Y-10565317D01*
X16287532Y-10496127D01*
X16411021Y-10434910D01*
X16534412Y-10382556D01*
X16654653Y-10339952D01*
X16768691Y-10307987D01*
X16873472Y-10287551D01*
X16965944Y-10279532D01*
X17043054Y-10284818D01*
X17087409Y-10297389D01*
X17128501Y-10325999D01*
X17159962Y-10374298D01*
X17182514Y-10443837D01*
X17196388Y-10531410D01*
X17203944Y-10632920D01*
X17207423Y-10748657D01*
X17206935Y-10869958D01*
X17202593Y-10988161D01*
X17194505Y-11094605D01*
X17188553Y-11144620D01*
X17172399Y-11242090D01*
X17150013Y-11351377D01*
X17123172Y-11465464D01*
X17093654Y-11577331D01*
X17063239Y-11679957D01*
X17033704Y-11766325D01*
X17025989Y-11786251D01*
X17006084Y-11838126D01*
X16990485Y-11882820D01*
X16981323Y-11914006D01*
X16979800Y-11923314D01*
X16987094Y-11943785D01*
X17006250Y-11976956D01*
X17033171Y-12015766D01*
X17034091Y-12016989D01*
X17105350Y-12116492D01*
X17167188Y-12214696D01*
X17226547Y-12322858D01*
X17244666Y-12358446D01*
X17279806Y-12431037D01*
X17307068Y-12494670D01*
X17330933Y-12560688D01*
X17355254Y-12638325D01*
X17362144Y-12651359D01*
X17371913Y-12649392D01*
X17386019Y-12630342D01*
X17405916Y-12592129D01*
X17433060Y-12532671D01*
X17439649Y-12517675D01*
X17523298Y-12316032D01*
X17593051Y-12123758D01*
X17652020Y-11931354D01*
X17703316Y-11729323D01*
X17715283Y-11676300D01*
X17737232Y-11573558D01*
X17754867Y-11482054D01*
X17768739Y-11396598D01*
X17779401Y-11312000D01*
X17787408Y-11223070D01*
X17793311Y-11124618D01*
X17797664Y-11011454D01*
X17801020Y-10878387D01*
X17801197Y-10869850D01*
X17803644Y-10646911D01*
X17801177Y-10447127D01*
X17793636Y-10268701D01*
X17780858Y-10109834D01*
X17762683Y-9968731D01*
X17738948Y-9843594D01*
X17709492Y-9732625D01*
X17695003Y-9688750D01*
X17674085Y-9633368D01*
X17653420Y-9594071D01*
X17628284Y-9568112D01*
X17593955Y-9552751D01*
X17545709Y-9545242D01*
X17478825Y-9542843D01*
X17443560Y-9542700D01*
X17315237Y-9545699D01*
X17201061Y-9555639D01*
X17090389Y-9573932D01*
X16972578Y-9601992D01*
X16949325Y-9608319D01*
X16773464Y-9662558D01*
X16593830Y-9729488D01*
X16405154Y-9811179D01*
X16274950Y-9873283D01*
X16149222Y-9936758D01*
X16040747Y-9995577D01*
X15944873Y-10053144D01*
X15856948Y-10112863D01*
X15772320Y-10178135D01*
X15686337Y-10252365D01*
X15594347Y-10338956D01*
X15491697Y-10441311D01*
X15474439Y-10458901D01*
X15392686Y-10544812D01*
X15321072Y-10624848D01*
X15261145Y-10696997D01*
X15214455Y-10759243D01*
X15182549Y-10809575D01*
X15166977Y-10845979D01*
X15166031Y-10859876D01*
X14254859Y-10859876D01*
X14278275Y-10855931D01*
X14316705Y-10851164D01*
X14325008Y-10850800D01*
X14351976Y-10847562D01*
X14363590Y-10839749D01*
X14363600Y-10839497D01*
X14356519Y-10824412D01*
X14337857Y-10795191D01*
X14311489Y-10757857D01*
X14308476Y-10753772D01*
X14239652Y-10668657D01*
X14152810Y-10573633D01*
X14051669Y-10471931D01*
X13939948Y-10366784D01*
X13821365Y-10261424D01*
X13699640Y-10159081D01*
X13578490Y-10062989D01*
X13461634Y-9976379D01*
X13352792Y-9902484D01*
X13273970Y-9854683D01*
X13177711Y-9802770D01*
X13071817Y-9750135D01*
X12960781Y-9698657D01*
X12849095Y-9650213D01*
X12741249Y-9606681D01*
X12641737Y-9569939D01*
X12555049Y-9541864D01*
X12485677Y-9524334D01*
X12482017Y-9523631D01*
X12451871Y-9520526D01*
X12427784Y-9527357D01*
X12399913Y-9547823D01*
X12386900Y-9559384D01*
X12345999Y-9603227D01*
X12305309Y-9661074D01*
X12263869Y-9734892D01*
X12220720Y-9826647D01*
X12174901Y-9938307D01*
X12125452Y-10071837D01*
X12097392Y-10152300D01*
X12054192Y-10285273D01*
X12018812Y-10410989D01*
X11990604Y-10533989D01*
X11968920Y-10658813D01*
X11953114Y-10790002D01*
X11942539Y-10932097D01*
X11936547Y-11089640D01*
X11934490Y-11267171D01*
X11934481Y-11295300D01*
X11867088Y-11295300D01*
X11866486Y-11231348D01*
X11867985Y-11100897D01*
X11872375Y-10981453D01*
X11879769Y-10878183D01*
X11887301Y-10814801D01*
X11903904Y-10704233D01*
X11917972Y-10614212D01*
X11930339Y-10540111D01*
X11941839Y-10477301D01*
X11953307Y-10421155D01*
X11965576Y-10367044D01*
X11974896Y-10328674D01*
X12001277Y-10233509D01*
X12035639Y-10126110D01*
X12075235Y-10013947D01*
X12117318Y-9904489D01*
X12159140Y-9805207D01*
X12196263Y-9726850D01*
X12234552Y-9660993D01*
X12278786Y-9599038D01*
X12325375Y-9544817D01*
X12370727Y-9502161D01*
X12411251Y-9474902D01*
X12440096Y-9466694D01*
X12498796Y-9473124D01*
X12575789Y-9490927D01*
X12667456Y-9518627D01*
X12770180Y-9554746D01*
X12880343Y-9597808D01*
X12994327Y-9646336D01*
X13108514Y-9698853D01*
X13219288Y-9753883D01*
X13323030Y-9809949D01*
X13414040Y-9864256D01*
X13493924Y-9918637D01*
X13585874Y-9987743D01*
X13686461Y-10068466D01*
X13792253Y-10157696D01*
X13899820Y-10252323D01*
X14005730Y-10349238D01*
X14106555Y-10445330D01*
X14198862Y-10537490D01*
X14279221Y-10622609D01*
X14344202Y-10697576D01*
X14370723Y-10731444D01*
X14438018Y-10821638D01*
X14746457Y-10828416D01*
X14832881Y-10830093D01*
X14911097Y-10831187D01*
X14977447Y-10831682D01*
X15028273Y-10831562D01*
X15059919Y-10830808D01*
X15068695Y-10829898D01*
X15084480Y-10816031D01*
X15103075Y-10790114D01*
X15103097Y-10790076D01*
X15122379Y-10761810D01*
X15154799Y-10718596D01*
X15196888Y-10664710D01*
X15245181Y-10604426D01*
X15296211Y-10542020D01*
X15346511Y-10481764D01*
X15392615Y-10427936D01*
X15431055Y-10384808D01*
X15436750Y-10378665D01*
X15599654Y-10221656D01*
X15784423Y-10075547D01*
X15989512Y-9941381D01*
X16213377Y-9820199D01*
X16374587Y-9746153D01*
X16557369Y-9672420D01*
X16737826Y-9608577D01*
X16912678Y-9555478D01*
X17078643Y-9513982D01*
X17232438Y-9484945D01*
X17370784Y-9469224D01*
X17445698Y-9466538D01*
X17530286Y-9469063D01*
G36*
X14878882Y-16322113D02*
G01*
X14917184Y-16341531D01*
X14919497Y-16343035D01*
X14965818Y-16365181D01*
X15030272Y-16384084D01*
X15070038Y-16392105D01*
X15131833Y-16403690D01*
X15171536Y-16413704D01*
X15192304Y-16423349D01*
X15197294Y-16433828D01*
X15194907Y-16439677D01*
X15179664Y-16444971D01*
X15146623Y-16448387D01*
X15103321Y-16449820D01*
X15057299Y-16449164D01*
X15016095Y-16446312D01*
X14992250Y-16442520D01*
X14963569Y-16431754D01*
X14925695Y-16412506D01*
X14884921Y-16388684D01*
X14847544Y-16364194D01*
X14819858Y-16342944D01*
X14808157Y-16328842D01*
X14808100Y-16328211D01*
X14818058Y-16314617D01*
X14843746Y-16312863D01*
X14878882Y-16322113D01*
G37*
X14878882Y-16322113D02*
X14917184Y-16341531D01*
X14919497Y-16343035D01*
X14965818Y-16365181D01*
X15030272Y-16384084D01*
X15070038Y-16392105D01*
X15131833Y-16403690D01*
X15171536Y-16413704D01*
X15192304Y-16423349D01*
X15197294Y-16433828D01*
X15194907Y-16439677D01*
X15179664Y-16444971D01*
X15146623Y-16448387D01*
X15103321Y-16449820D01*
X15057299Y-16449164D01*
X15016095Y-16446312D01*
X14992250Y-16442520D01*
X14963569Y-16431754D01*
X14925695Y-16412506D01*
X14884921Y-16388684D01*
X14847544Y-16364194D01*
X14819858Y-16342944D01*
X14808157Y-16328842D01*
X14808100Y-16328211D01*
X14818058Y-16314617D01*
X14843746Y-16312863D01*
X14878882Y-16322113D01*
G36*
X14258582Y-16322020D02*
G01*
X14270463Y-16327729D01*
X14272711Y-16329768D01*
X14280164Y-16342724D01*
X14273504Y-16354809D01*
X14250377Y-16367026D01*
X14208435Y-16380380D01*
X14145324Y-16395876D01*
X14089392Y-16408091D01*
X14017191Y-16423052D01*
X13965585Y-16432560D01*
X13930414Y-16436855D01*
X13907520Y-16436175D01*
X13892741Y-16430761D01*
X13881920Y-16420851D01*
X13881262Y-16420066D01*
X13875354Y-16408475D01*
X13880227Y-16398117D01*
X13898570Y-16388009D01*
X13933072Y-16377172D01*
X13986422Y-16364623D01*
X14061307Y-16349381D01*
X14090254Y-16343775D01*
X14158944Y-16330996D01*
X14207066Y-16323328D01*
X14238864Y-16320444D01*
X14258582Y-16322020D01*
G37*
X14258582Y-16322020D02*
X14270463Y-16327729D01*
X14272711Y-16329768D01*
X14280164Y-16342724D01*
X14273504Y-16354809D01*
X14250377Y-16367026D01*
X14208435Y-16380380D01*
X14145324Y-16395876D01*
X14089392Y-16408091D01*
X14017191Y-16423052D01*
X13965585Y-16432560D01*
X13930414Y-16436855D01*
X13907520Y-16436175D01*
X13892741Y-16430761D01*
X13881920Y-16420851D01*
X13881262Y-16420066D01*
X13875354Y-16408475D01*
X13880227Y-16398117D01*
X13898570Y-16388009D01*
X13933072Y-16377172D01*
X13986422Y-16364623D01*
X14061307Y-16349381D01*
X14090254Y-16343775D01*
X14158944Y-16330996D01*
X14207066Y-16323328D01*
X14238864Y-16320444D01*
X14258582Y-16322020D01*
G36*
X13284100Y-15835550D02*
G01*
X13277750Y-15841900D01*
X13271400Y-15835550D01*
X13277750Y-15829200D01*
X13284100Y-15835550D01*
G37*
X13284100Y-15835550D02*
X13277750Y-15841900D01*
X13271400Y-15835550D01*
X13277750Y-15829200D01*
X13284100Y-15835550D01*
G36*
X15410265Y-13862841D02*
G01*
X15417613Y-13881268D01*
X15417700Y-13884616D01*
X15407147Y-13904283D01*
X15378278Y-13932906D01*
X15335270Y-13967648D01*
X15282304Y-14005676D01*
X15223559Y-14044154D01*
X15163216Y-14080245D01*
X15105453Y-14111116D01*
X15054450Y-14133930D01*
X15045061Y-14137406D01*
X15007494Y-14153704D01*
X14980168Y-14171047D01*
X14972735Y-14179234D01*
X14967026Y-14199097D01*
X14959383Y-14238570D01*
X14950785Y-14292030D01*
X14942210Y-14353855D01*
X14941803Y-14357034D01*
X14916299Y-14529054D01*
X14886366Y-14677509D01*
X14851425Y-14803943D01*
X14810899Y-14909900D01*
X14764209Y-14996920D01*
X14710776Y-15066548D01*
X14657887Y-15114531D01*
X14622717Y-15138558D01*
X14591460Y-15151069D01*
X14552611Y-15155651D01*
X14524537Y-15156089D01*
X14447615Y-15148711D01*
X14393139Y-15129839D01*
X14316890Y-15078691D01*
X14244960Y-15003266D01*
X14227921Y-14978170D01*
X14306450Y-14978170D01*
X14311679Y-14999719D01*
X14330402Y-15020734D01*
X14367173Y-15046014D01*
X14375738Y-15051195D01*
X14421923Y-15075950D01*
X14461698Y-15088389D01*
X14508338Y-15092250D01*
X14521788Y-15092317D01*
X14579834Y-15088176D01*
X14617877Y-15075656D01*
X14626076Y-15070092D01*
X14654210Y-15043887D01*
X14685251Y-15009402D01*
X14714075Y-14973114D01*
X14735555Y-14941500D01*
X14744567Y-14921038D01*
X14744600Y-14920303D01*
X14732942Y-14905395D01*
X14702090Y-14890942D01*
X14658227Y-14878488D01*
X14607535Y-14869576D01*
X14556197Y-14865750D01*
X14528865Y-14866447D01*
X14470923Y-14875657D01*
X14414449Y-14893244D01*
X14364868Y-14916483D01*
X14327606Y-14942648D01*
X14308088Y-14969014D01*
X14306450Y-14978170D01*
X14227921Y-14978170D01*
X14177830Y-14904394D01*
X14115979Y-14782906D01*
X14059888Y-14639634D01*
X14010037Y-14475408D01*
X14006014Y-14460167D01*
X13996545Y-14424898D01*
X14060762Y-14424898D01*
X14063544Y-14444070D01*
X14074316Y-14492482D01*
X14092807Y-14556729D01*
X14116518Y-14629390D01*
X14142952Y-14703044D01*
X14169611Y-14770272D01*
X14185379Y-14805950D01*
X14209065Y-14852831D01*
X14230260Y-14879315D01*
X14255205Y-14887497D01*
X14290146Y-14879475D01*
X14340113Y-14857906D01*
X14424243Y-14824622D01*
X14500226Y-14808606D01*
X14577343Y-14808645D01*
X14641701Y-14818523D01*
X14701801Y-14830525D01*
X14742011Y-14836093D01*
X14767460Y-14833184D01*
X14783273Y-14819758D01*
X14794579Y-14793773D01*
X14806506Y-14753188D01*
X14806596Y-14752875D01*
X14822926Y-14689537D01*
X14839358Y-14614766D01*
X14854345Y-14536811D01*
X14866338Y-14463922D01*
X14873791Y-14404352D01*
X14875058Y-14387865D01*
X14875702Y-14355556D01*
X14869265Y-14341818D01*
X14850696Y-14339905D01*
X14839850Y-14340834D01*
X14799187Y-14336819D01*
X14765435Y-14314104D01*
X14734720Y-14269738D01*
X14727079Y-14254953D01*
X14714893Y-14231988D01*
X14702690Y-14215970D01*
X14777120Y-14215970D01*
X14785017Y-14242067D01*
X14795688Y-14254688D01*
X14827243Y-14276584D01*
X14852982Y-14274170D01*
X14871784Y-14247560D01*
X14872005Y-14246984D01*
X14879320Y-14214551D01*
X14868255Y-14197042D01*
X14836103Y-14191026D01*
X14827759Y-14190900D01*
X14791953Y-14197750D01*
X14777120Y-14215970D01*
X14702690Y-14215970D01*
X14701630Y-14214580D01*
X14682674Y-14199861D01*
X14653412Y-14184964D01*
X14609230Y-14167022D01*
X14549647Y-14144698D01*
X14399144Y-14088975D01*
X14306333Y-14147768D01*
X14260171Y-14178056D01*
X14230203Y-14201995D01*
X14210652Y-14225973D01*
X14195737Y-14256382D01*
X14186751Y-14279985D01*
X14169456Y-14322572D01*
X14152346Y-14348322D01*
X14128989Y-14364921D01*
X14107848Y-14374268D01*
X14075763Y-14388470D01*
X14061912Y-14402440D01*
X14060762Y-14424898D01*
X13996545Y-14424898D01*
X13989979Y-14400448D01*
X13975203Y-14348502D01*
X13963352Y-14309996D01*
X13956214Y-14290819D01*
X13936766Y-14275688D01*
X14035992Y-14275688D01*
X14040653Y-14291976D01*
X14044959Y-14297475D01*
X14073760Y-14315861D01*
X14105614Y-14312673D01*
X14119760Y-14302660D01*
X14133180Y-14277178D01*
X14135000Y-14264560D01*
X14125085Y-14246972D01*
X14100631Y-14241718D01*
X14069572Y-14249293D01*
X14052181Y-14259375D01*
X14035992Y-14275688D01*
X13936766Y-14275688D01*
X13936712Y-14275646D01*
X13900659Y-14263827D01*
X13887583Y-14261448D01*
X13834909Y-14248465D01*
X13777040Y-14225935D01*
X13718183Y-14196586D01*
X13662543Y-14163150D01*
X13614330Y-14128355D01*
X13577748Y-14094932D01*
X13557006Y-14065611D01*
X13555071Y-14045687D01*
X13566310Y-14030062D01*
X13585010Y-14028709D01*
X13614435Y-14042703D01*
X13657848Y-14073117D01*
X13672405Y-14084293D01*
X13720334Y-14119104D01*
X13771190Y-14152250D01*
X13810390Y-14174631D01*
X13844640Y-14190470D01*
X13875416Y-14199416D01*
X13911360Y-14202797D01*
X13961113Y-14201939D01*
X13981840Y-14200962D01*
X14043866Y-14195680D01*
X14096482Y-14185050D01*
X14146106Y-14166423D01*
X14199156Y-14137148D01*
X14262051Y-14094576D01*
X14291707Y-14073005D01*
X14378565Y-14009016D01*
X14444107Y-14037642D01*
X14517619Y-14069116D01*
X14575015Y-14091360D01*
X14623150Y-14105985D01*
X14668881Y-14114602D01*
X14719062Y-14118819D01*
X14780549Y-14120248D01*
X14796224Y-14120348D01*
X14943098Y-14121050D01*
X15050268Y-14068011D01*
X15110986Y-14035372D01*
X15175044Y-13996810D01*
X15230429Y-13959636D01*
X15239944Y-13952606D01*
X15306306Y-13904633D01*
X15355933Y-13874018D01*
X15390145Y-13860255D01*
X15410265Y-13862841D01*
G37*
X15410265Y-13862841D02*
X15417613Y-13881268D01*
X15417700Y-13884616D01*
X15407147Y-13904283D01*
X15378278Y-13932906D01*
X15335270Y-13967648D01*
X15282304Y-14005676D01*
X15223559Y-14044154D01*
X15163216Y-14080245D01*
X15105453Y-14111116D01*
X15054450Y-14133930D01*
X15045061Y-14137406D01*
X15007494Y-14153704D01*
X14980168Y-14171047D01*
X14972735Y-14179234D01*
X14967026Y-14199097D01*
X14959383Y-14238570D01*
X14950785Y-14292030D01*
X14942210Y-14353855D01*
X14941803Y-14357034D01*
X14916299Y-14529054D01*
X14886366Y-14677509D01*
X14851425Y-14803943D01*
X14810899Y-14909900D01*
X14764209Y-14996920D01*
X14710776Y-15066548D01*
X14657887Y-15114531D01*
X14622717Y-15138558D01*
X14591460Y-15151069D01*
X14552611Y-15155651D01*
X14524537Y-15156089D01*
X14447615Y-15148711D01*
X14393139Y-15129839D01*
X14316890Y-15078691D01*
X14244960Y-15003266D01*
X14227921Y-14978170D01*
X14306450Y-14978170D01*
X14311679Y-14999719D01*
X14330402Y-15020734D01*
X14367173Y-15046014D01*
X14375738Y-15051195D01*
X14421923Y-15075950D01*
X14461698Y-15088389D01*
X14508338Y-15092250D01*
X14521788Y-15092317D01*
X14579834Y-15088176D01*
X14617877Y-15075656D01*
X14626076Y-15070092D01*
X14654210Y-15043887D01*
X14685251Y-15009402D01*
X14714075Y-14973114D01*
X14735555Y-14941500D01*
X14744567Y-14921038D01*
X14744600Y-14920303D01*
X14732942Y-14905395D01*
X14702090Y-14890942D01*
X14658227Y-14878488D01*
X14607535Y-14869576D01*
X14556197Y-14865750D01*
X14528865Y-14866447D01*
X14470923Y-14875657D01*
X14414449Y-14893244D01*
X14364868Y-14916483D01*
X14327606Y-14942648D01*
X14308088Y-14969014D01*
X14306450Y-14978170D01*
X14227921Y-14978170D01*
X14177830Y-14904394D01*
X14115979Y-14782906D01*
X14059888Y-14639634D01*
X14010037Y-14475408D01*
X14006014Y-14460167D01*
X13996545Y-14424898D01*
X14060762Y-14424898D01*
X14063544Y-14444070D01*
X14074316Y-14492482D01*
X14092807Y-14556729D01*
X14116518Y-14629390D01*
X14142952Y-14703044D01*
X14169611Y-14770272D01*
X14185379Y-14805950D01*
X14209065Y-14852831D01*
X14230260Y-14879315D01*
X14255205Y-14887497D01*
X14290146Y-14879475D01*
X14340113Y-14857906D01*
X14424243Y-14824622D01*
X14500226Y-14808606D01*
X14577343Y-14808645D01*
X14641701Y-14818523D01*
X14701801Y-14830525D01*
X14742011Y-14836093D01*
X14767460Y-14833184D01*
X14783273Y-14819758D01*
X14794579Y-14793773D01*
X14806506Y-14753188D01*
X14806596Y-14752875D01*
X14822926Y-14689537D01*
X14839358Y-14614766D01*
X14854345Y-14536811D01*
X14866338Y-14463922D01*
X14873791Y-14404352D01*
X14875058Y-14387865D01*
X14875702Y-14355556D01*
X14869265Y-14341818D01*
X14850696Y-14339905D01*
X14839850Y-14340834D01*
X14799187Y-14336819D01*
X14765435Y-14314104D01*
X14734720Y-14269738D01*
X14727079Y-14254953D01*
X14714893Y-14231988D01*
X14702690Y-14215970D01*
X14777120Y-14215970D01*
X14785017Y-14242067D01*
X14795688Y-14254688D01*
X14827243Y-14276584D01*
X14852982Y-14274170D01*
X14871784Y-14247560D01*
X14872005Y-14246984D01*
X14879320Y-14214551D01*
X14868255Y-14197042D01*
X14836103Y-14191026D01*
X14827759Y-14190900D01*
X14791953Y-14197750D01*
X14777120Y-14215970D01*
X14702690Y-14215970D01*
X14701630Y-14214580D01*
X14682674Y-14199861D01*
X14653412Y-14184964D01*
X14609230Y-14167022D01*
X14549647Y-14144698D01*
X14399144Y-14088975D01*
X14306333Y-14147768D01*
X14260171Y-14178056D01*
X14230203Y-14201995D01*
X14210652Y-14225973D01*
X14195737Y-14256382D01*
X14186751Y-14279985D01*
X14169456Y-14322572D01*
X14152346Y-14348322D01*
X14128989Y-14364921D01*
X14107848Y-14374268D01*
X14075763Y-14388470D01*
X14061912Y-14402440D01*
X14060762Y-14424898D01*
X13996545Y-14424898D01*
X13989979Y-14400448D01*
X13975203Y-14348502D01*
X13963352Y-14309996D01*
X13956214Y-14290819D01*
X13936766Y-14275688D01*
X14035992Y-14275688D01*
X14040653Y-14291976D01*
X14044959Y-14297475D01*
X14073760Y-14315861D01*
X14105614Y-14312673D01*
X14119760Y-14302660D01*
X14133180Y-14277178D01*
X14135000Y-14264560D01*
X14125085Y-14246972D01*
X14100631Y-14241718D01*
X14069572Y-14249293D01*
X14052181Y-14259375D01*
X14035992Y-14275688D01*
X13936766Y-14275688D01*
X13936712Y-14275646D01*
X13900659Y-14263827D01*
X13887583Y-14261448D01*
X13834909Y-14248465D01*
X13777040Y-14225935D01*
X13718183Y-14196586D01*
X13662543Y-14163150D01*
X13614330Y-14128355D01*
X13577748Y-14094932D01*
X13557006Y-14065611D01*
X13555071Y-14045687D01*
X13566310Y-14030062D01*
X13585010Y-14028709D01*
X13614435Y-14042703D01*
X13657848Y-14073117D01*
X13672405Y-14084293D01*
X13720334Y-14119104D01*
X13771190Y-14152250D01*
X13810390Y-14174631D01*
X13844640Y-14190470D01*
X13875416Y-14199416D01*
X13911360Y-14202797D01*
X13961113Y-14201939D01*
X13981840Y-14200962D01*
X14043866Y-14195680D01*
X14096482Y-14185050D01*
X14146106Y-14166423D01*
X14199156Y-14137148D01*
X14262051Y-14094576D01*
X14291707Y-14073005D01*
X14378565Y-14009016D01*
X14444107Y-14037642D01*
X14517619Y-14069116D01*
X14575015Y-14091360D01*
X14623150Y-14105985D01*
X14668881Y-14114602D01*
X14719062Y-14118819D01*
X14780549Y-14120248D01*
X14796224Y-14120348D01*
X14943098Y-14121050D01*
X15050268Y-14068011D01*
X15110986Y-14035372D01*
X15175044Y-13996810D01*
X15230429Y-13959636D01*
X15239944Y-13952606D01*
X15306306Y-13904633D01*
X15355933Y-13874018D01*
X15390145Y-13860255D01*
X15410265Y-13862841D01*
G36*
X13237604Y-12168998D02*
G01*
X13256510Y-12172031D01*
X13345708Y-12204524D01*
X13436235Y-12258958D01*
X13525429Y-12332187D01*
X13610630Y-12421068D01*
X13689175Y-12522455D01*
X13758403Y-12633205D01*
X13815653Y-12750172D01*
X13858264Y-12870213D01*
X13863455Y-12889150D01*
X13874261Y-12947211D01*
X13882102Y-13023774D01*
X13886964Y-13112675D01*
X13888832Y-13207745D01*
X13887691Y-13302820D01*
X13883526Y-13391732D01*
X13876322Y-13468315D01*
X13866064Y-13526404D01*
X13864995Y-13530500D01*
X13818324Y-13662333D01*
X13754500Y-13778860D01*
X13675016Y-13878144D01*
X13581363Y-13958246D01*
X13498489Y-14006620D01*
X13452502Y-14027762D01*
X13416143Y-14040829D01*
X13380330Y-14047666D01*
X13335980Y-14050119D01*
X13284458Y-14050135D01*
X13221447Y-14047925D01*
X13158765Y-14042960D01*
X13107082Y-14036169D01*
X13093600Y-14033540D01*
X13003014Y-14003041D01*
X12908742Y-13953008D01*
X12816150Y-13887638D01*
X12730605Y-13811128D01*
X12657475Y-13727676D01*
X12609324Y-13654846D01*
X12580041Y-13606487D01*
X12547825Y-13559420D01*
X12525164Y-13530466D01*
X12487137Y-13476039D01*
X12447631Y-13400128D01*
X12408144Y-13306477D01*
X12370171Y-13198827D01*
X12335209Y-13080921D01*
X12317017Y-13009800D01*
X12307791Y-12960626D01*
X12299692Y-12896746D01*
X12292856Y-12822356D01*
X12287419Y-12741653D01*
X12283515Y-12658833D01*
X12281282Y-12578091D01*
X12280854Y-12503625D01*
X12282367Y-12439631D01*
X12282568Y-12436862D01*
X12348691Y-12436862D01*
X12353249Y-12580456D01*
X12360432Y-12727090D01*
X12372946Y-12859242D01*
X12392226Y-12987532D01*
X12419706Y-13122576D01*
X12435710Y-13190775D01*
X12452660Y-13260148D01*
X12467505Y-13320050D01*
X12479244Y-13366499D01*
X12486870Y-13395513D01*
X12489352Y-13403500D01*
X12489949Y-13391445D01*
X12490422Y-13357867D01*
X12490750Y-13306639D01*
X12490907Y-13241637D01*
X12490870Y-13166737D01*
X12490855Y-13159025D01*
X12490892Y-13092049D01*
X12540840Y-13092049D01*
X12546400Y-13245435D01*
X12572292Y-13391283D01*
X12618244Y-13526429D01*
X12664076Y-13616133D01*
X12732661Y-13713042D01*
X12816296Y-13801703D01*
X12910182Y-13878409D01*
X13009520Y-13939453D01*
X13109511Y-13981130D01*
X13150750Y-13992010D01*
X13196333Y-13997361D01*
X13256622Y-13998659D01*
X13321284Y-13996140D01*
X13379988Y-13990037D01*
X13400949Y-13986343D01*
X13451863Y-13974004D01*
X13478121Y-13963094D01*
X13479555Y-13953180D01*
X13455998Y-13943833D01*
X13407284Y-13934621D01*
X13379350Y-13930698D01*
X13295554Y-13911046D01*
X13216512Y-13873453D01*
X13137750Y-13815433D01*
X13087692Y-13768710D01*
X13029791Y-13706262D01*
X12984795Y-13645627D01*
X12948510Y-13579509D01*
X12916741Y-13500611D01*
X12894617Y-13432804D01*
X12881993Y-13389595D01*
X12872885Y-13351605D01*
X12866709Y-13313226D01*
X12862878Y-13268851D01*
X12860808Y-13212872D01*
X12859912Y-13139682D01*
X12859807Y-13115307D01*
X12907583Y-13115307D01*
X12918298Y-13253113D01*
X12945318Y-13394571D01*
X12948647Y-13407699D01*
X12993919Y-13536375D01*
X13058844Y-13650423D01*
X13142313Y-13748154D01*
X13209280Y-13804563D01*
X13286199Y-13848626D01*
X13370917Y-13876092D01*
X13457032Y-13885984D01*
X13538143Y-13877327D01*
X13584130Y-13861755D01*
X13628224Y-13831510D01*
X13674708Y-13782213D01*
X13719590Y-13719398D01*
X13758877Y-13648599D01*
X13786630Y-13581208D01*
X13818395Y-13458492D01*
X13836660Y-13321335D01*
X13840529Y-13177347D01*
X13838908Y-13136800D01*
X13823197Y-12994430D01*
X13793053Y-12864407D01*
X13749541Y-12748912D01*
X13693724Y-12650128D01*
X13626668Y-12570237D01*
X13549436Y-12511423D01*
X13528383Y-12500130D01*
X13494209Y-12485413D01*
X13459349Y-12476390D01*
X13415948Y-12471775D01*
X13356154Y-12470280D01*
X13346036Y-12470247D01*
X13287777Y-12470736D01*
X13248033Y-12473342D01*
X13219930Y-12479433D01*
X13196593Y-12490380D01*
X13175922Y-12504131D01*
X13117101Y-12555766D01*
X13057927Y-12625165D01*
X13003857Y-12705365D01*
X12971797Y-12764555D01*
X12934479Y-12866953D01*
X12913025Y-12985229D01*
X12907583Y-13115307D01*
X12859807Y-13115307D01*
X12859734Y-13098700D01*
X12859770Y-13015940D01*
X12860770Y-12953658D01*
X12863191Y-12906938D01*
X12867491Y-12870864D01*
X12874126Y-12840518D01*
X12883553Y-12810984D01*
X12887478Y-12800250D01*
X12926095Y-12717074D01*
X12978021Y-12634497D01*
X13038903Y-12557627D01*
X13104393Y-12491572D01*
X13170139Y-12441439D01*
X13211792Y-12419458D01*
X13262310Y-12406479D01*
X13326886Y-12401186D01*
X13395302Y-12403804D01*
X13455550Y-12414086D01*
X13496762Y-12424616D01*
X13533034Y-12433497D01*
X13538100Y-12434681D01*
X13569850Y-12441995D01*
X13544450Y-12413036D01*
X13504764Y-12374682D01*
X13452294Y-12333204D01*
X13394651Y-12293790D01*
X13339446Y-12261626D01*
X13294293Y-12241897D01*
X13292447Y-12241334D01*
X13243877Y-12231004D01*
X13185126Y-12224127D01*
X13144123Y-12222399D01*
X13064159Y-12231028D01*
X12987094Y-12258080D01*
X12909482Y-12305306D01*
X12827876Y-12374454D01*
X12809570Y-12392261D01*
X12733787Y-12477955D01*
X12673131Y-12571339D01*
X12624093Y-12678586D01*
X12591802Y-12775322D01*
X12555883Y-12934290D01*
X12540840Y-13092049D01*
X12490892Y-13092049D01*
X12490903Y-13072161D01*
X12491782Y-13005398D01*
X12493983Y-12953440D01*
X12497996Y-12910990D01*
X12504312Y-12872752D01*
X12513421Y-12833429D01*
X12524963Y-12790764D01*
X12564700Y-12667882D01*
X12611148Y-12563581D01*
X12667891Y-12471234D01*
X12738510Y-12384215D01*
X12753555Y-12367987D01*
X12792035Y-12326120D01*
X12822224Y-12291114D01*
X12840874Y-12266888D01*
X12845117Y-12257550D01*
X12831241Y-12258701D01*
X12797996Y-12266527D01*
X12750146Y-12279777D01*
X12692454Y-12297199D01*
X12683511Y-12300011D01*
X12619070Y-12320089D01*
X12558277Y-12338517D01*
X12507980Y-12353252D01*
X12475052Y-12362242D01*
X12431195Y-12378412D01*
X12391274Y-12401392D01*
X12385173Y-12406165D01*
X12348691Y-12436862D01*
X12282568Y-12436862D01*
X12285957Y-12390304D01*
X12291759Y-12359841D01*
X12295778Y-12352778D01*
X12315012Y-12342701D01*
X12352293Y-12327585D01*
X12401391Y-12309859D01*
X12433675Y-12299063D01*
X12517436Y-12274449D01*
X12612432Y-12250856D01*
X12714445Y-12228934D01*
X12819256Y-12209336D01*
X12922646Y-12192713D01*
X13020394Y-12179717D01*
X13108283Y-12170998D01*
X13182092Y-12167208D01*
X13237604Y-12168998D01*
G37*
X13237604Y-12168998D02*
X13256510Y-12172031D01*
X13345708Y-12204524D01*
X13436235Y-12258958D01*
X13525429Y-12332187D01*
X13610630Y-12421068D01*
X13689175Y-12522455D01*
X13758403Y-12633205D01*
X13815653Y-12750172D01*
X13858264Y-12870213D01*
X13863455Y-12889150D01*
X13874261Y-12947211D01*
X13882102Y-13023774D01*
X13886964Y-13112675D01*
X13888832Y-13207745D01*
X13887691Y-13302820D01*
X13883526Y-13391732D01*
X13876322Y-13468315D01*
X13866064Y-13526404D01*
X13864995Y-13530500D01*
X13818324Y-13662333D01*
X13754500Y-13778860D01*
X13675016Y-13878144D01*
X13581363Y-13958246D01*
X13498489Y-14006620D01*
X13452502Y-14027762D01*
X13416143Y-14040829D01*
X13380330Y-14047666D01*
X13335980Y-14050119D01*
X13284458Y-14050135D01*
X13221447Y-14047925D01*
X13158765Y-14042960D01*
X13107082Y-14036169D01*
X13093600Y-14033540D01*
X13003014Y-14003041D01*
X12908742Y-13953008D01*
X12816150Y-13887638D01*
X12730605Y-13811128D01*
X12657475Y-13727676D01*
X12609324Y-13654846D01*
X12580041Y-13606487D01*
X12547825Y-13559420D01*
X12525164Y-13530466D01*
X12487137Y-13476039D01*
X12447631Y-13400128D01*
X12408144Y-13306477D01*
X12370171Y-13198827D01*
X12335209Y-13080921D01*
X12317017Y-13009800D01*
X12307791Y-12960626D01*
X12299692Y-12896746D01*
X12292856Y-12822356D01*
X12287419Y-12741653D01*
X12283515Y-12658833D01*
X12281282Y-12578091D01*
X12280854Y-12503625D01*
X12282367Y-12439631D01*
X12282568Y-12436862D01*
X12348691Y-12436862D01*
X12353249Y-12580456D01*
X12360432Y-12727090D01*
X12372946Y-12859242D01*
X12392226Y-12987532D01*
X12419706Y-13122576D01*
X12435710Y-13190775D01*
X12452660Y-13260148D01*
X12467505Y-13320050D01*
X12479244Y-13366499D01*
X12486870Y-13395513D01*
X12489352Y-13403500D01*
X12489949Y-13391445D01*
X12490422Y-13357867D01*
X12490750Y-13306639D01*
X12490907Y-13241637D01*
X12490870Y-13166737D01*
X12490855Y-13159025D01*
X12490892Y-13092049D01*
X12540840Y-13092049D01*
X12546400Y-13245435D01*
X12572292Y-13391283D01*
X12618244Y-13526429D01*
X12664076Y-13616133D01*
X12732661Y-13713042D01*
X12816296Y-13801703D01*
X12910182Y-13878409D01*
X13009520Y-13939453D01*
X13109511Y-13981130D01*
X13150750Y-13992010D01*
X13196333Y-13997361D01*
X13256622Y-13998659D01*
X13321284Y-13996140D01*
X13379988Y-13990037D01*
X13400949Y-13986343D01*
X13451863Y-13974004D01*
X13478121Y-13963094D01*
X13479555Y-13953180D01*
X13455998Y-13943833D01*
X13407284Y-13934621D01*
X13379350Y-13930698D01*
X13295554Y-13911046D01*
X13216512Y-13873453D01*
X13137750Y-13815433D01*
X13087692Y-13768710D01*
X13029791Y-13706262D01*
X12984795Y-13645627D01*
X12948510Y-13579509D01*
X12916741Y-13500611D01*
X12894617Y-13432804D01*
X12881993Y-13389595D01*
X12872885Y-13351605D01*
X12866709Y-13313226D01*
X12862878Y-13268851D01*
X12860808Y-13212872D01*
X12859912Y-13139682D01*
X12859807Y-13115307D01*
X12907583Y-13115307D01*
X12918298Y-13253113D01*
X12945318Y-13394571D01*
X12948647Y-13407699D01*
X12993919Y-13536375D01*
X13058844Y-13650423D01*
X13142313Y-13748154D01*
X13209280Y-13804563D01*
X13286199Y-13848626D01*
X13370917Y-13876092D01*
X13457032Y-13885984D01*
X13538143Y-13877327D01*
X13584130Y-13861755D01*
X13628224Y-13831510D01*
X13674708Y-13782213D01*
X13719590Y-13719398D01*
X13758877Y-13648599D01*
X13786630Y-13581208D01*
X13818395Y-13458492D01*
X13836660Y-13321335D01*
X13840529Y-13177347D01*
X13838908Y-13136800D01*
X13823197Y-12994430D01*
X13793053Y-12864407D01*
X13749541Y-12748912D01*
X13693724Y-12650128D01*
X13626668Y-12570237D01*
X13549436Y-12511423D01*
X13528383Y-12500130D01*
X13494209Y-12485413D01*
X13459349Y-12476390D01*
X13415948Y-12471775D01*
X13356154Y-12470280D01*
X13346036Y-12470247D01*
X13287777Y-12470736D01*
X13248033Y-12473342D01*
X13219930Y-12479433D01*
X13196593Y-12490380D01*
X13175922Y-12504131D01*
X13117101Y-12555766D01*
X13057927Y-12625165D01*
X13003857Y-12705365D01*
X12971797Y-12764555D01*
X12934479Y-12866953D01*
X12913025Y-12985229D01*
X12907583Y-13115307D01*
X12859807Y-13115307D01*
X12859734Y-13098700D01*
X12859770Y-13015940D01*
X12860770Y-12953658D01*
X12863191Y-12906938D01*
X12867491Y-12870864D01*
X12874126Y-12840518D01*
X12883553Y-12810984D01*
X12887478Y-12800250D01*
X12926095Y-12717074D01*
X12978021Y-12634497D01*
X13038903Y-12557627D01*
X13104393Y-12491572D01*
X13170139Y-12441439D01*
X13211792Y-12419458D01*
X13262310Y-12406479D01*
X13326886Y-12401186D01*
X13395302Y-12403804D01*
X13455550Y-12414086D01*
X13496762Y-12424616D01*
X13533034Y-12433497D01*
X13538100Y-12434681D01*
X13569850Y-12441995D01*
X13544450Y-12413036D01*
X13504764Y-12374682D01*
X13452294Y-12333204D01*
X13394651Y-12293790D01*
X13339446Y-12261626D01*
X13294293Y-12241897D01*
X13292447Y-12241334D01*
X13243877Y-12231004D01*
X13185126Y-12224127D01*
X13144123Y-12222399D01*
X13064159Y-12231028D01*
X12987094Y-12258080D01*
X12909482Y-12305306D01*
X12827876Y-12374454D01*
X12809570Y-12392261D01*
X12733787Y-12477955D01*
X12673131Y-12571339D01*
X12624093Y-12678586D01*
X12591802Y-12775322D01*
X12555883Y-12934290D01*
X12540840Y-13092049D01*
X12490892Y-13092049D01*
X12490903Y-13072161D01*
X12491782Y-13005398D01*
X12493983Y-12953440D01*
X12497996Y-12910990D01*
X12504312Y-12872752D01*
X12513421Y-12833429D01*
X12524963Y-12790764D01*
X12564700Y-12667882D01*
X12611148Y-12563581D01*
X12667891Y-12471234D01*
X12738510Y-12384215D01*
X12753555Y-12367987D01*
X12792035Y-12326120D01*
X12822224Y-12291114D01*
X12840874Y-12266888D01*
X12845117Y-12257550D01*
X12831241Y-12258701D01*
X12797996Y-12266527D01*
X12750146Y-12279777D01*
X12692454Y-12297199D01*
X12683511Y-12300011D01*
X12619070Y-12320089D01*
X12558277Y-12338517D01*
X12507980Y-12353252D01*
X12475052Y-12362242D01*
X12431195Y-12378412D01*
X12391274Y-12401392D01*
X12385173Y-12406165D01*
X12348691Y-12436862D01*
X12282568Y-12436862D01*
X12285957Y-12390304D01*
X12291759Y-12359841D01*
X12295778Y-12352778D01*
X12315012Y-12342701D01*
X12352293Y-12327585D01*
X12401391Y-12309859D01*
X12433675Y-12299063D01*
X12517436Y-12274449D01*
X12612432Y-12250856D01*
X12714445Y-12228934D01*
X12819256Y-12209336D01*
X12922646Y-12192713D01*
X13020394Y-12179717D01*
X13108283Y-12170998D01*
X13182092Y-12167208D01*
X13237604Y-12168998D01*
G36*
X15976500Y-12051899D02*
G01*
X16186050Y-12052849D01*
X16361805Y-12112768D01*
X16455729Y-12146453D01*
X16551135Y-12183676D01*
X16644648Y-12222843D01*
X16732897Y-12262359D01*
X16812507Y-12300631D01*
X16880105Y-12336066D01*
X16932318Y-12367068D01*
X16965772Y-12392045D01*
X16974821Y-12402419D01*
X16982969Y-12430217D01*
X16982752Y-12474958D01*
X16973932Y-12538134D01*
X16956269Y-12621232D01*
X16929525Y-12725743D01*
X16914170Y-12781200D01*
X16857359Y-12962652D01*
X16794337Y-13127303D01*
X16726113Y-13272979D01*
X16653694Y-13397508D01*
X16584895Y-13490743D01*
X16521288Y-13560808D01*
X16452399Y-13627273D01*
X16382961Y-13686198D01*
X16317707Y-13733646D01*
X16261370Y-13765678D01*
X16247470Y-13771487D01*
X16197952Y-13791658D01*
X16140819Y-13817279D01*
X16102112Y-13836000D01*
X15972099Y-13888149D01*
X15837836Y-13916099D01*
X15701995Y-13919424D01*
X15629396Y-13910911D01*
X15566924Y-13897184D01*
X15496584Y-13876857D01*
X15431656Y-13853964D01*
X15405970Y-13843089D01*
X15369652Y-13816674D01*
X15328148Y-13770552D01*
X15297828Y-13728253D01*
X15381833Y-13728253D01*
X15384619Y-13742664D01*
X15390199Y-13750219D01*
X15415333Y-13770280D01*
X15457557Y-13794107D01*
X15509578Y-13818345D01*
X15564107Y-13839638D01*
X15613851Y-13854631D01*
X15620281Y-13856093D01*
X15716351Y-13870425D01*
X15806605Y-13868964D01*
X15863641Y-13860632D01*
X15940536Y-13840425D01*
X16012983Y-13808030D01*
X16085601Y-13760624D01*
X16140051Y-13714738D01*
X16255900Y-13714738D01*
X16263835Y-13718050D01*
X16287611Y-13701586D01*
X16327179Y-13665389D01*
X16382491Y-13609502D01*
X16427350Y-13562117D01*
X16509228Y-13468877D01*
X16580233Y-13374781D01*
X16642739Y-13275434D01*
X16699118Y-13166441D01*
X16751746Y-13043408D01*
X16802995Y-12901940D01*
X16832003Y-12812950D01*
X16864254Y-12705467D01*
X16886541Y-12618443D01*
X16899457Y-12549236D01*
X16903600Y-12495471D01*
X16899666Y-12468701D01*
X16885816Y-12444065D01*
X16858978Y-12418956D01*
X16816078Y-12390768D01*
X16754044Y-12356896D01*
X16719450Y-12339296D01*
X16657044Y-12307086D01*
X16586879Y-12269488D01*
X16523045Y-12234067D01*
X16516784Y-12230496D01*
X16472089Y-12205687D01*
X16436380Y-12187322D01*
X16414790Y-12177969D01*
X16410864Y-12177502D01*
X16415390Y-12189255D01*
X16431926Y-12215383D01*
X16456725Y-12250003D01*
X16496232Y-12310165D01*
X16533448Y-12383351D01*
X16570579Y-12474217D01*
X16593986Y-12539900D01*
X16603062Y-12570536D01*
X16609544Y-12604164D01*
X16613813Y-12645565D01*
X16616250Y-12699519D01*
X16617236Y-12770810D01*
X16617272Y-12832000D01*
X16616816Y-12914024D01*
X16615536Y-12976096D01*
X16612835Y-13023660D01*
X16608115Y-13062163D01*
X16600778Y-13097050D01*
X16590227Y-13133768D01*
X16581030Y-13162200D01*
X16514902Y-13326083D01*
X16428762Y-13480976D01*
X16344535Y-13598014D01*
X16308916Y-13642652D01*
X16280131Y-13679880D01*
X16261433Y-13705415D01*
X16255900Y-13714738D01*
X16140051Y-13714738D01*
X16163014Y-13695387D01*
X16212656Y-13647542D01*
X16283835Y-13573637D01*
X16340479Y-13507343D01*
X16386995Y-13441924D01*
X16427789Y-13370648D01*
X16467268Y-13286779D01*
X16499799Y-13208746D01*
X16567050Y-13041550D01*
X16566296Y-12870100D01*
X16565092Y-12790943D01*
X16561592Y-12728404D01*
X16554769Y-12673732D01*
X16543596Y-12618178D01*
X16530714Y-12566755D01*
X16512766Y-12504277D01*
X16492901Y-12443810D01*
X16474109Y-12394113D01*
X16464689Y-12373298D01*
X16430226Y-12318946D01*
X16382285Y-12261117D01*
X16327326Y-12206267D01*
X16271808Y-12160852D01*
X16222886Y-12131632D01*
X16173440Y-12116475D01*
X16106763Y-12105108D01*
X16030807Y-12098026D01*
X15953527Y-12095726D01*
X15882876Y-12098700D01*
X15828246Y-12107083D01*
X15787207Y-12120357D01*
X15733241Y-12141970D01*
X15673824Y-12168453D01*
X15616430Y-12196340D01*
X15568535Y-12222163D01*
X15539277Y-12241124D01*
X15520406Y-12258995D01*
X15522501Y-12265922D01*
X15543698Y-12262097D01*
X15582134Y-12247716D01*
X15614457Y-12233279D01*
X15707598Y-12201019D01*
X15797329Y-12193549D01*
X15885020Y-12211034D01*
X15972044Y-12253641D01*
X16012056Y-12281592D01*
X16047828Y-12316646D01*
X16088331Y-12368572D01*
X16129115Y-12430561D01*
X16165729Y-12495802D01*
X16193722Y-12557487D01*
X16195563Y-12562351D01*
X16205805Y-12592895D01*
X16213164Y-12624081D01*
X16218121Y-12660901D01*
X16221157Y-12708350D01*
X16222753Y-12771420D01*
X16223376Y-12851050D01*
X16223313Y-12933716D01*
X16222112Y-12996444D01*
X16219268Y-13044688D01*
X16214277Y-13083902D01*
X16206635Y-13119540D01*
X16195838Y-13157056D01*
X16194776Y-13160450D01*
X16137903Y-13312098D01*
X16068840Y-13444843D01*
X15988474Y-13557471D01*
X15897688Y-13648770D01*
X15797369Y-13717529D01*
X15782168Y-13725513D01*
X15747238Y-13741623D01*
X15714751Y-13751629D01*
X15676783Y-13756926D01*
X15625407Y-13758912D01*
X15591512Y-13759100D01*
X15518717Y-13757233D01*
X15466923Y-13751296D01*
X15431984Y-13740779D01*
X15428589Y-13739113D01*
X15397503Y-13726777D01*
X15381833Y-13728253D01*
X15297828Y-13728253D01*
X15284146Y-13709167D01*
X15240331Y-13636962D01*
X15199390Y-13558380D01*
X15164011Y-13477864D01*
X15136879Y-13399858D01*
X15135882Y-13396431D01*
X15116903Y-13305173D01*
X15106515Y-13198517D01*
X15104878Y-13095470D01*
X15166538Y-13095470D01*
X15173406Y-13236492D01*
X15197405Y-13369324D01*
X15238520Y-13489277D01*
X15252022Y-13517800D01*
X15300874Y-13593101D01*
X15362186Y-13648353D01*
X15437753Y-13684478D01*
X15529370Y-13702399D01*
X15614707Y-13704276D01*
X15674051Y-13700292D01*
X15718571Y-13691915D01*
X15758773Y-13676615D01*
X15784481Y-13663450D01*
X15858283Y-13611102D01*
X15930113Y-13537045D01*
X15997544Y-13444966D01*
X16058150Y-13338551D01*
X16109503Y-13221488D01*
X16143678Y-13117750D01*
X16164034Y-13018044D01*
X16173740Y-12907845D01*
X16172800Y-12795926D01*
X16161212Y-12691059D01*
X16143646Y-12616100D01*
X16098911Y-12500062D01*
X16044192Y-12405467D01*
X15980307Y-12332895D01*
X15908076Y-12282927D01*
X15828318Y-12256141D01*
X15741850Y-12253119D01*
X15657450Y-12271700D01*
X15609597Y-12289379D01*
X15566708Y-12308114D01*
X15541911Y-12321537D01*
X15507373Y-12344319D01*
X15549024Y-12344319D01*
X15611397Y-12354088D01*
X15661582Y-12381175D01*
X15695645Y-12422258D01*
X15709652Y-12474009D01*
X15709800Y-12480224D01*
X15717008Y-12528675D01*
X15735301Y-12580235D01*
X15759678Y-12620992D01*
X15760926Y-12622450D01*
X15799389Y-12680848D01*
X15830426Y-12756990D01*
X15850705Y-12841455D01*
X15857868Y-12896679D01*
X15857851Y-12943050D01*
X15850177Y-12994067D01*
X15844355Y-13021008D01*
X15814030Y-13132762D01*
X15777715Y-13223421D01*
X15733024Y-13297029D01*
X15677574Y-13357635D01*
X15619661Y-13402309D01*
X15572568Y-13431476D01*
X15535820Y-13447454D01*
X15500508Y-13453618D01*
X15482927Y-13454091D01*
X15411776Y-13442204D01*
X15350959Y-13407613D01*
X15301165Y-13351108D01*
X15263081Y-13273481D01*
X15237394Y-13175525D01*
X15236491Y-13170363D01*
X15233660Y-13149985D01*
X15317133Y-13149985D01*
X15319385Y-13209576D01*
X15327107Y-13253901D01*
X15341621Y-13287948D01*
X15364245Y-13316708D01*
X15390601Y-13340524D01*
X15439364Y-13370049D01*
X15489696Y-13376715D01*
X15547642Y-13361286D01*
X15549369Y-13360570D01*
X15612543Y-13321225D01*
X15668001Y-13261851D01*
X15714206Y-13187054D01*
X15749624Y-13101439D01*
X15772720Y-13009615D01*
X15781959Y-12916187D01*
X15775805Y-12825762D01*
X15754080Y-12746275D01*
X15735253Y-12708493D01*
X15716309Y-12694706D01*
X15693238Y-12703812D01*
X15672046Y-12723681D01*
X15630800Y-12754932D01*
X15574585Y-12774909D01*
X15499683Y-12784727D01*
X15463615Y-12786060D01*
X15374075Y-12787550D01*
X15349552Y-12851050D01*
X15336366Y-12895732D01*
X15327049Y-12953587D01*
X15320908Y-13029588D01*
X15319031Y-13070142D01*
X15317133Y-13149985D01*
X15233660Y-13149985D01*
X15229720Y-13121627D01*
X15228608Y-13079004D01*
X15233566Y-13032140D01*
X15244301Y-12974127D01*
X15258369Y-12914339D01*
X15275364Y-12855335D01*
X15292076Y-12808038D01*
X15295414Y-12800250D01*
X15314471Y-12745905D01*
X15315462Y-12706852D01*
X15314971Y-12705000D01*
X15307947Y-12668521D01*
X15304665Y-12631975D01*
X15300568Y-12600401D01*
X15290979Y-12593620D01*
X15275905Y-12611625D01*
X15255356Y-12654411D01*
X15248897Y-12670143D01*
X15204266Y-12807606D01*
X15176819Y-12950945D01*
X15166538Y-13095470D01*
X15104878Y-13095470D01*
X15104711Y-13084962D01*
X15111488Y-12973012D01*
X15126838Y-12871168D01*
X15136238Y-12832000D01*
X15169410Y-12731297D01*
X15214325Y-12623081D01*
X15237649Y-12575729D01*
X15367094Y-12575729D01*
X15369270Y-12611752D01*
X15378972Y-12636641D01*
X15401526Y-12660096D01*
X15422587Y-12676862D01*
X15469079Y-12699105D01*
X15522792Y-12705022D01*
X15573583Y-12694406D01*
X15597868Y-12680462D01*
X15629975Y-12641581D01*
X15650023Y-12589863D01*
X15656897Y-12533582D01*
X15649479Y-12481011D01*
X15629805Y-12443875D01*
X15612680Y-12425411D01*
X15596937Y-12416801D01*
X15574511Y-12416707D01*
X15537336Y-12423788D01*
X15525030Y-12426471D01*
X15456791Y-12450064D01*
X15406061Y-12485904D01*
X15375420Y-12531554D01*
X15367094Y-12575729D01*
X15237649Y-12575729D01*
X15266220Y-12517726D01*
X15320333Y-12425602D01*
X15328490Y-12413355D01*
X15398701Y-12323473D01*
X15482932Y-12237395D01*
X15574771Y-12160714D01*
X15667803Y-12099023D01*
X15719199Y-12072579D01*
X15742258Y-12064164D01*
X15771209Y-12058233D01*
X15810443Y-12054431D01*
X15864352Y-12052405D01*
X15937325Y-12051804D01*
X15976500Y-12051899D01*
G37*
X15976500Y-12051899D02*
X16186050Y-12052849D01*
X16361805Y-12112768D01*
X16455729Y-12146453D01*
X16551135Y-12183676D01*
X16644648Y-12222843D01*
X16732897Y-12262359D01*
X16812507Y-12300631D01*
X16880105Y-12336066D01*
X16932318Y-12367068D01*
X16965772Y-12392045D01*
X16974821Y-12402419D01*
X16982969Y-12430217D01*
X16982752Y-12474958D01*
X16973932Y-12538134D01*
X16956269Y-12621232D01*
X16929525Y-12725743D01*
X16914170Y-12781200D01*
X16857359Y-12962652D01*
X16794337Y-13127303D01*
X16726113Y-13272979D01*
X16653694Y-13397508D01*
X16584895Y-13490743D01*
X16521288Y-13560808D01*
X16452399Y-13627273D01*
X16382961Y-13686198D01*
X16317707Y-13733646D01*
X16261370Y-13765678D01*
X16247470Y-13771487D01*
X16197952Y-13791658D01*
X16140819Y-13817279D01*
X16102112Y-13836000D01*
X15972099Y-13888149D01*
X15837836Y-13916099D01*
X15701995Y-13919424D01*
X15629396Y-13910911D01*
X15566924Y-13897184D01*
X15496584Y-13876857D01*
X15431656Y-13853964D01*
X15405970Y-13843089D01*
X15369652Y-13816674D01*
X15328148Y-13770552D01*
X15297828Y-13728253D01*
X15381833Y-13728253D01*
X15384619Y-13742664D01*
X15390199Y-13750219D01*
X15415333Y-13770280D01*
X15457557Y-13794107D01*
X15509578Y-13818345D01*
X15564107Y-13839638D01*
X15613851Y-13854631D01*
X15620281Y-13856093D01*
X15716351Y-13870425D01*
X15806605Y-13868964D01*
X15863641Y-13860632D01*
X15940536Y-13840425D01*
X16012983Y-13808030D01*
X16085601Y-13760624D01*
X16140051Y-13714738D01*
X16255900Y-13714738D01*
X16263835Y-13718050D01*
X16287611Y-13701586D01*
X16327179Y-13665389D01*
X16382491Y-13609502D01*
X16427350Y-13562117D01*
X16509228Y-13468877D01*
X16580233Y-13374781D01*
X16642739Y-13275434D01*
X16699118Y-13166441D01*
X16751746Y-13043408D01*
X16802995Y-12901940D01*
X16832003Y-12812950D01*
X16864254Y-12705467D01*
X16886541Y-12618443D01*
X16899457Y-12549236D01*
X16903600Y-12495471D01*
X16899666Y-12468701D01*
X16885816Y-12444065D01*
X16858978Y-12418956D01*
X16816078Y-12390768D01*
X16754044Y-12356896D01*
X16719450Y-12339296D01*
X16657044Y-12307086D01*
X16586879Y-12269488D01*
X16523045Y-12234067D01*
X16516784Y-12230496D01*
X16472089Y-12205687D01*
X16436380Y-12187322D01*
X16414790Y-12177969D01*
X16410864Y-12177502D01*
X16415390Y-12189255D01*
X16431926Y-12215383D01*
X16456725Y-12250003D01*
X16496232Y-12310165D01*
X16533448Y-12383351D01*
X16570579Y-12474217D01*
X16593986Y-12539900D01*
X16603062Y-12570536D01*
X16609544Y-12604164D01*
X16613813Y-12645565D01*
X16616250Y-12699519D01*
X16617236Y-12770810D01*
X16617272Y-12832000D01*
X16616816Y-12914024D01*
X16615536Y-12976096D01*
X16612835Y-13023660D01*
X16608115Y-13062163D01*
X16600778Y-13097050D01*
X16590227Y-13133768D01*
X16581030Y-13162200D01*
X16514902Y-13326083D01*
X16428762Y-13480976D01*
X16344535Y-13598014D01*
X16308916Y-13642652D01*
X16280131Y-13679880D01*
X16261433Y-13705415D01*
X16255900Y-13714738D01*
X16140051Y-13714738D01*
X16163014Y-13695387D01*
X16212656Y-13647542D01*
X16283835Y-13573637D01*
X16340479Y-13507343D01*
X16386995Y-13441924D01*
X16427789Y-13370648D01*
X16467268Y-13286779D01*
X16499799Y-13208746D01*
X16567050Y-13041550D01*
X16566296Y-12870100D01*
X16565092Y-12790943D01*
X16561592Y-12728404D01*
X16554769Y-12673732D01*
X16543596Y-12618178D01*
X16530714Y-12566755D01*
X16512766Y-12504277D01*
X16492901Y-12443810D01*
X16474109Y-12394113D01*
X16464689Y-12373298D01*
X16430226Y-12318946D01*
X16382285Y-12261117D01*
X16327326Y-12206267D01*
X16271808Y-12160852D01*
X16222886Y-12131632D01*
X16173440Y-12116475D01*
X16106763Y-12105108D01*
X16030807Y-12098026D01*
X15953527Y-12095726D01*
X15882876Y-12098700D01*
X15828246Y-12107083D01*
X15787207Y-12120357D01*
X15733241Y-12141970D01*
X15673824Y-12168453D01*
X15616430Y-12196340D01*
X15568535Y-12222163D01*
X15539277Y-12241124D01*
X15520406Y-12258995D01*
X15522501Y-12265922D01*
X15543698Y-12262097D01*
X15582134Y-12247716D01*
X15614457Y-12233279D01*
X15707598Y-12201019D01*
X15797329Y-12193549D01*
X15885020Y-12211034D01*
X15972044Y-12253641D01*
X16012056Y-12281592D01*
X16047828Y-12316646D01*
X16088331Y-12368572D01*
X16129115Y-12430561D01*
X16165729Y-12495802D01*
X16193722Y-12557487D01*
X16195563Y-12562351D01*
X16205805Y-12592895D01*
X16213164Y-12624081D01*
X16218121Y-12660901D01*
X16221157Y-12708350D01*
X16222753Y-12771420D01*
X16223376Y-12851050D01*
X16223313Y-12933716D01*
X16222112Y-12996444D01*
X16219268Y-13044688D01*
X16214277Y-13083902D01*
X16206635Y-13119540D01*
X16195838Y-13157056D01*
X16194776Y-13160450D01*
X16137903Y-13312098D01*
X16068840Y-13444843D01*
X15988474Y-13557471D01*
X15897688Y-13648770D01*
X15797369Y-13717529D01*
X15782168Y-13725513D01*
X15747238Y-13741623D01*
X15714751Y-13751629D01*
X15676783Y-13756926D01*
X15625407Y-13758912D01*
X15591512Y-13759100D01*
X15518717Y-13757233D01*
X15466923Y-13751296D01*
X15431984Y-13740779D01*
X15428589Y-13739113D01*
X15397503Y-13726777D01*
X15381833Y-13728253D01*
X15297828Y-13728253D01*
X15284146Y-13709167D01*
X15240331Y-13636962D01*
X15199390Y-13558380D01*
X15164011Y-13477864D01*
X15136879Y-13399858D01*
X15135882Y-13396431D01*
X15116903Y-13305173D01*
X15106515Y-13198517D01*
X15104878Y-13095470D01*
X15166538Y-13095470D01*
X15173406Y-13236492D01*
X15197405Y-13369324D01*
X15238520Y-13489277D01*
X15252022Y-13517800D01*
X15300874Y-13593101D01*
X15362186Y-13648353D01*
X15437753Y-13684478D01*
X15529370Y-13702399D01*
X15614707Y-13704276D01*
X15674051Y-13700292D01*
X15718571Y-13691915D01*
X15758773Y-13676615D01*
X15784481Y-13663450D01*
X15858283Y-13611102D01*
X15930113Y-13537045D01*
X15997544Y-13444966D01*
X16058150Y-13338551D01*
X16109503Y-13221488D01*
X16143678Y-13117750D01*
X16164034Y-13018044D01*
X16173740Y-12907845D01*
X16172800Y-12795926D01*
X16161212Y-12691059D01*
X16143646Y-12616100D01*
X16098911Y-12500062D01*
X16044192Y-12405467D01*
X15980307Y-12332895D01*
X15908076Y-12282927D01*
X15828318Y-12256141D01*
X15741850Y-12253119D01*
X15657450Y-12271700D01*
X15609597Y-12289379D01*
X15566708Y-12308114D01*
X15541911Y-12321537D01*
X15507373Y-12344319D01*
X15549024Y-12344319D01*
X15611397Y-12354088D01*
X15661582Y-12381175D01*
X15695645Y-12422258D01*
X15709652Y-12474009D01*
X15709800Y-12480224D01*
X15717008Y-12528675D01*
X15735301Y-12580235D01*
X15759678Y-12620992D01*
X15760926Y-12622450D01*
X15799389Y-12680848D01*
X15830426Y-12756990D01*
X15850705Y-12841455D01*
X15857868Y-12896679D01*
X15857851Y-12943050D01*
X15850177Y-12994067D01*
X15844355Y-13021008D01*
X15814030Y-13132762D01*
X15777715Y-13223421D01*
X15733024Y-13297029D01*
X15677574Y-13357635D01*
X15619661Y-13402309D01*
X15572568Y-13431476D01*
X15535820Y-13447454D01*
X15500508Y-13453618D01*
X15482927Y-13454091D01*
X15411776Y-13442204D01*
X15350959Y-13407613D01*
X15301165Y-13351108D01*
X15263081Y-13273481D01*
X15237394Y-13175525D01*
X15236491Y-13170363D01*
X15233660Y-13149985D01*
X15317133Y-13149985D01*
X15319385Y-13209576D01*
X15327107Y-13253901D01*
X15341621Y-13287948D01*
X15364245Y-13316708D01*
X15390601Y-13340524D01*
X15439364Y-13370049D01*
X15489696Y-13376715D01*
X15547642Y-13361286D01*
X15549369Y-13360570D01*
X15612543Y-13321225D01*
X15668001Y-13261851D01*
X15714206Y-13187054D01*
X15749624Y-13101439D01*
X15772720Y-13009615D01*
X15781959Y-12916187D01*
X15775805Y-12825762D01*
X15754080Y-12746275D01*
X15735253Y-12708493D01*
X15716309Y-12694706D01*
X15693238Y-12703812D01*
X15672046Y-12723681D01*
X15630800Y-12754932D01*
X15574585Y-12774909D01*
X15499683Y-12784727D01*
X15463615Y-12786060D01*
X15374075Y-12787550D01*
X15349552Y-12851050D01*
X15336366Y-12895732D01*
X15327049Y-12953587D01*
X15320908Y-13029588D01*
X15319031Y-13070142D01*
X15317133Y-13149985D01*
X15233660Y-13149985D01*
X15229720Y-13121627D01*
X15228608Y-13079004D01*
X15233566Y-13032140D01*
X15244301Y-12974127D01*
X15258369Y-12914339D01*
X15275364Y-12855335D01*
X15292076Y-12808038D01*
X15295414Y-12800250D01*
X15314471Y-12745905D01*
X15315462Y-12706852D01*
X15314971Y-12705000D01*
X15307947Y-12668521D01*
X15304665Y-12631975D01*
X15300568Y-12600401D01*
X15290979Y-12593620D01*
X15275905Y-12611625D01*
X15255356Y-12654411D01*
X15248897Y-12670143D01*
X15204266Y-12807606D01*
X15176819Y-12950945D01*
X15166538Y-13095470D01*
X15104878Y-13095470D01*
X15104711Y-13084962D01*
X15111488Y-12973012D01*
X15126838Y-12871168D01*
X15136238Y-12832000D01*
X15169410Y-12731297D01*
X15214325Y-12623081D01*
X15237649Y-12575729D01*
X15367094Y-12575729D01*
X15369270Y-12611752D01*
X15378972Y-12636641D01*
X15401526Y-12660096D01*
X15422587Y-12676862D01*
X15469079Y-12699105D01*
X15522792Y-12705022D01*
X15573583Y-12694406D01*
X15597868Y-12680462D01*
X15629975Y-12641581D01*
X15650023Y-12589863D01*
X15656897Y-12533582D01*
X15649479Y-12481011D01*
X15629805Y-12443875D01*
X15612680Y-12425411D01*
X15596937Y-12416801D01*
X15574511Y-12416707D01*
X15537336Y-12423788D01*
X15525030Y-12426471D01*
X15456791Y-12450064D01*
X15406061Y-12485904D01*
X15375420Y-12531554D01*
X15367094Y-12575729D01*
X15237649Y-12575729D01*
X15266220Y-12517726D01*
X15320333Y-12425602D01*
X15328490Y-12413355D01*
X15398701Y-12323473D01*
X15482932Y-12237395D01*
X15574771Y-12160714D01*
X15667803Y-12099023D01*
X15719199Y-12072579D01*
X15742258Y-12064164D01*
X15771209Y-12058233D01*
X15810443Y-12054431D01*
X15864352Y-12052405D01*
X15937325Y-12051804D01*
X15976500Y-12051899D01*
G36*
X14469032Y-13234117D02*
G01*
X14527760Y-13253119D01*
X14546856Y-13265365D01*
X14573298Y-13295521D01*
X14577631Y-13328815D01*
X14559455Y-13367656D01*
X14522726Y-13410141D01*
X14460630Y-13466469D01*
X14406644Y-13501300D01*
X14357025Y-13515599D01*
X14308030Y-13510334D01*
X14255914Y-13486473D01*
X14247424Y-13481240D01*
X14201518Y-13444937D01*
X14164973Y-13402474D01*
X14142185Y-13360061D01*
X14139917Y-13344172D01*
X14204479Y-13344172D01*
X14219858Y-13370706D01*
X14238250Y-13390496D01*
X14285848Y-13431420D01*
X14327505Y-13450198D01*
X14368261Y-13447586D01*
X14413159Y-13424339D01*
X14422019Y-13418059D01*
X14473940Y-13376669D01*
X14503304Y-13344744D01*
X14510773Y-13321447D01*
X14505646Y-13311866D01*
X14484297Y-13303090D01*
X14444933Y-13296718D01*
X14394845Y-13292953D01*
X14341321Y-13291994D01*
X14291652Y-13294043D01*
X14253127Y-13299299D01*
X14237602Y-13304484D01*
X14210405Y-13323721D01*
X14204479Y-13344172D01*
X14139917Y-13344172D01*
X14137265Y-13325602D01*
X14154681Y-13291355D01*
X14195886Y-13264181D01*
X14261169Y-13243922D01*
X14300541Y-13236700D01*
X14392380Y-13228538D01*
X14469032Y-13234117D01*
G37*
X14469032Y-13234117D02*
X14527760Y-13253119D01*
X14546856Y-13265365D01*
X14573298Y-13295521D01*
X14577631Y-13328815D01*
X14559455Y-13367656D01*
X14522726Y-13410141D01*
X14460630Y-13466469D01*
X14406644Y-13501300D01*
X14357025Y-13515599D01*
X14308030Y-13510334D01*
X14255914Y-13486473D01*
X14247424Y-13481240D01*
X14201518Y-13444937D01*
X14164973Y-13402474D01*
X14142185Y-13360061D01*
X14139917Y-13344172D01*
X14204479Y-13344172D01*
X14219858Y-13370706D01*
X14238250Y-13390496D01*
X14285848Y-13431420D01*
X14327505Y-13450198D01*
X14368261Y-13447586D01*
X14413159Y-13424339D01*
X14422019Y-13418059D01*
X14473940Y-13376669D01*
X14503304Y-13344744D01*
X14510773Y-13321447D01*
X14505646Y-13311866D01*
X14484297Y-13303090D01*
X14444933Y-13296718D01*
X14394845Y-13292953D01*
X14341321Y-13291994D01*
X14291652Y-13294043D01*
X14253127Y-13299299D01*
X14237602Y-13304484D01*
X14210405Y-13323721D01*
X14204479Y-13344172D01*
X14139917Y-13344172D01*
X14137265Y-13325602D01*
X14154681Y-13291355D01*
X14195886Y-13264181D01*
X14261169Y-13243922D01*
X14300541Y-13236700D01*
X14392380Y-13228538D01*
X14469032Y-13234117D01*
G36*
X15714326Y-11227156D02*
G01*
X15741973Y-11245889D01*
X15762578Y-11281671D01*
X15778708Y-11336434D01*
X15792931Y-11412108D01*
X15807813Y-11510623D01*
X15810837Y-11531459D01*
X15824848Y-11635607D01*
X15835665Y-11731665D01*
X15843110Y-11816680D01*
X15847008Y-11887697D01*
X15847181Y-11941764D01*
X15843453Y-11975928D01*
X15838059Y-11986671D01*
X15817016Y-11990350D01*
X15800658Y-11971700D01*
X15788571Y-11929800D01*
X15780343Y-11863732D01*
X15779782Y-11856620D01*
X15772926Y-11782986D01*
X15763221Y-11701200D01*
X15751537Y-11616788D01*
X15738745Y-11535274D01*
X15725714Y-11462183D01*
X15713314Y-11403041D01*
X15702414Y-11363372D01*
X15701906Y-11361951D01*
X15679918Y-11319977D01*
X15650893Y-11300766D01*
X15611695Y-11303297D01*
X15572075Y-11319692D01*
X15536487Y-11335787D01*
X15507990Y-11345141D01*
X15500952Y-11346100D01*
X15476607Y-11352399D01*
X15434683Y-11369834D01*
X15379221Y-11396211D01*
X15314262Y-11429334D01*
X15243849Y-11467008D01*
X15172021Y-11507039D01*
X15102821Y-11547232D01*
X15040289Y-11585392D01*
X14988468Y-11619325D01*
X14960306Y-11639714D01*
X14880439Y-11705537D01*
X14790732Y-11786466D01*
X14696580Y-11877285D01*
X14603382Y-11972779D01*
X14516534Y-12067732D01*
X14511752Y-12073175D01*
X14465206Y-12124059D01*
X14430984Y-12155753D01*
X14406773Y-12169825D01*
X14390263Y-12167843D01*
X14383474Y-12160234D01*
X14385523Y-12140845D01*
X14404022Y-12106397D01*
X14437033Y-12059356D01*
X14482619Y-12002185D01*
X14538843Y-11937350D01*
X14603767Y-11867315D01*
X14654949Y-11814915D01*
X14794522Y-11683636D01*
X14933223Y-11571778D01*
X15076964Y-11475548D01*
X15231654Y-11391152D01*
X15403203Y-11314797D01*
X15481989Y-11284106D01*
X15563470Y-11253948D01*
X15627642Y-11233116D01*
X15677071Y-11223542D01*
X15714326Y-11227156D01*
G37*
X15714326Y-11227156D02*
X15741973Y-11245889D01*
X15762578Y-11281671D01*
X15778708Y-11336434D01*
X15792931Y-11412108D01*
X15807813Y-11510623D01*
X15810837Y-11531459D01*
X15824848Y-11635607D01*
X15835665Y-11731665D01*
X15843110Y-11816680D01*
X15847008Y-11887697D01*
X15847181Y-11941764D01*
X15843453Y-11975928D01*
X15838059Y-11986671D01*
X15817016Y-11990350D01*
X15800658Y-11971700D01*
X15788571Y-11929800D01*
X15780343Y-11863732D01*
X15779782Y-11856620D01*
X15772926Y-11782986D01*
X15763221Y-11701200D01*
X15751537Y-11616788D01*
X15738745Y-11535274D01*
X15725714Y-11462183D01*
X15713314Y-11403041D01*
X15702414Y-11363372D01*
X15701906Y-11361951D01*
X15679918Y-11319977D01*
X15650893Y-11300766D01*
X15611695Y-11303297D01*
X15572075Y-11319692D01*
X15536487Y-11335787D01*
X15507990Y-11345141D01*
X15500952Y-11346100D01*
X15476607Y-11352399D01*
X15434683Y-11369834D01*
X15379221Y-11396211D01*
X15314262Y-11429334D01*
X15243849Y-11467008D01*
X15172021Y-11507039D01*
X15102821Y-11547232D01*
X15040289Y-11585392D01*
X14988468Y-11619325D01*
X14960306Y-11639714D01*
X14880439Y-11705537D01*
X14790732Y-11786466D01*
X14696580Y-11877285D01*
X14603382Y-11972779D01*
X14516534Y-12067732D01*
X14511752Y-12073175D01*
X14465206Y-12124059D01*
X14430984Y-12155753D01*
X14406773Y-12169825D01*
X14390263Y-12167843D01*
X14383474Y-12160234D01*
X14385523Y-12140845D01*
X14404022Y-12106397D01*
X14437033Y-12059356D01*
X14482619Y-12002185D01*
X14538843Y-11937350D01*
X14603767Y-11867315D01*
X14654949Y-11814915D01*
X14794522Y-11683636D01*
X14933223Y-11571778D01*
X15076964Y-11475548D01*
X15231654Y-11391152D01*
X15403203Y-11314797D01*
X15481989Y-11284106D01*
X15563470Y-11253948D01*
X15627642Y-11233116D01*
X15677071Y-11223542D01*
X15714326Y-11227156D01*
G36*
X13424470Y-11333471D02*
G01*
X13429694Y-11334894D01*
X13477321Y-11352222D01*
X13539390Y-11380736D01*
X13609601Y-11416963D01*
X13681653Y-11457430D01*
X13749246Y-11498664D01*
X13806079Y-11537192D01*
X13829905Y-11555508D01*
X13870102Y-11590495D01*
X13921800Y-11638541D01*
X13981404Y-11695997D01*
X14045316Y-11759214D01*
X14109942Y-11824545D01*
X14171683Y-11888338D01*
X14226945Y-11946947D01*
X14272130Y-11996721D01*
X14303642Y-12034012D01*
X14310697Y-12043330D01*
X14339905Y-12091018D01*
X14351213Y-12124848D01*
X14346520Y-12142732D01*
X14327726Y-12142577D01*
X14296731Y-12122294D01*
X14266268Y-12092225D01*
X14242913Y-12067267D01*
X14204990Y-12027847D01*
X14155903Y-11977453D01*
X14099055Y-11919572D01*
X14037851Y-11857694D01*
X14014372Y-11834072D01*
X13920878Y-11741470D01*
X13840120Y-11664256D01*
X13772930Y-11603164D01*
X13720140Y-11558924D01*
X13682582Y-11532268D01*
X13661850Y-11523900D01*
X13645423Y-11517551D01*
X13613540Y-11500638D01*
X13572094Y-11476355D01*
X13556488Y-11466750D01*
X13512337Y-11440543D01*
X13474837Y-11420664D01*
X13450252Y-11410351D01*
X13446010Y-11409600D01*
X13413030Y-11421461D01*
X13377415Y-11454640D01*
X13341416Y-11505531D01*
X13307287Y-11570527D01*
X13277283Y-11646020D01*
X13258054Y-11710412D01*
X13244527Y-11767500D01*
X13229328Y-11838319D01*
X13214841Y-11911528D01*
X13208313Y-11947148D01*
X13193275Y-12023381D01*
X13179094Y-12075866D01*
X13165139Y-12106211D01*
X13150779Y-12116025D01*
X13142961Y-12113560D01*
X13134451Y-12096200D01*
X13132486Y-12057919D01*
X13137109Y-11997593D01*
X13148363Y-11914100D01*
X13151300Y-11895238D01*
X13179713Y-11747326D01*
X13215018Y-11617006D01*
X13256509Y-11506212D01*
X13303477Y-11416875D01*
X13347825Y-11358559D01*
X13372527Y-11335181D01*
X13393899Y-11328026D01*
X13424470Y-11333471D01*
G37*
X13424470Y-11333471D02*
X13429694Y-11334894D01*
X13477321Y-11352222D01*
X13539390Y-11380736D01*
X13609601Y-11416963D01*
X13681653Y-11457430D01*
X13749246Y-11498664D01*
X13806079Y-11537192D01*
X13829905Y-11555508D01*
X13870102Y-11590495D01*
X13921800Y-11638541D01*
X13981404Y-11695997D01*
X14045316Y-11759214D01*
X14109942Y-11824545D01*
X14171683Y-11888338D01*
X14226945Y-11946947D01*
X14272130Y-11996721D01*
X14303642Y-12034012D01*
X14310697Y-12043330D01*
X14339905Y-12091018D01*
X14351213Y-12124848D01*
X14346520Y-12142732D01*
X14327726Y-12142577D01*
X14296731Y-12122294D01*
X14266268Y-12092225D01*
X14242913Y-12067267D01*
X14204990Y-12027847D01*
X14155903Y-11977453D01*
X14099055Y-11919572D01*
X14037851Y-11857694D01*
X14014372Y-11834072D01*
X13920878Y-11741470D01*
X13840120Y-11664256D01*
X13772930Y-11603164D01*
X13720140Y-11558924D01*
X13682582Y-11532268D01*
X13661850Y-11523900D01*
X13645423Y-11517551D01*
X13613540Y-11500638D01*
X13572094Y-11476355D01*
X13556488Y-11466750D01*
X13512337Y-11440543D01*
X13474837Y-11420664D01*
X13450252Y-11410351D01*
X13446010Y-11409600D01*
X13413030Y-11421461D01*
X13377415Y-11454640D01*
X13341416Y-11505531D01*
X13307287Y-11570527D01*
X13277283Y-11646020D01*
X13258054Y-11710412D01*
X13244527Y-11767500D01*
X13229328Y-11838319D01*
X13214841Y-11911528D01*
X13208313Y-11947148D01*
X13193275Y-12023381D01*
X13179094Y-12075866D01*
X13165139Y-12106211D01*
X13150779Y-12116025D01*
X13142961Y-12113560D01*
X13134451Y-12096200D01*
X13132486Y-12057919D01*
X13137109Y-11997593D01*
X13148363Y-11914100D01*
X13151300Y-11895238D01*
X13179713Y-11747326D01*
X13215018Y-11617006D01*
X13256509Y-11506212D01*
X13303477Y-11416875D01*
X13347825Y-11358559D01*
X13372527Y-11335181D01*
X13393899Y-11328026D01*
X13424470Y-11333471D01*
G36*
X13351420Y-12505008D02*
G01*
X13397019Y-12510023D01*
X13428424Y-12520798D01*
X13456819Y-12542090D01*
X13471118Y-12555891D01*
X13506930Y-12601158D01*
X13523608Y-12649204D01*
X13524447Y-12654682D01*
X13531846Y-12689661D01*
X13546601Y-12709095D01*
X13576666Y-12722833D01*
X13580579Y-12724190D01*
X13633149Y-12749613D01*
X13676633Y-12788839D01*
X13715908Y-12846731D01*
X13729989Y-12873144D01*
X13777368Y-12994314D01*
X13800920Y-13122544D01*
X13800282Y-13255161D01*
X13791109Y-13320496D01*
X13774688Y-13387311D01*
X13751975Y-13450149D01*
X13725783Y-13502781D01*
X13698927Y-13538980D01*
X13688491Y-13547553D01*
X13638741Y-13567929D01*
X13580781Y-13575085D01*
X13534099Y-13568782D01*
X13467675Y-13535178D01*
X13410092Y-13479955D01*
X13362651Y-13405747D01*
X13326654Y-13315189D01*
X13303401Y-13210918D01*
X13294196Y-13095567D01*
X13294097Y-13082825D01*
X13293794Y-13052249D01*
X13359834Y-13052249D01*
X13360391Y-13124138D01*
X13371786Y-13203114D01*
X13392601Y-13282016D01*
X13421419Y-13353686D01*
X13453063Y-13406140D01*
X13480766Y-13436421D01*
X13515832Y-13466619D01*
X13550807Y-13491094D01*
X13578237Y-13504206D01*
X13583829Y-13505080D01*
X13595287Y-13501399D01*
X13621607Y-13492374D01*
X13625561Y-13490998D01*
X13663315Y-13468947D01*
X13691399Y-13431087D01*
X13710793Y-13374972D01*
X13722474Y-13298161D01*
X13726260Y-13239349D01*
X13726165Y-13130154D01*
X13715449Y-13038438D01*
X13693097Y-12958166D01*
X13670352Y-12906277D01*
X13644555Y-12864557D01*
X13613695Y-12827947D01*
X13583558Y-12802432D01*
X13561681Y-12793900D01*
X13546731Y-12802812D01*
X13520072Y-12826294D01*
X13486328Y-12859465D01*
X13450124Y-12897444D01*
X13416084Y-12935349D01*
X13388832Y-12968299D01*
X13372994Y-12991412D01*
X13371534Y-12994604D01*
X13359834Y-13052249D01*
X13293794Y-13052249D01*
X13293527Y-13025326D01*
X13291426Y-12988717D01*
X13287009Y-12968498D01*
X13279493Y-12960169D01*
X13272490Y-12959000D01*
X13245545Y-12950293D01*
X13209607Y-12928053D01*
X13172134Y-12898094D01*
X13140586Y-12866236D01*
X13124959Y-12843944D01*
X13114506Y-12810834D01*
X13107830Y-12764843D01*
X13106634Y-12737120D01*
X13170980Y-12737120D01*
X13184605Y-12792466D01*
X13214329Y-12840820D01*
X13249791Y-12870614D01*
X13284513Y-12889251D01*
X13311215Y-12893382D01*
X13340911Y-12882894D01*
X13364882Y-12869459D01*
X13408890Y-12836839D01*
X13435216Y-12798181D01*
X13447319Y-12746704D01*
X13449200Y-12704192D01*
X13447865Y-12658930D01*
X13441823Y-12629852D01*
X13428014Y-12607794D01*
X13411404Y-12590984D01*
X13364506Y-12558174D01*
X13316034Y-12548836D01*
X13270167Y-12557823D01*
X13223047Y-12585133D01*
X13190566Y-12627853D01*
X13173089Y-12680382D01*
X13170980Y-12737120D01*
X13106634Y-12737120D01*
X13106508Y-12734205D01*
X13117260Y-12654564D01*
X13147731Y-12589950D01*
X13195987Y-12542176D01*
X13260090Y-12513053D01*
X13338103Y-12504395D01*
X13351420Y-12505008D01*
G37*
X13351420Y-12505008D02*
X13397019Y-12510023D01*
X13428424Y-12520798D01*
X13456819Y-12542090D01*
X13471118Y-12555891D01*
X13506930Y-12601158D01*
X13523608Y-12649204D01*
X13524447Y-12654682D01*
X13531846Y-12689661D01*
X13546601Y-12709095D01*
X13576666Y-12722833D01*
X13580579Y-12724190D01*
X13633149Y-12749613D01*
X13676633Y-12788839D01*
X13715908Y-12846731D01*
X13729989Y-12873144D01*
X13777368Y-12994314D01*
X13800920Y-13122544D01*
X13800282Y-13255161D01*
X13791109Y-13320496D01*
X13774688Y-13387311D01*
X13751975Y-13450149D01*
X13725783Y-13502781D01*
X13698927Y-13538980D01*
X13688491Y-13547553D01*
X13638741Y-13567929D01*
X13580781Y-13575085D01*
X13534099Y-13568782D01*
X13467675Y-13535178D01*
X13410092Y-13479955D01*
X13362651Y-13405747D01*
X13326654Y-13315189D01*
X13303401Y-13210918D01*
X13294196Y-13095567D01*
X13294097Y-13082825D01*
X13293794Y-13052249D01*
X13359834Y-13052249D01*
X13360391Y-13124138D01*
X13371786Y-13203114D01*
X13392601Y-13282016D01*
X13421419Y-13353686D01*
X13453063Y-13406140D01*
X13480766Y-13436421D01*
X13515832Y-13466619D01*
X13550807Y-13491094D01*
X13578237Y-13504206D01*
X13583829Y-13505080D01*
X13595287Y-13501399D01*
X13621607Y-13492374D01*
X13625561Y-13490998D01*
X13663315Y-13468947D01*
X13691399Y-13431087D01*
X13710793Y-13374972D01*
X13722474Y-13298161D01*
X13726260Y-13239349D01*
X13726165Y-13130154D01*
X13715449Y-13038438D01*
X13693097Y-12958166D01*
X13670352Y-12906277D01*
X13644555Y-12864557D01*
X13613695Y-12827947D01*
X13583558Y-12802432D01*
X13561681Y-12793900D01*
X13546731Y-12802812D01*
X13520072Y-12826294D01*
X13486328Y-12859465D01*
X13450124Y-12897444D01*
X13416084Y-12935349D01*
X13388832Y-12968299D01*
X13372994Y-12991412D01*
X13371534Y-12994604D01*
X13359834Y-13052249D01*
X13293794Y-13052249D01*
X13293527Y-13025326D01*
X13291426Y-12988717D01*
X13287009Y-12968498D01*
X13279493Y-12960169D01*
X13272490Y-12959000D01*
X13245545Y-12950293D01*
X13209607Y-12928053D01*
X13172134Y-12898094D01*
X13140586Y-12866236D01*
X13124959Y-12843944D01*
X13114506Y-12810834D01*
X13107830Y-12764843D01*
X13106634Y-12737120D01*
X13170980Y-12737120D01*
X13184605Y-12792466D01*
X13214329Y-12840820D01*
X13249791Y-12870614D01*
X13284513Y-12889251D01*
X13311215Y-12893382D01*
X13340911Y-12882894D01*
X13364882Y-12869459D01*
X13408890Y-12836839D01*
X13435216Y-12798181D01*
X13447319Y-12746704D01*
X13449200Y-12704192D01*
X13447865Y-12658930D01*
X13441823Y-12629852D01*
X13428014Y-12607794D01*
X13411404Y-12590984D01*
X13364506Y-12558174D01*
X13316034Y-12548836D01*
X13270167Y-12557823D01*
X13223047Y-12585133D01*
X13190566Y-12627853D01*
X13173089Y-12680382D01*
X13170980Y-12737120D01*
X13106634Y-12737120D01*
X13106508Y-12734205D01*
X13117260Y-12654564D01*
X13147731Y-12589950D01*
X13195987Y-12542176D01*
X13260090Y-12513053D01*
X13338103Y-12504395D01*
X13351420Y-12505008D01*
D12*
X61870000Y-34930000D02*
X61180000Y-34930000D01*
X56450000Y-34930000D02*
X57140000Y-34930000D01*
X61180000Y-33510000D02*
X57140000Y-33510000D01*
X61180000Y-36350000D02*
X61180000Y-33510000D01*
X57140000Y-36350000D02*
X61180000Y-36350000D01*
X57140000Y-33510000D02*
X57140000Y-36350000D01*
X57140000Y-40495000D02*
X57140000Y-43335000D01*
X57140000Y-43335000D02*
X61180000Y-43335000D01*
X61180000Y-43335000D02*
X61180000Y-40495000D01*
X61180000Y-40495000D02*
X57140000Y-40495000D01*
X56450000Y-41915000D02*
X57140000Y-41915000D01*
X61870000Y-41915000D02*
X61180000Y-41915000D01*
X57700000Y-2060000D02*
X57700000Y-4300000D01*
X57940000Y-2060000D02*
X57940000Y-4300000D01*
X57820000Y-2060000D02*
X57820000Y-4300000D01*
X61990000Y-3180000D02*
X61340000Y-3180000D01*
X56450000Y-3180000D02*
X57100000Y-3180000D01*
X61340000Y-2060000D02*
X57100000Y-2060000D01*
X61340000Y-4300000D02*
X61340000Y-2060000D01*
X57100000Y-4300000D02*
X61340000Y-4300000D01*
X57100000Y-2060000D02*
X57100000Y-4300000D01*
X57100000Y-7140000D02*
X57100000Y-9380000D01*
X57100000Y-9380000D02*
X61340000Y-9380000D01*
X61340000Y-9380000D02*
X61340000Y-7140000D01*
X61340000Y-7140000D02*
X57100000Y-7140000D01*
X56450000Y-8260000D02*
X57100000Y-8260000D01*
X61990000Y-8260000D02*
X61340000Y-8260000D01*
X57820000Y-7140000D02*
X57820000Y-9380000D01*
X57940000Y-7140000D02*
X57940000Y-9380000D01*
X57700000Y-7140000D02*
X57700000Y-9380000D01*
X33760000Y-40010000D02*
X33760000Y-38680000D01*
X33760000Y-38680000D02*
X35090000Y-38680000D01*
X33760000Y-41280000D02*
X36360000Y-41280000D01*
X36360000Y-41280000D02*
X36360000Y-38680000D01*
X36360000Y-38680000D02*
X41500000Y-38680000D01*
X41500000Y-43880000D02*
X41500000Y-38680000D01*
X33760000Y-43880000D02*
X41500000Y-43880000D01*
X33760000Y-43880000D02*
X33760000Y-41280000D01*
X47250000Y-40341000D02*
X46420000Y-40341000D01*
X49910000Y-40341000D02*
X48330000Y-40341000D01*
X46740000Y-37140000D02*
X46420000Y-37140000D01*
X49910000Y-37140000D02*
X48840000Y-37140000D01*
X49910000Y-42860000D02*
X46420000Y-42860000D01*
X49910000Y-34620000D02*
X46420000Y-34620000D01*
X46420000Y-34620000D02*
X46420000Y-42860000D01*
X49910000Y-34620000D02*
X49910000Y-42860000D01*
X47250000Y-29546000D02*
X46420000Y-29546000D01*
X49910000Y-29546000D02*
X48330000Y-29546000D01*
X46740000Y-26345000D02*
X46420000Y-26345000D01*
X49910000Y-26345000D02*
X48840000Y-26345000D01*
X49910000Y-32065000D02*
X46420000Y-32065000D01*
X49910000Y-23825000D02*
X46420000Y-23825000D01*
X46420000Y-23825000D02*
X46420000Y-32065000D01*
X49910000Y-23825000D02*
X49910000Y-32065000D01*
X49910000Y-12395000D02*
X49910000Y-20635000D01*
X46420000Y-12395000D02*
X46420000Y-20635000D01*
X49910000Y-12395000D02*
X46420000Y-12395000D01*
X49910000Y-20635000D02*
X46420000Y-20635000D01*
X49910000Y-14915000D02*
X48840000Y-14915000D01*
X46740000Y-14915000D02*
X46420000Y-14915000D01*
X49910000Y-18116000D02*
X48330000Y-18116000D01*
X47250000Y-18116000D02*
X46420000Y-18116000D01*
X49910000Y-1600000D02*
X49910000Y-9840000D01*
X46420000Y-1600000D02*
X46420000Y-9840000D01*
X49910000Y-1600000D02*
X46420000Y-1600000D01*
X49910000Y-9840000D02*
X46420000Y-9840000D01*
X49910000Y-4120000D02*
X48840000Y-4120000D01*
X46740000Y-4120000D02*
X46420000Y-4120000D01*
X49910000Y-7321000D02*
X48330000Y-7321000D01*
X47250000Y-7321000D02*
X46420000Y-7321000D01*
X2900000Y-15517064D02*
X2900000Y-11162936D01*
X6320000Y-15517064D02*
X6320000Y-11162936D01*
X24100000Y-15517064D02*
X24100000Y-11162936D01*
X20680000Y-15517064D02*
X20680000Y-11162936D01*
X41880000Y-15517064D02*
X41880000Y-11162936D01*
X38460000Y-15517064D02*
X38460000Y-11162936D01*
X4610000Y-22000000D02*
X4610000Y-22770000D01*
X4610000Y-30080000D02*
X4610000Y-29310000D01*
X3240000Y-22770000D02*
X3240000Y-29310000D01*
X5980000Y-22770000D02*
X3240000Y-22770000D01*
X5980000Y-29310000D02*
X5980000Y-22770000D01*
X3240000Y-29310000D02*
X5980000Y-29310000D01*
X12130000Y-29310000D02*
X14870000Y-29310000D01*
X14870000Y-29310000D02*
X14870000Y-22770000D01*
X14870000Y-22770000D02*
X12130000Y-22770000D01*
X12130000Y-22770000D02*
X12130000Y-29310000D01*
X13500000Y-30080000D02*
X13500000Y-29310000D01*
X13500000Y-22000000D02*
X13500000Y-22770000D01*
X22390000Y-22000000D02*
X22390000Y-22770000D01*
X22390000Y-30080000D02*
X22390000Y-29310000D01*
X21020000Y-22770000D02*
X21020000Y-29310000D01*
X23760000Y-22770000D02*
X21020000Y-22770000D01*
X23760000Y-29310000D02*
X23760000Y-22770000D01*
X21020000Y-29310000D02*
X23760000Y-29310000D01*
X29910000Y-29310000D02*
X32650000Y-29310000D01*
X32650000Y-29310000D02*
X32650000Y-22770000D01*
X32650000Y-22770000D02*
X29910000Y-22770000D01*
X29910000Y-22770000D02*
X29910000Y-29310000D01*
X31280000Y-30080000D02*
X31280000Y-29310000D01*
X31280000Y-22000000D02*
X31280000Y-22770000D01*
X40170000Y-22000000D02*
X40170000Y-22770000D01*
X40170000Y-30080000D02*
X40170000Y-29310000D01*
X38800000Y-22770000D02*
X38800000Y-29310000D01*
X41540000Y-22770000D02*
X38800000Y-22770000D01*
X41540000Y-29310000D02*
X41540000Y-22770000D01*
X38800000Y-29310000D02*
X41540000Y-29310000D01*
X15950000Y-7670000D02*
X15840000Y-7670000D01*
X14570000Y-7670000D02*
X14980000Y-7670000D01*
X15950000Y-3770000D02*
X15950000Y-7670000D01*
X15850000Y-3770000D02*
X15950000Y-3770000D01*
X14580000Y-3770000D02*
X14980000Y-3770000D01*
X13300000Y-7670000D02*
X13710000Y-7670000D01*
X12040000Y-7670000D02*
X12440000Y-7670000D01*
X12030000Y-3770000D02*
X12440000Y-3770000D01*
X11050000Y-7670000D02*
X11170000Y-7670000D01*
X11050000Y-3770000D02*
X11050000Y-7670000D01*
X11050000Y-3770000D02*
X11170000Y-3770000D01*
X13500000Y-3770000D02*
X13700000Y-3770000D01*
X13500000Y-3770000D02*
X13300000Y-3770000D01*
X31280000Y-3770000D02*
X31080000Y-3770000D01*
X31280000Y-3770000D02*
X31480000Y-3770000D01*
X28830000Y-3770000D02*
X28950000Y-3770000D01*
X28830000Y-3770000D02*
X28830000Y-7670000D01*
X28830000Y-7670000D02*
X28950000Y-7670000D01*
X29810000Y-3770000D02*
X30220000Y-3770000D01*
X29820000Y-7670000D02*
X30220000Y-7670000D01*
X31080000Y-7670000D02*
X31490000Y-7670000D01*
X32360000Y-3770000D02*
X32760000Y-3770000D01*
X33630000Y-3770000D02*
X33730000Y-3770000D01*
X33730000Y-3770000D02*
X33730000Y-7670000D01*
X32350000Y-7670000D02*
X32760000Y-7670000D01*
X33730000Y-7670000D02*
X33620000Y-7670000D01*
X73630000Y-18080000D02*
X60780000Y-18080000D01*
X57930000Y-20630000D02*
X57930000Y-23780000D01*
X60780000Y-26380000D02*
X73630000Y-26380000D01*
X73630000Y-26380000D02*
X73630000Y-18080000D01*
X60780000Y-18080000D02*
X57930000Y-20630000D01*
X57930000Y-23780000D02*
X60780000Y-26380000D01*
X11790000Y-40925000D02*
X14640000Y-43525000D01*
X14640000Y-35225000D02*
X11790000Y-37775000D01*
X27490000Y-43525000D02*
X27490000Y-35225000D01*
X14640000Y-43525000D02*
X27490000Y-43525000D01*
X11790000Y-37775000D02*
X11790000Y-40925000D01*
X27490000Y-35225000D02*
X14640000Y-35225000D01*
D10*
X69666666Y-8712380D02*
X69666666Y-7712380D01*
X70000000Y-8426666D01*
X70333333Y-7712380D01*
X70333333Y-8712380D01*
X70809523Y-8712380D02*
X70809523Y-7712380D01*
X70809523Y-8188571D02*
X71380952Y-8188571D01*
X71380952Y-8712380D02*
X71380952Y-7712380D01*
X72285714Y-8045714D02*
X72285714Y-8712380D01*
X72047619Y-7664761D02*
X71809523Y-8379047D01*
X72428571Y-8379047D01*
X69666666Y-37252380D02*
X69666666Y-36252380D01*
X70000000Y-36966666D01*
X70333333Y-36252380D01*
X70333333Y-37252380D01*
X70809523Y-37252380D02*
X70809523Y-36252380D01*
X70809523Y-36728571D02*
X71380952Y-36728571D01*
X71380952Y-37252380D02*
X71380952Y-36252380D01*
X71761904Y-36252380D02*
X72380952Y-36252380D01*
X72047619Y-36633333D01*
X72190476Y-36633333D01*
X72285714Y-36680952D01*
X72333333Y-36728571D01*
X72380952Y-36823809D01*
X72380952Y-37061904D01*
X72333333Y-37157142D01*
X72285714Y-37204761D01*
X72190476Y-37252380D01*
X71904761Y-37252380D01*
X71809523Y-37204761D01*
X71761904Y-37157142D01*
X2666666Y-37252380D02*
X2666666Y-36252380D01*
X3000000Y-36966666D01*
X3333333Y-36252380D01*
X3333333Y-37252380D01*
X3809523Y-37252380D02*
X3809523Y-36252380D01*
X3809523Y-36728571D02*
X4380952Y-36728571D01*
X4380952Y-37252380D02*
X4380952Y-36252380D01*
X4809523Y-36347619D02*
X4857142Y-36300000D01*
X4952380Y-36252380D01*
X5190476Y-36252380D01*
X5285714Y-36300000D01*
X5333333Y-36347619D01*
X5380952Y-36442857D01*
X5380952Y-36538095D01*
X5333333Y-36680952D01*
X4761904Y-37252380D01*
X5380952Y-37252380D01*
X2666666Y-8712380D02*
X2666666Y-7712380D01*
X3000000Y-8426666D01*
X3333333Y-7712380D01*
X3333333Y-8712380D01*
X3809523Y-8712380D02*
X3809523Y-7712380D01*
X3809523Y-8188571D02*
X4380952Y-8188571D01*
X4380952Y-8712380D02*
X4380952Y-7712380D01*
X5380952Y-8712380D02*
X4809523Y-8712380D01*
X5095238Y-8712380D02*
X5095238Y-7712380D01*
X5000000Y-7855238D01*
X4904761Y-7950476D01*
X4809523Y-7998095D01*
X58993333Y-32867142D02*
X58945714Y-32914761D01*
X58802857Y-32962380D01*
X58707619Y-32962380D01*
X58564761Y-32914761D01*
X58469523Y-32819523D01*
X58421904Y-32724285D01*
X58374285Y-32533809D01*
X58374285Y-32390952D01*
X58421904Y-32200476D01*
X58469523Y-32105238D01*
X58564761Y-32010000D01*
X58707619Y-31962380D01*
X58802857Y-31962380D01*
X58945714Y-32010000D01*
X58993333Y-32057619D01*
X59945714Y-32962380D02*
X59374285Y-32962380D01*
X59660000Y-32962380D02*
X59660000Y-31962380D01*
X59564761Y-32105238D01*
X59469523Y-32200476D01*
X59374285Y-32248095D01*
X58993333Y-39852142D02*
X58945714Y-39899761D01*
X58802857Y-39947380D01*
X58707619Y-39947380D01*
X58564761Y-39899761D01*
X58469523Y-39804523D01*
X58421904Y-39709285D01*
X58374285Y-39518809D01*
X58374285Y-39375952D01*
X58421904Y-39185476D01*
X58469523Y-39090238D01*
X58564761Y-38995000D01*
X58707619Y-38947380D01*
X58802857Y-38947380D01*
X58945714Y-38995000D01*
X58993333Y-39042619D01*
X59374285Y-39042619D02*
X59421904Y-38995000D01*
X59517142Y-38947380D01*
X59755238Y-38947380D01*
X59850476Y-38995000D01*
X59898095Y-39042619D01*
X59945714Y-39137857D01*
X59945714Y-39233095D01*
X59898095Y-39375952D01*
X59326666Y-39947380D01*
X59945714Y-39947380D01*
X58481904Y-1512380D02*
X58481904Y-512380D01*
X58720000Y-512380D01*
X58862857Y-560000D01*
X58958095Y-655238D01*
X59005714Y-750476D01*
X59053333Y-940952D01*
X59053333Y-1083809D01*
X59005714Y-1274285D01*
X58958095Y-1369523D01*
X58862857Y-1464761D01*
X58720000Y-1512380D01*
X58481904Y-1512380D01*
X60005714Y-1512380D02*
X59434285Y-1512380D01*
X59720000Y-1512380D02*
X59720000Y-512380D01*
X59624761Y-655238D01*
X59529523Y-750476D01*
X59434285Y-798095D01*
X55148095Y-1832380D02*
X55148095Y-832380D01*
X55719523Y-1832380D02*
X55290952Y-1260952D01*
X55719523Y-832380D02*
X55148095Y-1403809D01*
X58481904Y-6592380D02*
X58481904Y-5592380D01*
X58720000Y-5592380D01*
X58862857Y-5640000D01*
X58958095Y-5735238D01*
X59005714Y-5830476D01*
X59053333Y-6020952D01*
X59053333Y-6163809D01*
X59005714Y-6354285D01*
X58958095Y-6449523D01*
X58862857Y-6544761D01*
X58720000Y-6592380D01*
X58481904Y-6592380D01*
X59434285Y-5687619D02*
X59481904Y-5640000D01*
X59577142Y-5592380D01*
X59815238Y-5592380D01*
X59910476Y-5640000D01*
X59958095Y-5687619D01*
X60005714Y-5782857D01*
X60005714Y-5878095D01*
X59958095Y-6020952D01*
X59386666Y-6592380D01*
X60005714Y-6592380D01*
X55148095Y-6912380D02*
X55148095Y-5912380D01*
X55719523Y-6912380D02*
X55290952Y-6340952D01*
X55719523Y-5912380D02*
X55148095Y-6483809D01*
X31986666Y-40732380D02*
X31986666Y-41446666D01*
X31939047Y-41589523D01*
X31843809Y-41684761D01*
X31700952Y-41732380D01*
X31605714Y-41732380D01*
X32986666Y-41732380D02*
X32415238Y-41732380D01*
X32700952Y-41732380D02*
X32700952Y-40732380D01*
X32605714Y-40875238D01*
X32510476Y-40970476D01*
X32415238Y-41018095D01*
X51457619Y-38835238D02*
X51410000Y-38930476D01*
X51314761Y-39025714D01*
X51171904Y-39168571D01*
X51124285Y-39263809D01*
X51124285Y-39359047D01*
X51362380Y-39311428D02*
X51314761Y-39406666D01*
X51219523Y-39501904D01*
X51029047Y-39549523D01*
X50695714Y-39549523D01*
X50505238Y-39501904D01*
X50410000Y-39406666D01*
X50362380Y-39311428D01*
X50362380Y-39120952D01*
X50410000Y-39025714D01*
X50505238Y-38930476D01*
X50695714Y-38882857D01*
X51029047Y-38882857D01*
X51219523Y-38930476D01*
X51314761Y-39025714D01*
X51362380Y-39120952D01*
X51362380Y-39311428D01*
X51362380Y-37930476D02*
X51362380Y-38501904D01*
X51362380Y-38216190D02*
X50362380Y-38216190D01*
X50505238Y-38311428D01*
X50600476Y-38406666D01*
X50648095Y-38501904D01*
X51457619Y-28040238D02*
X51410000Y-28135476D01*
X51314761Y-28230714D01*
X51171904Y-28373571D01*
X51124285Y-28468809D01*
X51124285Y-28564047D01*
X51362380Y-28516428D02*
X51314761Y-28611666D01*
X51219523Y-28706904D01*
X51029047Y-28754523D01*
X50695714Y-28754523D01*
X50505238Y-28706904D01*
X50410000Y-28611666D01*
X50362380Y-28516428D01*
X50362380Y-28325952D01*
X50410000Y-28230714D01*
X50505238Y-28135476D01*
X50695714Y-28087857D01*
X51029047Y-28087857D01*
X51219523Y-28135476D01*
X51314761Y-28230714D01*
X51362380Y-28325952D01*
X51362380Y-28516428D01*
X50457619Y-27706904D02*
X50410000Y-27659285D01*
X50362380Y-27564047D01*
X50362380Y-27325952D01*
X50410000Y-27230714D01*
X50457619Y-27183095D01*
X50552857Y-27135476D01*
X50648095Y-27135476D01*
X50790952Y-27183095D01*
X51362380Y-27754523D01*
X51362380Y-27135476D01*
X51457619Y-16610238D02*
X51410000Y-16705476D01*
X51314761Y-16800714D01*
X51171904Y-16943571D01*
X51124285Y-17038809D01*
X51124285Y-17134047D01*
X51362380Y-17086428D02*
X51314761Y-17181666D01*
X51219523Y-17276904D01*
X51029047Y-17324523D01*
X50695714Y-17324523D01*
X50505238Y-17276904D01*
X50410000Y-17181666D01*
X50362380Y-17086428D01*
X50362380Y-16895952D01*
X50410000Y-16800714D01*
X50505238Y-16705476D01*
X50695714Y-16657857D01*
X51029047Y-16657857D01*
X51219523Y-16705476D01*
X51314761Y-16800714D01*
X51362380Y-16895952D01*
X51362380Y-17086428D01*
X50362380Y-16324523D02*
X50362380Y-15705476D01*
X50743333Y-16038809D01*
X50743333Y-15895952D01*
X50790952Y-15800714D01*
X50838571Y-15753095D01*
X50933809Y-15705476D01*
X51171904Y-15705476D01*
X51267142Y-15753095D01*
X51314761Y-15800714D01*
X51362380Y-15895952D01*
X51362380Y-16181666D01*
X51314761Y-16276904D01*
X51267142Y-16324523D01*
X51457619Y-5815238D02*
X51410000Y-5910476D01*
X51314761Y-6005714D01*
X51171904Y-6148571D01*
X51124285Y-6243809D01*
X51124285Y-6339047D01*
X51362380Y-6291428D02*
X51314761Y-6386666D01*
X51219523Y-6481904D01*
X51029047Y-6529523D01*
X50695714Y-6529523D01*
X50505238Y-6481904D01*
X50410000Y-6386666D01*
X50362380Y-6291428D01*
X50362380Y-6100952D01*
X50410000Y-6005714D01*
X50505238Y-5910476D01*
X50695714Y-5862857D01*
X51029047Y-5862857D01*
X51219523Y-5910476D01*
X51314761Y-6005714D01*
X51362380Y-6100952D01*
X51362380Y-6291428D01*
X50695714Y-5005714D02*
X51362380Y-5005714D01*
X50314761Y-5243809D02*
X51029047Y-5481904D01*
X51029047Y-4862857D01*
X2442380Y-13506666D02*
X1966190Y-13840000D01*
X2442380Y-14078095D02*
X1442380Y-14078095D01*
X1442380Y-13697142D01*
X1490000Y-13601904D01*
X1537619Y-13554285D01*
X1632857Y-13506666D01*
X1775714Y-13506666D01*
X1870952Y-13554285D01*
X1918571Y-13601904D01*
X1966190Y-13697142D01*
X1966190Y-14078095D01*
X2442380Y-12554285D02*
X2442380Y-13125714D01*
X2442380Y-12840000D02*
X1442380Y-12840000D01*
X1585238Y-12935238D01*
X1680476Y-13030476D01*
X1728095Y-13125714D01*
X20222380Y-13506666D02*
X19746190Y-13840000D01*
X20222380Y-14078095D02*
X19222380Y-14078095D01*
X19222380Y-13697142D01*
X19270000Y-13601904D01*
X19317619Y-13554285D01*
X19412857Y-13506666D01*
X19555714Y-13506666D01*
X19650952Y-13554285D01*
X19698571Y-13601904D01*
X19746190Y-13697142D01*
X19746190Y-14078095D01*
X19317619Y-13125714D02*
X19270000Y-13078095D01*
X19222380Y-12982857D01*
X19222380Y-12744761D01*
X19270000Y-12649523D01*
X19317619Y-12601904D01*
X19412857Y-12554285D01*
X19508095Y-12554285D01*
X19650952Y-12601904D01*
X20222380Y-13173333D01*
X20222380Y-12554285D01*
X38002380Y-13506666D02*
X37526190Y-13840000D01*
X38002380Y-14078095D02*
X37002380Y-14078095D01*
X37002380Y-13697142D01*
X37050000Y-13601904D01*
X37097619Y-13554285D01*
X37192857Y-13506666D01*
X37335714Y-13506666D01*
X37430952Y-13554285D01*
X37478571Y-13601904D01*
X37526190Y-13697142D01*
X37526190Y-14078095D01*
X37002380Y-13173333D02*
X37002380Y-12554285D01*
X37383333Y-12887619D01*
X37383333Y-12744761D01*
X37430952Y-12649523D01*
X37478571Y-12601904D01*
X37573809Y-12554285D01*
X37811904Y-12554285D01*
X37907142Y-12601904D01*
X37954761Y-12649523D01*
X38002380Y-12744761D01*
X38002380Y-13030476D01*
X37954761Y-13125714D01*
X37907142Y-13173333D01*
X2692380Y-26206666D02*
X2216190Y-26540000D01*
X2692380Y-26778095D02*
X1692380Y-26778095D01*
X1692380Y-26397142D01*
X1740000Y-26301904D01*
X1787619Y-26254285D01*
X1882857Y-26206666D01*
X2025714Y-26206666D01*
X2120952Y-26254285D01*
X2168571Y-26301904D01*
X2216190Y-26397142D01*
X2216190Y-26778095D01*
X2025714Y-25349523D02*
X2692380Y-25349523D01*
X1644761Y-25587619D02*
X2359047Y-25825714D01*
X2359047Y-25206666D01*
X11582380Y-26206666D02*
X11106190Y-26540000D01*
X11582380Y-26778095D02*
X10582380Y-26778095D01*
X10582380Y-26397142D01*
X10630000Y-26301904D01*
X10677619Y-26254285D01*
X10772857Y-26206666D01*
X10915714Y-26206666D01*
X11010952Y-26254285D01*
X11058571Y-26301904D01*
X11106190Y-26397142D01*
X11106190Y-26778095D01*
X10582380Y-25301904D02*
X10582380Y-25778095D01*
X11058571Y-25825714D01*
X11010952Y-25778095D01*
X10963333Y-25682857D01*
X10963333Y-25444761D01*
X11010952Y-25349523D01*
X11058571Y-25301904D01*
X11153809Y-25254285D01*
X11391904Y-25254285D01*
X11487142Y-25301904D01*
X11534761Y-25349523D01*
X11582380Y-25444761D01*
X11582380Y-25682857D01*
X11534761Y-25778095D01*
X11487142Y-25825714D01*
X20472380Y-26206666D02*
X19996190Y-26540000D01*
X20472380Y-26778095D02*
X19472380Y-26778095D01*
X19472380Y-26397142D01*
X19520000Y-26301904D01*
X19567619Y-26254285D01*
X19662857Y-26206666D01*
X19805714Y-26206666D01*
X19900952Y-26254285D01*
X19948571Y-26301904D01*
X19996190Y-26397142D01*
X19996190Y-26778095D01*
X19472380Y-25349523D02*
X19472380Y-25540000D01*
X19520000Y-25635238D01*
X19567619Y-25682857D01*
X19710476Y-25778095D01*
X19900952Y-25825714D01*
X20281904Y-25825714D01*
X20377142Y-25778095D01*
X20424761Y-25730476D01*
X20472380Y-25635238D01*
X20472380Y-25444761D01*
X20424761Y-25349523D01*
X20377142Y-25301904D01*
X20281904Y-25254285D01*
X20043809Y-25254285D01*
X19948571Y-25301904D01*
X19900952Y-25349523D01*
X19853333Y-25444761D01*
X19853333Y-25635238D01*
X19900952Y-25730476D01*
X19948571Y-25778095D01*
X20043809Y-25825714D01*
X29362380Y-26206666D02*
X28886190Y-26540000D01*
X29362380Y-26778095D02*
X28362380Y-26778095D01*
X28362380Y-26397142D01*
X28410000Y-26301904D01*
X28457619Y-26254285D01*
X28552857Y-26206666D01*
X28695714Y-26206666D01*
X28790952Y-26254285D01*
X28838571Y-26301904D01*
X28886190Y-26397142D01*
X28886190Y-26778095D01*
X28362380Y-25873333D02*
X28362380Y-25206666D01*
X29362380Y-25635238D01*
X38252380Y-26206666D02*
X37776190Y-26540000D01*
X38252380Y-26778095D02*
X37252380Y-26778095D01*
X37252380Y-26397142D01*
X37300000Y-26301904D01*
X37347619Y-26254285D01*
X37442857Y-26206666D01*
X37585714Y-26206666D01*
X37680952Y-26254285D01*
X37728571Y-26301904D01*
X37776190Y-26397142D01*
X37776190Y-26778095D01*
X37680952Y-25635238D02*
X37633333Y-25730476D01*
X37585714Y-25778095D01*
X37490476Y-25825714D01*
X37442857Y-25825714D01*
X37347619Y-25778095D01*
X37300000Y-25730476D01*
X37252380Y-25635238D01*
X37252380Y-25444761D01*
X37300000Y-25349523D01*
X37347619Y-25301904D01*
X37442857Y-25254285D01*
X37490476Y-25254285D01*
X37585714Y-25301904D01*
X37633333Y-25349523D01*
X37680952Y-25444761D01*
X37680952Y-25635238D01*
X37728571Y-25730476D01*
X37776190Y-25778095D01*
X37871428Y-25825714D01*
X38061904Y-25825714D01*
X38157142Y-25778095D01*
X38204761Y-25730476D01*
X38252380Y-25635238D01*
X38252380Y-25444761D01*
X38204761Y-25349523D01*
X38157142Y-25301904D01*
X38061904Y-25254285D01*
X37871428Y-25254285D01*
X37776190Y-25301904D01*
X37728571Y-25349523D01*
X37680952Y-25444761D01*
X9482380Y-6271904D02*
X10291904Y-6271904D01*
X10387142Y-6224285D01*
X10434761Y-6176666D01*
X10482380Y-6081428D01*
X10482380Y-5890952D01*
X10434761Y-5795714D01*
X10387142Y-5748095D01*
X10291904Y-5700476D01*
X9482380Y-5700476D01*
X10482380Y-4700476D02*
X10482380Y-5271904D01*
X10482380Y-4986190D02*
X9482380Y-4986190D01*
X9625238Y-5081428D01*
X9720476Y-5176666D01*
X9768095Y-5271904D01*
X27262380Y-6271904D02*
X28071904Y-6271904D01*
X28167142Y-6224285D01*
X28214761Y-6176666D01*
X28262380Y-6081428D01*
X28262380Y-5890952D01*
X28214761Y-5795714D01*
X28167142Y-5748095D01*
X28071904Y-5700476D01*
X27262380Y-5700476D01*
X27357619Y-5271904D02*
X27310000Y-5224285D01*
X27262380Y-5129047D01*
X27262380Y-4890952D01*
X27310000Y-4795714D01*
X27357619Y-4748095D01*
X27452857Y-4700476D01*
X27548095Y-4700476D01*
X27690952Y-4748095D01*
X28262380Y-5319523D01*
X28262380Y-4700476D01*
X64970476Y-16382380D02*
X65303809Y-17382380D01*
X65637142Y-16382380D01*
X66494285Y-17382380D02*
X65922857Y-17382380D01*
X66208571Y-17382380D02*
X66208571Y-16382380D01*
X66113333Y-16525238D01*
X66018095Y-16620476D01*
X65922857Y-16668095D01*
X18830476Y-33527380D02*
X19163809Y-34527380D01*
X19497142Y-33527380D01*
X19782857Y-33622619D02*
X19830476Y-33575000D01*
X19925714Y-33527380D01*
X20163809Y-33527380D01*
X20259047Y-33575000D01*
X20306666Y-33622619D01*
X20354285Y-33717857D01*
X20354285Y-33813095D01*
X20306666Y-33955952D01*
X19735238Y-34527380D01*
X20354285Y-34527380D01*
M02*
