G04 #@! TF.GenerationSoftware,KiCad,Pcbnew,(5.1.10)-1*
G04 #@! TF.CreationDate,2022-12-18T22:04:33+09:00*
G04 #@! TF.ProjectId,MD,4d442e6b-6963-4616-945f-706362585858,rev?*
G04 #@! TF.SameCoordinates,PX2faf080PY2625a00*
G04 #@! TF.FileFunction,Soldermask,Top*
G04 #@! TF.FilePolarity,Negative*
%FSLAX46Y46*%
G04 Gerber Fmt 4.6, Leading zero omitted, Abs format (unit mm)*
G04 Created by KiCad (PCBNEW (5.1.10)-1) date 2022-12-18 22:04:33*
%MOMM*%
%LPD*%
G01*
G04 APERTURE LIST*
%ADD10C,3.200000*%
%ADD11C,1.600000*%
%ADD12O,1.600000X1.600000*%
%ADD13R,1.600000X1.600000*%
%ADD14R,1.700000X1.700000*%
%ADD15O,1.700000X1.700000*%
%ADD16R,1.800000X1.800000*%
%ADD17O,1.800000X1.800000*%
%ADD18R,0.720000X1.780000*%
%ADD19C,6.000000*%
G04 APERTURE END LIST*
D10*
X71000000Y-4000000D03*
X71000000Y-41000000D03*
X4000000Y-41000000D03*
X4000000Y-4000000D03*
D11*
X55410000Y-34930000D03*
D12*
X62910000Y-34930000D03*
X62910000Y-41915000D03*
D11*
X55410000Y-41915000D03*
D13*
X55410000Y-3180000D03*
D12*
X63030000Y-3180000D03*
X63030000Y-8260000D03*
D13*
X55410000Y-8260000D03*
D14*
X35090000Y-40010000D03*
D15*
X35090000Y-42550000D03*
X37630000Y-40010000D03*
X37630000Y-42550000D03*
X40170000Y-40010000D03*
X40170000Y-42550000D03*
D16*
X47790000Y-36200000D03*
D17*
X47790000Y-38740000D03*
X47790000Y-41280000D03*
D16*
X47790000Y-25405000D03*
D17*
X47790000Y-27945000D03*
X47790000Y-30485000D03*
X47790000Y-19055000D03*
X47790000Y-16515000D03*
D16*
X47790000Y-13975000D03*
D17*
X47790000Y-8260000D03*
X47790000Y-5720000D03*
D16*
X47790000Y-3180000D03*
G36*
G01*
X6035000Y-10990000D02*
X3185000Y-10990000D01*
G75*
G02*
X2935000Y-10740000I0J250000D01*
G01*
X2935000Y-10015000D01*
G75*
G02*
X3185000Y-9765000I250000J0D01*
G01*
X6035000Y-9765000D01*
G75*
G02*
X6285000Y-10015000I0J-250000D01*
G01*
X6285000Y-10740000D01*
G75*
G02*
X6035000Y-10990000I-250000J0D01*
G01*
G37*
G36*
G01*
X6035000Y-16915000D02*
X3185000Y-16915000D01*
G75*
G02*
X2935000Y-16665000I0J250000D01*
G01*
X2935000Y-15940000D01*
G75*
G02*
X3185000Y-15690000I250000J0D01*
G01*
X6035000Y-15690000D01*
G75*
G02*
X6285000Y-15940000I0J-250000D01*
G01*
X6285000Y-16665000D01*
G75*
G02*
X6035000Y-16915000I-250000J0D01*
G01*
G37*
G36*
G01*
X23815000Y-16915000D02*
X20965000Y-16915000D01*
G75*
G02*
X20715000Y-16665000I0J250000D01*
G01*
X20715000Y-15940000D01*
G75*
G02*
X20965000Y-15690000I250000J0D01*
G01*
X23815000Y-15690000D01*
G75*
G02*
X24065000Y-15940000I0J-250000D01*
G01*
X24065000Y-16665000D01*
G75*
G02*
X23815000Y-16915000I-250000J0D01*
G01*
G37*
G36*
G01*
X23815000Y-10990000D02*
X20965000Y-10990000D01*
G75*
G02*
X20715000Y-10740000I0J250000D01*
G01*
X20715000Y-10015000D01*
G75*
G02*
X20965000Y-9765000I250000J0D01*
G01*
X23815000Y-9765000D01*
G75*
G02*
X24065000Y-10015000I0J-250000D01*
G01*
X24065000Y-10740000D01*
G75*
G02*
X23815000Y-10990000I-250000J0D01*
G01*
G37*
G36*
G01*
X41595000Y-16915000D02*
X38745000Y-16915000D01*
G75*
G02*
X38495000Y-16665000I0J250000D01*
G01*
X38495000Y-15940000D01*
G75*
G02*
X38745000Y-15690000I250000J0D01*
G01*
X41595000Y-15690000D01*
G75*
G02*
X41845000Y-15940000I0J-250000D01*
G01*
X41845000Y-16665000D01*
G75*
G02*
X41595000Y-16915000I-250000J0D01*
G01*
G37*
G36*
G01*
X41595000Y-10990000D02*
X38745000Y-10990000D01*
G75*
G02*
X38495000Y-10740000I0J250000D01*
G01*
X38495000Y-10015000D01*
G75*
G02*
X38745000Y-9765000I250000J0D01*
G01*
X41595000Y-9765000D01*
G75*
G02*
X41845000Y-10015000I0J-250000D01*
G01*
X41845000Y-10740000D01*
G75*
G02*
X41595000Y-10990000I-250000J0D01*
G01*
G37*
D11*
X4610000Y-31120000D03*
D12*
X4610000Y-20960000D03*
X13500000Y-20960000D03*
D11*
X13500000Y-31120000D03*
X22390000Y-31120000D03*
D12*
X22390000Y-20960000D03*
X31280000Y-20960000D03*
D11*
X31280000Y-31120000D03*
X40170000Y-31120000D03*
D12*
X40170000Y-20960000D03*
D18*
X11600000Y-3380000D03*
X12870000Y-3380000D03*
X14140000Y-3380000D03*
X15410000Y-3380000D03*
X15410000Y-8060000D03*
X14140000Y-8060000D03*
X12870000Y-8060000D03*
X11600000Y-8060000D03*
X29380000Y-8060000D03*
X30650000Y-8060000D03*
X31920000Y-8060000D03*
X33190000Y-8060000D03*
X33190000Y-3380000D03*
X31920000Y-3380000D03*
X30650000Y-3380000D03*
X29380000Y-3380000D03*
D19*
X69380000Y-22230000D03*
G36*
G01*
X59180000Y-23730000D02*
X59180000Y-20730000D01*
G75*
G02*
X60680000Y-19230000I1500000J0D01*
G01*
X63680000Y-19230000D01*
G75*
G02*
X65180000Y-20730000I0J-1500000D01*
G01*
X65180000Y-23730000D01*
G75*
G02*
X63680000Y-25230000I-1500000J0D01*
G01*
X60680000Y-25230000D01*
G75*
G02*
X59180000Y-23730000I0J1500000D01*
G01*
G37*
X23240000Y-39375000D03*
G36*
G01*
X13040000Y-40875000D02*
X13040000Y-37875000D01*
G75*
G02*
X14540000Y-36375000I1500000J0D01*
G01*
X17540000Y-36375000D01*
G75*
G02*
X19040000Y-37875000I0J-1500000D01*
G01*
X19040000Y-40875000D01*
G75*
G02*
X17540000Y-42375000I-1500000J0D01*
G01*
X14540000Y-42375000D01*
G75*
G02*
X13040000Y-40875000I0J1500000D01*
G01*
G37*
M02*
